<?xml version="1.0" standalone="no"?>
<!DOCTYPE svg PUBLIC "-//W3C//DTD SVG 1.1//EN" "http://www.w3.org/Graphics/SVG/1.1/DTD/svg11.dtd" >
<svg xmlns="http://www.w3.org/2000/svg" xmlns:xlink="http://www.w3.org/1999/xlink" version="1.1">
<metadata>
Created by FontForge 20161003 at Thu Oct  4 07:11:56 2018
 By www-data
Copyright (c) 2009 by Hannes von Dhren. All rights reserved.
</metadata>
<defs>
<font id="BrandonGrotesque-MediumItalic" horiz-adv-x="461" >
  <font-face 
    font-family="Brandon Grotesque Medium"
    font-weight="420"
    font-style="italic"
    font-stretch="normal"
    units-per-em="1000"
    panose-1="2 11 6 3 2 2 3 13 2 2"
    ascent="700"
    descent="-300"
    x-height="400"
    cap-height="700"
    bbox="-183.75 -380.131 980.752 1037.02"
    underline-thickness="50"
    underline-position="-100"
    slope="-8"
    stemh="87"
    stemv="96"
    unicode-range="U+0020-FB02"
  />
<missing-glyph horiz-adv-x="599" 
d="M50 30v640c0 21 9 30 30 30h439c21 0 30 -9 30 -30v-640c0 -21 -9 -30 -30 -30h-439c-21 0 -30 9 -30 30zM262 314c0 -7 7 -12 14 -12h36c9 0 15 4 15 13v26c0 48 105 63 105 150c0 65 -54 111 -125 111c-87 0 -130 -61 -130 -61c-4 -6 -6 -13 0 -18l22 -22
c6 -4 11 -4 17 0c13 12 36 41 84 41c40 0 61 -25 61 -52c0 -63 -99 -72 -99 -147v-29zM245 156c0 -26 22 -48 48 -48c27 0 49 22 49 48s-22 48 -49 48c-26 0 -48 -22 -48 -48z" />
    <glyph glyph-name="fi" unicode="fi" horiz-adv-x="514" 
d="M16 -281l83 598h-47c-10 0 -16 9 -15 19l7 45c1 11 10 19 19 19h47l18 124c17 119 89 186 191 186c60 0 115 -31 133 -45c7 -5 8 -17 2 -25l-28 -45c-8 -12 -15 -11 -24 -5s-50 29 -90 29c-35 0 -76 -26 -86 -95l-18 -124h242c9 0 15 -9 14 -19l-51 -362
c-1 -10 -11 -19 -20 -19h-61c-9 0 -16 9 -14 19l41 298h-162l-83 -598c-2 -15 -13 -19 -24 -19h-60c-9 0 -16 9 -14 19z" />
    <glyph glyph-name="fl" unicode="fl" horiz-adv-x="523" 
d="M15 -281l85 599h-50c-9 0 -15 9 -14 19l6 44c2 11 10 19 20 19h49l18 124c18 123 104 186 194 186c77 0 118 -54 118 -54l13 27c4 9 11 17 23 17h24c9 0 16 -9 15 -19l-93 -662c-2 -10 -11 -19 -20 -19h-62c-9 0 -15 9 -14 19l78 546c-2 4 -32 54 -87 54
c-38 0 -82 -26 -92 -95l-18 -124h84c10 0 16 -8 15 -19l-7 -44c-1 -10 -9 -19 -19 -19h-84l-85 -599c-1 -10 -11 -19 -20 -19h-64c-9 0 -14 9 -13 19z" />
    <glyph glyph-name="f_f" unicode="ff" horiz-adv-x="583" 
d="M14 -281l86 598h-49c-9 0 -15 9 -14 19l6 45c2 11 10 19 20 19h48l14 101c19 137 105 199 210 199c62 0 98 -26 116 -43c34 35 78 53 126 53c49 0 85 -24 99 -40c5 -6 5 -16 0 -23l-28 -43c-6 -8 -14 -11 -22 -5c-13 10 -35 21 -56 21c-39 0 -72 -29 -81 -96l-17 -124h94
c10 0 16 -8 14 -19l-6 -45c-2 -10 -10 -19 -20 -19h-94l-86 -598c-1 -10 -11 -19 -20 -19h-64c-9 0 -16 9 -14 19l86 598h-164l-86 -598c-1 -10 -11 -19 -20 -19h-64c-9 0 -16 9 -14 19zM209 400h164l18 124c3 19 7 40 12 56c-10 15 -39 33 -76 33c-47 0 -91 -33 -103 -112z
" />
    <glyph glyph-name="f_f_i" unicode="ffi" horiz-adv-x="777" 
d="M12 -281l88 598h-48c-10 0 -16 9 -15 19l6 45c2 11 10 19 20 19h48l15 101c16 122 87 199 209 199c70 0 106 -34 116 -43c34 35 77 53 131 53c60 0 115 -31 133 -45c7 -5 8 -17 2 -25l-28 -45c-8 -12 -15 -11 -24 -5s-50 29 -90 29c-37 0 -76 -27 -86 -96l-17 -123h241
c9 0 15 -9 14 -19l-51 -362c-1 -10 -11 -19 -20 -19h-61c-10 0 -15 9 -14 19l41 298h-162l-88 -598c-1 -10 -11 -19 -20 -19h-64c-9 0 -16 9 -14 19l88 598h-164l-88 -598c-1 -10 -11 -19 -20 -19h-64c-9 0 -16 9 -14 19zM210 400h163l18 124c3 19 8 40 12 56
c-9 15 -39 33 -76 33c-48 0 -92 -33 -103 -112z" />
    <glyph glyph-name="f_f_l" unicode="ffl" horiz-adv-x="787" 
d="M15 -281l84 598h-49c-9 0 -15 9 -14 19l6 45c2 11 10 19 20 19h48l14 101c20 137 113 199 210 199c62 0 98 -26 116 -43c34 35 81 53 137 53c77 0 118 -54 118 -54l13 27c4 9 11 17 23 17h24c9 0 16 -9 15 -19l-93 -662c-2 -10 -11 -19 -20 -19h-62c-9 0 -15 9 -14 19
l78 546c-2 4 -33 54 -88 54c-39 0 -83 -26 -93 -95l-18 -124h84c10 0 16 -8 15 -19l-7 -44c-1 -10 -9 -19 -19 -19h-84l-84 -599c-1 -10 -11 -19 -20 -19h-64c-9 0 -16 9 -14 19l84 598h-164l-84 -598c-1 -10 -11 -19 -20 -19h-64c-9 0 -16 9 -14 19zM208 400h164l18 124
c3 19 8 40 13 56c-10 15 -40 33 -77 33c-47 0 -92 -33 -103 -112z" />
    <glyph glyph-name="f_f_h" unicode="ffh" horiz-adv-x="1037" 
d="M17 -281l82 598h-49c-9 0 -15 9 -14 19l6 45c2 11 10 19 20 19h48l13 90c20 143 99 210 211 210c62 0 98 -26 116 -43c34 35 81 53 137 53c75 0 116 -54 116 -54l13 27c4 9 11 17 23 17h24c9 0 16 -8 15 -17l-45 -316c14 11 58 43 109 43c101 0 143 -81 128 -190
l-28 -201c-1 -10 -11 -19 -20 -19h-60c-10 0 -15 9 -14 19l28 201c9 65 -13 101 -58 101c-49 0 -90 -46 -100 -63l-34 -239c-2 -11 -8 -19 -21 -19h-61c-9 0 -15 9 -14 19l78 544c-3 4 -31 56 -85 56c-41 0 -83 -27 -94 -102l-17 -117h84c10 0 16 -8 15 -19l-7 -44
c-1 -10 -9 -19 -19 -19h-84l-82 -599c-1 -10 -11 -19 -20 -19h-64c-9 0 -16 9 -14 19l82 598h-164l-82 -598c-1 -10 -11 -19 -20 -19h-64c-9 0 -16 9 -14 19zM208 400h164l18 124c3 19 8 40 13 56c-10 15 -40 33 -77 33c-47 0 -92 -33 -103 -112z" />
    <glyph glyph-name="f_k" unicode="fk" horiz-adv-x="739" 
d="M15 -281l85 599h-50c-9 0 -15 9 -14 19l6 44c2 11 10 19 20 19h49l18 124c18 123 98 186 194 186c77 0 118 -54 118 -54l13 27c4 9 11 17 23 17h24c9 0 16 -9 15 -19l-60 -433l145 140c7 6 14 12 24 12h79c15 0 16 -18 7 -27l-166 -157l144 -190c7 -9 1 -26 -14 -26h-77
c-6 0 -12 4 -15 8l-135 186l-25 -175c-1 -10 -10 -19 -19 -19h-63c-9 0 -15 9 -14 19l78 546c-2 4 -32 54 -87 54c-38 0 -82 -26 -92 -95l-18 -124h84c10 0 16 -8 15 -19l-7 -44c-1 -10 -9 -19 -19 -19h-84l-85 -599c-1 -10 -11 -19 -20 -19h-64c-9 0 -14 9 -13 19z" />
    <glyph glyph-name="f_j" unicode="fj" horiz-adv-x="524" 
d="M16 -281l83 598h-47c-10 0 -16 9 -15 19l7 45c1 11 10 19 19 19h47l18 124c17 119 95 186 191 186c60 0 115 -31 133 -45c7 -5 8 -17 2 -25l-28 -45c-8 -12 -15 -11 -24 -5s-50 29 -90 29c-35 0 -76 -26 -86 -95l-18 -124h252c9 0 15 -9 14 -19l-70 -505
c-17 -124 -71 -186 -170 -186c-20 0 -41 7 -47 10c-5 2 -12 5 -7 19l21 57c5 13 11 10 18 8c6 -2 16 -3 21 -3c36 0 57 27 67 95l62 441h-172l-83 -598c-2 -15 -13 -19 -24 -19h-60c-9 0 -16 9 -14 19z" />
    <glyph glyph-name="f_f_j" unicode="ffj" horiz-adv-x="787" 
d="M12 -281l88 598h-48c-10 0 -16 9 -15 19l6 45c2 11 10 19 20 19h48l15 101c16 122 89 199 209 199c73 0 108 -34 116 -43c34 35 77 53 131 53c60 0 115 -31 133 -45c7 -5 8 -17 2 -25l-28 -45c-8 -12 -15 -11 -24 -5s-50 29 -90 29c-37 0 -76 -27 -86 -96l-17 -123h251
c9 0 15 -9 14 -19l-70 -505c-17 -124 -67 -186 -170 -186c-20 0 -41 7 -47 10c-5 2 -12 5 -7 19l21 57c5 13 11 10 18 8c6 -2 16 -3 21 -3c36 0 57 27 67 95l62 441h-172l-88 -598c-1 -10 -11 -19 -20 -19h-64c-9 0 -16 9 -14 19l88 598h-164l-88 -598
c-1 -10 -11 -19 -20 -19h-64c-9 0 -16 9 -14 19zM210 400h163l18 124c3 19 8 39 12 55c-9 15 -39 34 -76 34c-48 0 -92 -33 -103 -112z" />
    <glyph glyph-name="f_b" unicode="fb" horiz-adv-x="760" 
d="M15 -281l85 599h-50c-9 0 -15 9 -14 19l6 44c2 11 10 19 20 19h49l18 124c18 123 97 186 194 186c77 0 118 -54 118 -54l13 27c4 9 11 17 23 17h24c9 0 16 -9 15 -19l-40 -293c12 6 45 22 85 22c90 0 153 -83 153 -180c0 -130 -89 -240 -203 -240c-72 0 -108 56 -108 56
l-12 -29c-4 -10 -10 -17 -19 -17h-30c-9 0 -16 9 -14 19l77 546c-2 4 -32 54 -87 54c-38 0 -82 -26 -92 -95l-18 -124h84c10 0 16 -8 15 -19l-7 -44c-1 -10 -9 -19 -19 -19h-84l-85 -599c-1 -10 -11 -19 -20 -19h-64c-9 0 -14 9 -13 19zM440 138c2 -12 20 -62 71 -62
c61 0 109 68 109 144c0 56 -31 103 -80 103c-46 0 -78 -23 -78 -23z" />
    <glyph glyph-name="f_f_k" unicode="ffk" horiz-adv-x="1003" 
d="M15 -281l84 598h-49c-9 0 -15 9 -14 19l6 45c2 11 10 19 20 19h48l14 101c20 137 106 199 210 199c62 0 98 -26 116 -43c34 35 81 53 137 53c77 0 118 -54 118 -54l13 27c4 9 11 17 23 17h24c9 0 16 -9 15 -19l-60 -433l145 140c7 6 14 12 24 12h79c15 0 16 -18 7 -27
l-166 -157l144 -190c7 -9 1 -26 -14 -26h-77c-6 0 -12 4 -15 8l-135 186l-25 -175c-1 -10 -10 -19 -19 -19h-63c-9 0 -15 9 -14 19l78 546c-2 4 -33 54 -88 54c-39 0 -83 -26 -93 -95l-18 -124h84c10 0 16 -8 15 -19l-7 -44c-1 -10 -9 -19 -19 -19h-84l-84 -599
c-1 -10 -11 -19 -20 -19h-64c-9 0 -16 9 -14 19l84 598h-164l-84 -598c-1 -10 -11 -19 -20 -19h-64c-9 0 -16 9 -14 19zM208 400h164l18 124c3 19 8 40 13 56c-10 15 -40 33 -77 33c-47 0 -92 -33 -103 -112z" />
    <glyph glyph-name="f_h" unicode="fh" horiz-adv-x="776" 
d="M14 -281l85 598h-50c-9 0 -15 9 -14 19l6 44c2 11 10 19 20 19h49l18 125c18 123 98 186 194 186c77 0 118 -54 118 -54l13 27c4 9 11 17 23 17h24c9 0 16 -9 15 -19l-44 -314c14 11 58 43 109 43c107 0 143 -81 128 -190l-28 -201c-1 -10 -11 -19 -20 -19h-60
c-10 0 -15 9 -14 19l28 201c9 65 -13 101 -58 101c-49 0 -90 -46 -100 -63l-34 -239c-2 -11 -8 -19 -21 -19h-61c-9 0 -15 9 -14 19l78 546c-2 4 -32 54 -87 54c-38 0 -82 -26 -92 -95l-18 -125h84c10 0 16 -8 15 -19l-7 -44c-1 -10 -9 -19 -19 -19h-84l-85 -598
c-1 -10 -11 -19 -20 -19h-64c-9 0 -14 9 -13 19z" />
    <glyph glyph-name="f_f_b" unicode="ffb" horiz-adv-x="1023" 
d="M15 -281l84 598h-49c-9 0 -15 9 -14 19l6 45c2 11 10 19 20 19h48l14 101c20 137 104 199 210 199c62 0 98 -26 116 -43c34 35 81 53 137 53c77 0 118 -54 118 -54l13 27c4 9 11 17 23 17h24c9 0 16 -9 15 -19l-41 -293c12 6 45 22 85 22c90 0 153 -80 153 -180
c0 -130 -87 -240 -203 -240c-72 0 -108 56 -108 56l-12 -29c-4 -10 -10 -17 -19 -17h-30c-9 0 -16 9 -14 19l78 546c-2 4 -33 54 -88 54c-39 0 -83 -26 -93 -95l-18 -125h84c10 0 16 -8 15 -19l-7 -44c-1 -10 -9 -19 -19 -19h-84l-84 -598c-1 -10 -11 -19 -20 -19h-64
c-9 0 -16 9 -14 19l84 598h-164l-84 -598c-1 -10 -11 -19 -20 -19h-64c-9 0 -16 9 -14 19zM208 400h164l18 124c3 19 8 40 13 56c-10 15 -40 33 -77 33c-47 0 -92 -33 -103 -112zM703 141c2 -10 20 -65 71 -65c61 0 109 68 109 144c0 56 -31 103 -80 103
c-46 0 -78 -23 -78 -23z" />
    <glyph glyph-name=".notdef" horiz-adv-x="599" 
d="M50 30v640c0 21 9 30 30 30h439c21 0 30 -9 30 -30v-640c0 -21 -9 -30 -30 -30h-439c-21 0 -30 9 -30 30zM262 314c0 -7 7 -12 14 -12h36c9 0 15 4 15 13v26c0 48 105 63 105 150c0 65 -54 111 -125 111c-87 0 -130 -61 -130 -61c-4 -6 -6 -13 0 -18l22 -22
c6 -4 11 -4 17 0c13 12 36 41 84 41c40 0 61 -25 61 -52c0 -63 -99 -72 -99 -147v-29zM245 156c0 -26 22 -48 48 -48c27 0 49 22 49 48s-22 48 -49 48c-26 0 -48 -22 -48 -48z" />
    <glyph glyph-name=".null" horiz-adv-x="0" 
 />
    <glyph glyph-name="CR" horiz-adv-x="0" 
 />
    <glyph glyph-name="space" unicode=" " horiz-adv-x="225" 
 />
    <glyph glyph-name="exclam" unicode="!" horiz-adv-x="294" 
d="M135 272c-8 0 -15 8 -15 16l10 279l16 114c1 10 10 19 19 19h84c9 0 16 -9 15 -19l-16 -112l-70 -281c-2 -8 -11 -16 -19 -16h-24zM48 51c0 43 39 78 78 78c34 0 59 -27 59 -61c0 -43 -38 -78 -79 -78c-32 0 -58 27 -58 61z" />
    <glyph glyph-name="quotedbl" unicode="&#x22;" horiz-adv-x="312" 
d="M238 501c-9 0 -16 9 -14 19l22 161c2 10 11 19 20 19h60c12 0 19 -11 13 -25l-55 -159c-3 -8 -9 -15 -19 -15h-27zM89 501c-9 0 -15 9 -14 19l23 161c1 10 10 19 19 19h61c11 0 18 -11 12 -25l-55 -159c-3 -8 -9 -15 -18 -15h-28z" />
    <glyph glyph-name="numbersign" unicode="#" horiz-adv-x="499" 
d="M64 22l45 169h-63c-10 0 -16 9 -15 19l1 9c1 11 11 19 20 19h70l45 169h-65c-9 0 -15 9 -14 19l1 9c1 10 11 19 20 19h70l61 230c2 8 10 16 18 16h12c10 0 16 -10 13 -22l-58 -224h140l59 230c2 8 12 16 20 16h9c11 0 17 -10 14 -22l-58 -224h59c10 0 15 -9 14 -19l-1 -9
c-1 -10 -9 -19 -19 -19h-65l-45 -169h60c9 0 14 -8 13 -19l-1 -9c-1 -10 -10 -19 -19 -19h-67l-46 -175c-2 -9 -11 -16 -20 -16h-10c-11 0 -17 10 -14 22l46 169h-142l-46 -175c-2 -9 -11 -16 -19 -16h-9c-12 0 -17 10 -14 22zM167 238h141l43 169h-140z" />
    <glyph glyph-name="dollar" unicode="$" horiz-adv-x="489" 
d="M24 69c-7 8 -12 15 0 32l31 40c9 12 24 14 32 4c4 -5 53 -49 109 -62l33 223c-82 39 -163 96 -151 207c9 105 86 190 207 196l5 32c1 11 10 19 19 19h10c9 0 17 -8 15 -19l-4 -33c78 -7 131 -48 142 -57c7 -5 12 -21 1 -34l-34 -39c-9 -10 -21 -12 -29 -5
c-9 8 -50 32 -93 44l-32 -219c74 -40 155 -100 155 -202c0 -116 -80 -203 -213 -205l-15 -104c-2 -12 -11 -18 -21 -18s-25 3 -23 18l15 104c-95 8 -147 65 -159 78zM243 418l28 200c-60 -8 -92 -57 -92 -100c0 -42 22 -74 64 -100zM240 81c54 2 93 47 93 103
c0 40 -22 73 -64 102z" />
    <glyph glyph-name="percent" unicode="%" horiz-adv-x="610" 
d="M176 440c-58 0 -105 52 -105 117c0 84 62 153 141 153c58 0 105 -52 105 -117c0 -85 -63 -153 -141 -153zM70 27l402 663c4 6 9 10 16 10h41c13 0 19 -14 11 -27l-404 -663c-2 -4 -9 -10 -16 -10h-39c-13 0 -19 14 -11 27zM185 511c31 0 59 33 59 73c0 28 -16 53 -41 53
c-31 0 -59 -33 -59 -72c0 -30 16 -54 41 -54zM300 107c0 84 62 153 141 153c58 0 105 -52 105 -117c0 -85 -63 -153 -141 -153c-58 0 -105 52 -105 117zM373 115c0 -30 16 -54 41 -54c31 0 59 33 59 73c0 28 -16 53 -41 53c-31 0 -59 -33 -59 -72z" />
    <glyph glyph-name="ampersand" unicode="&#x26;" horiz-adv-x="622" 
d="M58 152c0 137 125 201 156 224v2l-17 25c-29 41 -52 85 -43 145c10 76 73 162 191 162c85 0 145 -65 145 -141c0 -109 -120 -181 -157 -209l100 -139c25 37 49 98 59 149c4 22 14 27 30 24l45 -9c16 -3 12 -22 10 -31c-18 -76 -60 -157 -89 -197l74 -96
c9 -12 16 -25 -5 -39l-33 -22c-14 -10 -25 -12 -36 4l-57 80c-35 -41 -102 -94 -209 -94c-102 0 -164 75 -164 162zM289 421c26 19 112 73 112 137c0 38 -25 75 -70 75c-47 0 -80 -39 -87 -86c-6 -39 4 -70 29 -104zM155 167c0 -54 34 -92 84 -92c66 0 115 39 140 73
l-120 172c-27 -21 -104 -65 -104 -153z" />
    <glyph glyph-name="quotesingle" unicode="'" horiz-adv-x="163" 
d="M89 501c-9 0 -15 9 -14 19l23 161c1 10 10 19 19 19h61c11 0 18 -11 12 -25l-55 -159c-3 -8 -10 -15 -18 -15h-28z" />
    <glyph glyph-name="parenleft" unicode="(" horiz-adv-x="324" 
d="M52 207c0 384 154 496 285 503c10 1 16 -4 15 -13l-4 -47c-1 -12 -7 -17 -13 -18c-168 -39 -186 -270 -186 -426c0 -111 29 -188 97 -209c6 -2 10 -9 8 -18l-9 -44c-2 -9 -9 -14 -19 -13c-77 4 -174 86 -174 285z" />
    <glyph glyph-name="parenright" unicode=")" horiz-adv-x="325" 
d="M0 -1c161 40 187 248 187 421c0 111 -30 194 -98 213c-6 1 -10 8 -8 18l10 46c2 9 8 14 18 13c78 -6 174 -74 174 -287c0 -384 -149 -500 -285 -501c-10 0 -15 4 -14 16l3 44c1 8 6 15 13 17z" />
    <glyph glyph-name="asterisk" unicode="*" horiz-adv-x="322" 
d="M165 392c-11 0 -16 9 -14 19l13 85l-71 -49c-8 -6 -18 -3 -22 5l-12 20c-5 9 -5 20 4 25l85 49l-66 49c-7 5 -8 19 -1 26l17 19c6 7 16 11 23 5l58 -49l10 85c1 10 7 19 19 19h24c9 0 16 -9 14 -19l-14 -85l72 51c7 5 18 2 22 -6l10 -19c5 -9 3 -19 -6 -25l-82 -51
l66 -50c8 -6 8 -19 2 -26l-17 -19c-7 -8 -18 -12 -24 -6l-57 50l-10 -84c-1 -10 -11 -19 -20 -19h-23z" />
    <glyph glyph-name="plus" unicode="+" horiz-adv-x="553" 
d="M217 153l21 153h-133c-9 0 -16 9 -14 19l5 42c1 12 11 19 20 19h134l21 155c1 10 11 18 20 18h50c9 0 16 -8 15 -18l-22 -155h134c9 0 15 -9 14 -19l-6 -42c-1 -11 -10 -19 -19 -19h-134l-22 -153c-1 -10 -10 -18 -19 -18h-51c-9 0 -15 8 -14 18z" />
    <glyph glyph-name="comma" unicode="," horiz-adv-x="240" 
d="M15 51c0 42 38 78 82 78c31 0 68 -21 68 -87c0 -115 -84 -195 -125 -224c-9 -8 -16 -8 -22 0l-11 15c-5 6 -5 15 5 23c12 10 78 60 89 138c-1 0 -13 -4 -28 -4c-33 0 -58 27 -58 61z" />
    <glyph glyph-name="hyphen" unicode="-" horiz-adv-x="367" 
d="M74 206c-10 0 -16 8 -15 18l6 43c2 11 10 19 20 19h197c10 0 17 -8 15 -19l-6 -43c-1 -10 -10 -18 -20 -18h-197z" />
    <glyph glyph-name="period" unicode="." horiz-adv-x="226" 
d="M16 51c0 43 37 78 77 78c34 0 59 -27 59 -61c0 -43 -37 -78 -79 -78c-33 0 -57 27 -57 61z" />
    <glyph glyph-name="slash" unicode="/" horiz-adv-x="322" 
d="M13 0c-12 0 -19 11 -13 25l270 662c3 7 8 13 18 13h52c12 0 19 -11 13 -25l-269 -662c-3 -7 -9 -13 -18 -13h-53z" />
    <glyph glyph-name="zero" unicode="0" horiz-adv-x="591" 
d="M255 -10c-120 0 -183 114 -183 265c0 262 102 436 282 436c118 0 182 -111 182 -264c0 -262 -105 -437 -281 -437zM268 82c102 0 165 142 165 341c0 107 -32 176 -92 176c-104 0 -167 -142 -167 -341c0 -108 33 -176 94 -176z" />
    <glyph glyph-name="one" unicode="1" horiz-adv-x="330" 
d="M100 19l72 507l-81 -37c-9 -4 -17 -1 -18 7l-3 40c-1 8 0 15 6 20l146 124h53c9 0 15 -9 14 -19l-91 -642c-1 -10 -10 -19 -19 -19h-64c-10 0 -16 9 -15 19z" />
    <glyph glyph-name="two" unicode="2" horiz-adv-x="483" 
d="M17 0c-10 0 -15 9 -14 19l3 26l275 302c54 59 80 112 80 158c0 45 -24 93 -89 93c-47 0 -97 -46 -117 -69c-7 -9 -20 -7 -27 0l-32 36c-9 10 -8 20 -1 28c5 6 79 97 189 97c112 0 175 -79 175 -169c0 -91 -38 -149 -103 -222l-190 -213h214c9 0 15 -9 14 -19l-6 -48
c-1 -10 -11 -19 -20 -19h-351z" />
    <glyph glyph-name="three" unicode="3" horiz-adv-x="493" 
d="M15 79c-4 7 -2 18 5 24l41 33c9 8 18 6 25 -3c11 -15 54 -56 113 -56c60 0 119 45 119 120c0 53 -38 103 -119 103h-50c-10 0 -16 7 -14 21l6 43c2 15 8 21 20 21h51c88 0 137 57 137 125c0 57 -36 88 -82 88c-49 0 -89 -39 -107 -56c-8 -8 -18 -9 -25 -1l-32 38
c-9 10 -5 21 1 29c11 13 82 82 177 82c96 0 171 -64 171 -160c0 -93 -69 -157 -117 -180v-3c36 -18 87 -73 87 -147c0 -116 -88 -210 -226 -210c-104 0 -165 63 -181 89z" />
    <glyph glyph-name="four" unicode="4" horiz-adv-x="545" 
d="M17 149c-10 0 -16 9 -14 19l8 60l394 457c3 3 7 6 14 6h40c9 0 16 -8 14 -19l-62 -442h73c10 0 16 -8 14 -18l-6 -42c-1 -10 -9 -19 -19 -19h-73l-17 -132c-2 -10 -11 -19 -20 -19h-63c-9 0 -16 9 -14 19l18 130h-287zM119 232h200l40 277h-2z" />
    <glyph glyph-name="five" unicode="5" horiz-adv-x="496" 
d="M29 79c-4 7 -2 18 5 24l41 33c9 8 18 6 25 -3c11 -15 55 -54 114 -54c83 0 136 79 136 160c0 58 -33 107 -102 107h-134c-22 0 -29 19 -27 35l40 280c1 10 9 19 19 19h281c10 0 16 -9 15 -19l-7 -49c-1 -10 -10 -19 -20 -19h-208l-22 -159h85c110 0 180 -75 180 -191
c0 -138 -97 -253 -240 -253c-112 0 -165 63 -181 89z" />
    <glyph glyph-name="six" unicode="6" horiz-adv-x="508" 
d="M46 215c0 314 260 454 367 487c12 4 19 -1 22 -12l12 -44c3 -12 -1 -21 -19 -28c-44 -18 -198 -94 -247 -208c11 6 58 26 110 26c94 0 173 -65 173 -187c0 -146 -97 -259 -230 -259c-116 0 -188 103 -188 225zM239 76c78 0 132 73 132 156c0 69 -37 121 -99 121
c-72 0 -118 -53 -128 -71c-20 -88 9 -206 95 -206z" />
    <glyph glyph-name="seven" unicode="7" horiz-adv-x="446" 
d="M24 15l2 16l327 561h-263c-9 0 -15 9 -14 19l7 50c1 10 11 19 20 19h370c9 0 16 -9 15 -19l-2 -16l-360 -627c-7 -13 -14 -18 -26 -18h-60c-10 0 -17 7 -16 15z" />
    <glyph glyph-name="eight" unicode="8" horiz-adv-x="534" 
d="M40 157c0 105 100 175 135 193v3c-31 20 -73 68 -73 135c0 119 94 202 219 202c97 0 173 -64 173 -159c0 -93 -71 -155 -116 -179l-1 -4c35 -19 87 -73 87 -147c0 -116 -87 -211 -238 -211c-108 0 -186 73 -186 167zM282 396c68 15 111 63 111 122c0 52 -34 87 -83 87
c-55 0 -109 -48 -109 -111c0 -52 27 -87 81 -98zM145 165c0 -56 42 -93 91 -93c64 0 124 47 124 121c0 47 -32 96 -91 107c-75 -13 -124 -75 -124 -135z" />
    <glyph glyph-name="nine" unicode="9" horiz-adv-x="507" 
d="M79 40c-3 12 1 21 19 28c44 18 198 94 247 208c-11 -6 -58 -26 -110 -26c-94 0 -173 65 -173 187c0 146 97 259 230 259c116 0 188 -103 188 -225c0 -314 -260 -454 -367 -487c-12 -4 -19 1 -22 12zM254 333c72 0 118 53 128 71c20 88 -9 206 -95 206
c-78 0 -132 -73 -132 -156c0 -69 37 -121 99 -121z" />
    <glyph glyph-name="colon" unicode=":" horiz-adv-x="242" 
d="M122 281c-31 0 -53 26 -53 56c0 40 34 73 71 73c31 0 52 -25 52 -56c0 -40 -33 -73 -70 -73zM28 46c0 40 34 73 71 73c31 0 52 -25 52 -56c0 -40 -33 -73 -70 -73c-31 0 -53 26 -53 56z" />
    <glyph glyph-name="semicolon" unicode=";" horiz-adv-x="246" 
d="M120 281c-31 0 -53 26 -53 56c0 40 34 73 71 73c31 0 52 -25 52 -56c0 -40 -33 -73 -70 -73zM28 44c0 38 32 70 70 70c27 0 59 -18 59 -77c0 -101 -76 -176 -107 -205c-9 -8 -16 -8 -22 -1l-11 15c-5 6 -3 16 5 23c10 9 68 53 78 124c-1 -1 -11 -3 -22 -3
c-29 0 -50 25 -50 54z" />
    <glyph glyph-name="less" unicode="&#x3c;" horiz-adv-x="400" 
d="M21 210c-5 3 -8 9 -7 17l1 6c1 8 6 13 11 16l342 213c11 7 23 0 21 -14l-8 -59c-1 -8 -6 -15 -11 -18l-228 -144v-1l188 -138c4 -3 9 -9 7 -19l-8 -51c-2 -16 -15 -22 -25 -14z" />
    <glyph glyph-name="equal" unicode="=" horiz-adv-x="470" 
d="M101 343c-10 0 -17 9 -15 19l7 44c2 10 9 19 19 19h286c10 0 17 -9 15 -19l-7 -44c-2 -10 -9 -19 -19 -19h-286zM71 133c-10 0 -17 9 -15 19l7 44c2 10 9 19 19 19h286c10 0 17 -9 15 -19l-7 -44c-2 -10 -9 -19 -19 -19h-286z" />
    <glyph glyph-name="greater" unicode="&#x3e;" horiz-adv-x="400" 
d="M-1 17l6 62c1 9 6 14 11 17l225 139v2l-185 142c-4 3 -7 8 -6 15l8 54c2 16 14 22 25 14l282 -213c4 -3 9 -8 7 -16l-2 -9c-1 -6 -4 -10 -10 -14l-341 -205c-12 -7 -22 -2 -20 12z" />
    <glyph glyph-name="question" unicode="?" horiz-adv-x="430" 
d="M166 272c-9 0 -15 8 -14 19l5 42c9 65 56 101 105 135c37 26 64 49 64 91c0 36 -29 62 -63 62c-51 0 -99 -45 -119 -68c-7 -9 -17 -7 -24 0l-34 32c-10 9 -8 20 -1 28c5 6 75 97 190 97c85 0 148 -66 148 -143c0 -89 -60 -132 -111 -167c-34 -23 -56 -42 -60 -71l-5 -37
c-2 -13 -10 -20 -21 -20h-60zM98 51c0 43 37 78 77 78c35 0 59 -27 59 -61c0 -43 -37 -78 -78 -78c-34 0 -58 27 -58 61z" />
    <glyph glyph-name="at" unicode="@" horiz-adv-x="906" 
d="M28 158c0 313 192 552 488 552c209 0 346 -154 346 -354c0 -157 -65 -366 -244 -366c-62 0 -87 36 -95 78h-5c-25 -42 -77 -78 -133 -78c-82 0 -135 75 -135 174c0 146 93 246 197 246c60 0 93 -46 99 -55l14 29c5 11 11 16 22 16h23c9 0 16 -9 15 -19l-28 -198
c-13 -94 9 -114 42 -114c76 0 139 120 139 276c0 159 -84 285 -261 285c-232 0 -397 -188 -397 -464c0 -143 70 -260 176 -314c10 -6 12 -12 6 -25l-25 -45c-5 -9 -12 -13 -21 -9c-133 61 -223 208 -223 385zM344 168c1 -58 22 -92 61 -92c51 0 88 59 100 119l10 83
s-25 45 -73 45c-61 0 -98 -72 -98 -155z" />
    <glyph glyph-name="A" unicode="A" horiz-adv-x="603" 
d="M-17 0c-14 0 -19 13 -12 26l372 673c3 6 8 11 17 11h9c7 0 12 -5 14 -11l181 -673c3 -13 -6 -26 -19 -26h-60c-12 0 -19 6 -21 15l-36 139h-275l-77 -139c-4 -7 -12 -15 -25 -15h-68zM195 238h210l-65 275h-4z" />
    <glyph glyph-name="B" unicode="B" horiz-adv-x="577" 
d="M58 19l93 662c2 10 10 19 20 19h204c96 0 163 -70 163 -161c0 -93 -68 -157 -119 -185c40 -19 93 -63 93 -140c0 -122 -93 -214 -225 -214h-214c-10 0 -16 9 -15 19zM214 396h90c67 0 125 62 125 125c0 50 -29 85 -75 85h-111zM170 92h121c60 0 111 53 111 120
c0 53 -40 94 -89 94h-112z" />
    <glyph glyph-name="C" unicode="C" horiz-adv-x="640" 
d="M57 310c0 226 171 400 379 400c91 0 152 -34 205 -93c7 -8 5 -20 -3 -28l-41 -37c-8 -8 -19 -11 -31 1c-30 32 -82 58 -136 58c-136 0 -260 -143 -260 -301c0 -120 68 -214 178 -214c67 0 113 31 156 65c12 10 20 9 28 -1l40 -46c6 -7 3 -20 -4 -27
c-71 -66 -153 -97 -226 -97c-172 0 -285 139 -285 320z" />
    <glyph glyph-name="D" unicode="D" horiz-adv-x="687" 
d="M58 19l93 662c1 10 10 19 19 19h209c157 0 271 -142 271 -305c0 -217 -161 -395 -369 -395h-210c-9 0 -15 9 -13 19zM170 95h112c140 0 257 127 257 296c0 122 -73 214 -185 214h-112z" />
    <glyph glyph-name="E" unicode="E" horiz-adv-x="546" 
d="M58 19l93 662c1 10 10 19 19 19h363c10 0 15 -9 14 -19l-8 -56c-1 -10 -9 -19 -19 -19h-277l-29 -204h233c9 0 15 -9 14 -19l-8 -56c-2 -11 -10 -19 -19 -19h-233l-30 -215h277c9 0 15 -9 14 -19l-8 -55c-1 -10 -10 -19 -20 -19h-362c-10 0 -16 9 -14 19z" />
    <glyph glyph-name="F" unicode="F" horiz-adv-x="525" 
d="M58 19l93 662c1 10 10 19 19 19h363c10 0 15 -9 14 -19l-8 -56c-1 -10 -9 -19 -19 -19h-277l-32 -231h232c9 0 15 -9 14 -19l-7 -55c-1 -10 -11 -19 -20 -19h-233l-37 -263c-1 -10 -10 -19 -19 -19h-69c-10 0 -16 9 -14 19z" />
    <glyph glyph-name="G" unicode="G" horiz-adv-x="666" 
d="M57 301c0 235 168 409 379 409c91 0 152 -34 205 -93c7 -8 5 -20 -3 -28l-40 -38c-8 -8 -19 -11 -31 1c-30 32 -83 59 -137 59c-136 0 -259 -138 -259 -296c0 -120 70 -222 179 -222c64 0 118 26 131 33l16 112h-82c-10 0 -16 8 -14 18l8 58c1 11 10 19 20 19h167
c8 0 14 -8 14 -17l-33 -244c-2 -10 -6 -13 -10 -16c0 0 -100 -66 -231 -66c-164 0 -279 139 -279 311z" />
    <glyph glyph-name="H" unicode="H" horiz-adv-x="711" 
d="M58 19l93 662c2 10 11 19 20 19h70c10 0 16 -9 15 -19l-40 -279h314l39 279c2 10 10 19 20 19h70c9 0 16 -9 14 -19l-93 -662c-1 -10 -10 -19 -19 -19h-70c-10 0 -16 9 -15 19l41 289h-314l-41 -289c-1 -10 -9 -19 -19 -19h-70c-9 0 -16 9 -15 19z" />
    <glyph glyph-name="I" unicode="I" horiz-adv-x="292" 
d="M58 19l93 662c1 10 10 19 19 19h70c9 0 16 -9 14 -19l-93 -662c-1 -10 -10 -19 -19 -19h-70c-9 0 -16 9 -14 19z" />
    <glyph glyph-name="J" unicode="J" horiz-adv-x="393" 
d="M-38 63c-4 8 -1 18 6 25l32 31c13 13 20 8 28 -2c12 -15 38 -35 73 -35c40 0 89 38 101 126l66 473c1 10 10 19 20 19h70c10 0 16 -9 14 -19l-66 -472c-19 -139 -85 -219 -209 -219c-78 0 -124 52 -135 73z" />
    <glyph glyph-name="K" unicode="K" horiz-adv-x="595" 
d="M59 24l92 652c2 13 12 24 25 24h63c12 0 21 -11 19 -24l-39 -277l273 288c7 8 15 13 27 13h80c16 0 22 -20 8 -35l-295 -304l220 -328c9 -13 1 -33 -18 -33h-72c-14 0 -19 4 -25 13l-207 322l-44 -311c-2 -13 -13 -24 -25 -24h-63c-13 0 -20 11 -19 24z" />
    <glyph glyph-name="L" unicode="L" horiz-adv-x="458" 
d="M58 19l93 662c1 10 10 19 20 19h70c9 0 16 -9 15 -19l-83 -588h237c10 0 16 -9 15 -19l-8 -55c-1 -10 -10 -19 -20 -19h-324c-10 0 -16 9 -15 19z" />
    <glyph glyph-name="M" unicode="M" horiz-adv-x="799" 
d="M14 23l204 672c2 8 9 15 18 15h14c8 0 13 -5 14 -11l120 -501h3l265 501c3 6 8 11 17 11h14c7 0 14 -7 14 -15l14 -672c0 -14 -7 -23 -19 -23h-68c-9 0 -16 7 -16 20l6 427c-1 0 -4 0 -3 0l-228 -446c-3 -6 -9 -11 -17 -11h-16c-8 0 -13 5 -14 11l-97 446h-4l-120 -431
c-3 -11 -12 -16 -19 -16h-68c-12 0 -18 9 -14 23z" />
    <glyph glyph-name="N" unicode="N" horiz-adv-x="717" 
d="M58 19l95 673c1 10 11 18 20 18h25l313 -499c-1 0 2 0 2 0l63 470c1 10 9 19 19 19h69c9 0 16 -9 15 -19l-95 -673c-1 -10 -11 -18 -20 -18h-28l-313 507h-1l-62 -478c-1 -10 -10 -19 -20 -19h-67c-9 0 -16 9 -15 19z" />
    <glyph glyph-name="O" unicode="O" horiz-adv-x="747" 
d="M56 300c0 231 167 410 377 410c162 0 278 -145 278 -313c0 -230 -168 -407 -377 -407c-163 0 -278 144 -278 310zM161 313c0 -122 77 -223 186 -223c134 0 259 133 259 294c0 123 -76 226 -186 226c-133 0 -259 -136 -259 -297z" />
    <glyph glyph-name="P" unicode="P" horiz-adv-x="551" 
d="M58 19l93 662c1 10 10 19 20 19h208c100 0 173 -91 173 -193c0 -138 -107 -253 -235 -253h-122l-33 -235c-1 -10 -11 -19 -22 -19h-67c-10 0 -16 9 -15 19zM208 352h115c64 0 123 65 123 145c0 58 -36 103 -88 103h-115z" />
    <glyph glyph-name="Q" unicode="Q" horiz-adv-x="747" 
d="M56 300c0 231 173 410 378 410c162 0 277 -146 277 -313c0 -169 -94 -316 -229 -376l84 -191c6 -14 -3 -28 -18 -28h-74c-9 0 -16 3 -21 15l-69 177c-16 -3 -37 -4 -51 -4c-163 0 -277 146 -277 310zM161 313c0 -122 77 -223 186 -223c134 0 259 133 259 294
c0 123 -76 226 -186 226c-133 0 -259 -136 -259 -297z" />
    <glyph glyph-name="R" unicode="R" horiz-adv-x="618" 
d="M58 19l93 662c1 10 10 19 19 19h250c98 0 169 -88 169 -186c0 -107 -67 -203 -166 -231l89 -255c5 -13 -1 -28 -16 -28h-75c-10 0 -16 5 -19 14l-74 259h-132l-36 -254c-1 -10 -10 -19 -19 -19h-69c-10 0 -16 9 -14 19zM210 361h153c59 0 120 62 120 139
c0 56 -37 103 -86 103h-153z" />
    <glyph glyph-name="S" unicode="S" horiz-adv-x="503" 
d="M32 69c-7 8 -14 16 -1 32l31 38c10 12 23 13 34 3c15 -14 61 -61 126 -61c62 0 113 47 113 106c0 52 -40 85 -109 126c-73 44 -138 101 -138 196c0 93 72 201 226 201c91 0 150 -48 162 -58c7 -6 12 -19 1 -34l-27 -36c-9 -12 -25 -15 -35 -6c-13 11 -61 41 -112 41
c-68 0 -112 -57 -112 -102c0 -48 34 -79 96 -114c81 -46 161 -103 161 -206c0 -120 -91 -205 -231 -205c-106 0 -171 64 -185 79z" />
    <glyph glyph-name="T" unicode="T" horiz-adv-x="447" 
d="M133 19l83 587h-143c-10 0 -15 9 -14 19l8 56c1 10 10 19 19 19h390c10 0 15 -9 14 -19l-8 -56c-1 -10 -9 -19 -19 -19h-143l-82 -587c-1 -10 -11 -19 -20 -19h-70c-9 0 -16 9 -15 19z" />
    <glyph glyph-name="U" unicode="U" horiz-adv-x="668" 
d="M84 261l59 420c2 10 11 19 20 19h72c10 0 16 -9 14 -19l-58 -413c-14 -100 30 -177 116 -177c87 0 153 76 167 175l59 415c1 10 10 19 19 19h72c9 0 16 -9 14 -19l-59 -420c-21 -152 -131 -271 -286 -271c-132 0 -230 119 -209 271z" />
    <glyph glyph-name="V" unicode="V" horiz-adv-x="604" 
d="M241 1l-182 675c-3 13 3 24 16 24h76c8 0 13 -6 14 -11l117 -476h6l257 476c3 5 8 11 17 11h79c13 0 18 -13 11 -26l-372 -673c-3 -6 -9 -11 -17 -11h-9c-7 0 -11 5 -13 11z" />
    <glyph glyph-name="W" unicode="W" horiz-adv-x="822" 
d="M166 4l-75 672c-2 14 7 24 19 24h68c9 0 14 -7 15 -14l39 -439h4l211 452c3 7 9 11 17 11h16c6 0 13 -5 14 -11l80 -452h4l163 439c3 7 9 14 18 14h72c13 0 18 -10 13 -24l-265 -672c-3 -8 -10 -14 -18 -14h-14c-8 0 -13 5 -15 13l-89 468h-4l-227 -470
c-3 -7 -10 -11 -17 -11h-14c-8 0 -14 6 -15 14z" />
    <glyph glyph-name="X" unicode="X" horiz-adv-x="571" 
d="M12 0c-17 0 -21 13 -12 26l236 335l-137 315c-5 13 2 24 17 24h79c6 0 12 -4 15 -12l94 -237h1l166 240c3 4 8 9 16 9h86c15 0 19 -12 10 -25l-225 -318l142 -331c6 -14 -3 -26 -18 -26h-73c-9 0 -13 6 -14 9l-107 258h-2l-176 -258c-3 -5 -10 -9 -17 -9h-81z" />
    <glyph glyph-name="Y" unicode="Y" horiz-adv-x="524" 
d="M171 19l45 318l-162 337c-5 13 3 26 17 26h71c11 0 14 -4 17 -11l117 -254h2l192 254c5 6 10 11 20 11h79c15 0 18 -13 9 -26l-258 -336l-45 -319c-1 -10 -11 -19 -20 -19h-69c-10 0 -16 9 -15 19z" />
    <glyph glyph-name="Z" unicode="Z" horiz-adv-x="497" 
d="M9 0c-9 0 -15 9 -14 19l2 18l365 564v3h-242c-9 0 -15 9 -14 19l8 58c1 10 11 19 20 19h372c9 0 16 -9 14 -19l-2 -13l-362 -570v-3h247c10 0 15 -9 14 -19l-8 -57c-1 -10 -10 -19 -20 -19h-380z" />
    <glyph glyph-name="bracketleft" unicode="[" horiz-adv-x="319" 
d="M92 -219h119c9 0 16 -8 15 -18l-6 -44c-1 -10 -11 -19 -20 -19h-193c-9 0 -16 9 -15 19l136 962c1 10 10 19 19 19h194c9 0 15 -9 14 -19l-6 -44c-2 -11 -11 -19 -20 -19h-119z" />
    <glyph glyph-name="backslash" unicode="\" horiz-adv-x="320" 
d="M160 13l-82 662c-2 14 7 25 19 25h54c8 0 14 -6 15 -13l83 -662c2 -14 -8 -25 -20 -25h-55c-6 0 -13 6 -14 13z" />
    <glyph glyph-name="bracketright" unicode="]" horiz-adv-x="320" 
d="M-31 -219h118l118 837h-118c-9 0 -16 8 -14 19l6 44c1 10 10 19 19 19h194c9 0 15 -9 14 -19l-135 -962c-2 -10 -11 -19 -20 -19h-193c-9 0 -17 9 -15 19l7 44c2 10 10 18 19 18z" />
    <glyph glyph-name="asciicircum" unicode="^" horiz-adv-x="472" 
d="M63 391c-15 0 -20 13 -10 25l227 288c4 5 9 10 17 10h5c7 0 12 -5 14 -10l141 -288c6 -13 -2 -25 -17 -25h-50c-7 0 -12 5 -14 10l-89 187h-4l-143 -187c-4 -5 -10 -10 -17 -10h-60z" />
    <glyph glyph-name="underscore" unicode="_" horiz-adv-x="371" 
d="M-2 -10h295c9 0 16 -8 14 -19l-4 -28c-1 -10 -10 -18 -20 -18h-294c-10 0 -16 8 -15 18l4 28c2 11 10 19 20 19z" />
    <glyph glyph-name="grave" unicode="`" horiz-adv-x="272" 
d="M229 546l-140 70c-12 6 -12 16 -6 26l26 41c6 9 15 9 24 3l131 -91c5 -3 8 -11 3 -19l-15 -26c-5 -8 -11 -10 -23 -4z" />
    <glyph glyph-name="a" unicode="a" 
d="M407 381l-47 -362c-1 -10 -11 -19 -20 -19h-33c-7 0 -12 4 -13 14l-3 30c-7 -7 -57 -54 -123 -54c-84 0 -144 82 -144 183c0 125 91 237 201 237c60 0 98 -39 106 -49l13 25c4 8 11 14 19 14h30c9 0 15 -9 14 -19zM284 138l17 140s-28 45 -80 45
c-64 0 -102 -66 -102 -149c0 -56 27 -98 75 -98c50 0 86 54 90 62z" />
    <glyph glyph-name="b" unicode="b" horiz-adv-x="460" 
d="M28 19l93 662c1 10 10 19 19 19h63c9 0 16 -9 14 -19l-41 -293c12 6 45 22 85 22c87 0 153 -80 153 -180c0 -130 -89 -240 -203 -240c-72 0 -108 56 -108 56l-12 -29c-4 -10 -10 -17 -19 -17h-30c-9 0 -16 9 -14 19zM140 144c1 -12 20 -68 71 -68c61 0 109 69 109 145
c0 56 -31 102 -80 102c-46 0 -78 -24 -78 -24z" />
    <glyph glyph-name="c" unicode="c" horiz-adv-x="403" 
d="M24 171c0 134 105 239 222 239c55 0 99 -30 122 -71c5 -9 2 -21 -7 -28l-36 -25c-12 -8 -18 -3 -23 4c-15 19 -35 33 -63 33c-60 0 -119 -68 -119 -146c0 -58 28 -101 76 -101c42 0 65 31 82 52c8 9 16 8 23 2l36 -28c9 -7 10 -18 2 -28c-37 -50 -89 -84 -152 -84
c-90 0 -163 78 -163 181z" />
    <glyph glyph-name="d" unicode="d" horiz-adv-x="460" 
d="M168 -10c-84 0 -144 81 -144 178c0 137 97 242 213 242c39 0 69 -17 79 -23l41 294c2 13 14 19 24 19h57c9 0 16 -9 15 -19l-93 -662c-2 -10 -11 -19 -20 -19h-30c-7 0 -11 4 -13 14l-6 30c-7 -7 -57 -54 -123 -54zM194 76c50 0 86 54 90 62l21 162s-25 23 -71 23
c-63 0 -115 -65 -115 -144c0 -56 27 -103 75 -103z" />
    <glyph glyph-name="e" unicode="e" horiz-adv-x="412" 
d="M24 169c0 127 89 241 223 241c75 0 134 -40 134 -114c0 -114 -160 -131 -265 -119c-5 -54 22 -103 78 -103c30 0 62 15 81 28c11 7 17 10 24 1l27 -37c6 -8 7 -17 -5 -26c-31 -25 -81 -50 -141 -50c-97 0 -156 81 -156 179zM131 244c56 -5 160 -11 160 47
c0 26 -26 42 -54 42c-55 0 -94 -39 -106 -89z" />
    <glyph glyph-name="f" unicode="f" horiz-adv-x="320" 
d="M16 -281l83 598h-47c-10 0 -16 9 -15 19l7 45c1 11 10 19 19 19h47l18 124c18 124 90 186 185 186c49 0 85 -24 99 -40c5 -6 5 -16 0 -23l-27 -42c-5 -8 -13 -11 -22 -5c-12 9 -36 20 -57 20c-39 0 -70 -29 -80 -96l-18 -124h95c9 0 16 -8 14 -19l-6 -45
c-2 -10 -10 -19 -20 -19h-94l-83 -598c-1 -10 -11 -19 -20 -19h-64c-9 0 -15 9 -14 19z" />
    <glyph glyph-name="g" unicode="g" horiz-adv-x="460" 
d="M172 -10c-87 0 -149 86 -149 184c0 124 90 236 204 236c60 0 98 -39 106 -49l13 25c4 8 11 14 19 14h30c9 0 15 -9 14 -19l-57 -419c-23 -169 -103 -222 -195 -222c-98 0 -140 69 -145 78c-5 8 -11 21 3 33l32 29c6 5 15 9 25 -2s38 -50 82 -50c56 0 84 31 100 134l7 49
c-9 -6 -47 -21 -89 -21zM195 76c47 0 80 28 80 28l24 167c-2 8 -24 52 -73 52c-64 0 -111 -68 -111 -143c0 -57 32 -104 80 -104z" />
    <glyph glyph-name="h" unicode="h" horiz-adv-x="477" 
d="M28 19l93 662c1 10 10 19 19 19h63c9 0 16 -9 14 -19l-44 -314c14 11 58 43 109 43c104 0 143 -81 128 -190l-28 -201c-1 -10 -11 -19 -20 -19h-60c-10 0 -15 9 -14 19l28 201c9 65 -13 102 -58 102c-49 0 -90 -47 -100 -64l-34 -239c-2 -11 -8 -19 -21 -19h-61
c-9 0 -15 9 -14 19z" />
    <glyph glyph-name="i" unicode="i" horiz-adv-x="224" 
d="M150 563c-28 0 -47 23 -47 51c0 36 30 66 64 66c29 0 50 -23 50 -52c0 -36 -32 -65 -67 -65zM28 19l50 362c1 10 11 19 20 19h62c9 0 15 -9 14 -19l-51 -362c-1 -10 -11 -19 -20 -19h-61c-9 0 -15 9 -14 19z" />
    <glyph glyph-name="j" unicode="j" horiz-adv-x="225" 
d="M152 563c-29 0 -48 23 -48 51c0 36 30 66 64 66c29 0 50 -23 50 -52c0 -36 -31 -65 -66 -65zM8 -124l71 505c1 11 11 19 20 19h62c9 0 16 -8 15 -19l-71 -505c-17 -124 -87 -186 -182 -186c-51 0 -88 24 -103 40c-5 5 -5 16 0 23l25 37c6 9 17 11 25 5
c10 -8 32 -18 56 -18c40 0 72 31 82 99z" />
    <glyph glyph-name="k" unicode="k" horiz-adv-x="440" 
d="M28 19l93 662c1 10 10 19 19 19h63c9 0 15 -9 14 -19l-60 -433l145 140c7 6 16 12 26 12h79c15 0 16 -18 7 -27l-169 -158l145 -189c7 -9 1 -26 -14 -26h-77c-8 0 -12 4 -15 8l-135 186l-25 -175c-1 -10 -10 -19 -19 -19h-63c-9 0 -15 9 -14 19z" />
    <glyph glyph-name="l" unicode="l" horiz-adv-x="223" 
d="M28 19l93 662c1 10 11 19 20 19h61c9 0 15 -9 14 -19l-93 -662c-1 -10 -10 -19 -19 -19h-62c-9 0 -15 9 -14 19z" />
    <glyph glyph-name="m" unicode="m" horiz-adv-x="712" 
d="M28 19l50 362c1 10 8 19 20 19h29c8 0 13 -5 14 -12l6 -34c13 13 60 56 127 56c52 0 86 -22 108 -63c13 11 71 63 138 63c112 0 139 -86 125 -190l-28 -201c-1 -10 -9 -19 -20 -19h-59c-11 0 -16 9 -15 19l28 204c9 63 -9 100 -56 100c-53 0 -90 -44 -95 -50
c0 -9 -1 -28 -4 -48l-28 -206c-2 -10 -11 -19 -20 -19h-56c-10 0 -16 9 -14 19l28 204c9 64 -8 100 -57 100s-84 -45 -92 -58l-35 -246c-2 -10 -11 -19 -20 -19h-60c-9 0 -16 9 -14 19z" />
    <glyph glyph-name="n" unicode="n" horiz-adv-x="478" 
d="M28 19l50 362c1 10 9 19 20 19h30c7 0 12 -5 13 -12l7 -34c10 9 63 56 134 56c112 0 142 -86 128 -190l-28 -201c-1 -10 -11 -19 -20 -19h-61c-10 0 -15 9 -14 19l28 204c9 64 -11 100 -56 100c-52 0 -94 -46 -102 -58l-35 -246c-2 -13 -7 -19 -25 -19h-55
c-9 0 -16 9 -14 19z" />
    <glyph glyph-name="o" unicode="o" horiz-adv-x="441" 
d="M24 173c0 128 94 237 215 237c90 0 156 -84 156 -181c0 -129 -93 -239 -215 -239c-87 0 -156 83 -156 183zM192 76c59 0 113 65 113 143c0 57 -31 104 -78 104c-59 0 -113 -64 -113 -142c0 -57 31 -105 78 -105z" />
    <glyph glyph-name="p" unicode="p" 
d="M125 14l-42 -295c-2 -11 -8 -19 -22 -19h-60c-9 0 -16 9 -15 19l93 662c1 10 9 19 20 19h31c6 0 12 -4 14 -13l6 -26c10 11 59 49 119 49c89 0 146 -82 146 -180c0 -134 -93 -240 -209 -240c-41 0 -72 17 -81 24zM135 106c0 0 24 -30 71 -30c62 0 115 65 115 145
c0 55 -26 102 -75 102s-85 -44 -89 -50z" />
    <glyph glyph-name="q" unicode="q" horiz-adv-x="459" 
d="M24 169c0 129 89 241 204 241c60 0 98 -39 106 -49l13 25c4 8 12 14 19 14h30c9 0 15 -9 14 -19l-93 -662c-1 -10 -11 -19 -20 -19h-61c-11 0 -18 7 -16 19l42 295c-9 -6 -47 -24 -89 -24c-81 0 -149 79 -149 179zM196 76c47 0 80 28 80 28l24 169c-3 9 -24 50 -73 50
c-64 0 -111 -68 -111 -143c0 -57 32 -104 80 -104z" />
    <glyph glyph-name="r" unicode="r" horiz-adv-x="316" 
d="M28 19l50 362c1 10 8 19 19 19h30c6 0 12 -6 14 -14l7 -34c10 10 50 58 112 58c23 0 44 -4 57 -13c8 -5 8 -14 2 -23l-28 -49c-7 -10 -16 -11 -23 -9c-4 1 -19 5 -33 5c-42 0 -71 -41 -77 -48l-36 -254c-2 -17 -14 -19 -30 -19h-50c-9 0 -15 9 -14 19z" />
    <glyph glyph-name="s" unicode="s" horiz-adv-x="339" 
d="M14 31c-5 4 -8 13 -2 21l23 38c5 7 13 11 22 5c11 -7 34 -24 78 -24c25 0 49 14 49 40c0 22 -16 36 -55 59c-49 29 -88 62 -88 117c0 58 41 123 145 123c52 0 88 -18 105 -31c10 -8 11 -19 4 -29l-19 -34c-6 -9 -17 -12 -24 -8c-8 4 -34 19 -73 19c-31 0 -45 -16 -45 -34
c0 -22 18 -34 47 -51c57 -33 102 -60 102 -122c0 -72 -53 -130 -153 -130c-57 0 -98 25 -116 41z" />
    <glyph glyph-name="t" unicode="t" horiz-adv-x="327" 
d="M65 109l29 208h-44c-10 0 -17 9 -15 19l7 45c2 11 9 19 19 19h45l15 111c1 10 11 19 20 19l61 1c9 0 15 -9 14 -19l-16 -112h86c10 0 17 -8 15 -19l-7 -45c-2 -10 -9 -19 -19 -19h-87l-27 -197c-5 -34 7 -40 23 -40c17 0 41 12 52 18c12 6 17 0 19 -9l11 -45
c3 -11 -3 -18 -12 -24c-8 -5 -67 -30 -110 -30c-71 0 -89 48 -79 119z" />
    <glyph glyph-name="u" unicode="u" horiz-adv-x="464" 
d="M167 -10c-110 0 -136 85 -122 189l28 202c2 10 11 19 20 19h61c9 0 16 -9 15 -19l-29 -204c-9 -65 13 -101 57 -101c46 0 87 52 91 63l33 242c2 16 9 19 23 19h55c9 0 16 -9 15 -19l-51 -362c-1 -10 -10 -19 -20 -19h-29c-9 0 -12 7 -14 16l-6 29
c-10 -10 -55 -55 -127 -55z" />
    <glyph glyph-name="v" unicode="v" horiz-adv-x="383" 
d="M133 0l-109 376c-4 13 5 24 18 24h54c8 0 13 -5 15 -11l57 -229h1l127 230c5 9 11 10 19 10h58c13 0 18 -11 10 -24l-215 -376c-4 -5 -11 -10 -17 -10h-4c-6 0 -13 5 -14 10z" />
    <glyph glyph-name="w" unicode="w" horiz-adv-x="566" 
d="M99 0l-58 377c-2 13 6 23 18 23h49c7 0 13 -5 14 -12l30 -211h1l131 223c3 5 8 10 16 10h6c8 0 13 -5 14 -10l61 -224h1l87 212c4 9 11 12 22 12h51c12 0 16 -10 10 -24l-160 -376c-3 -6 -8 -10 -18 -10h-4c-8 0 -13 4 -14 9l-72 257h-1l-150 -257c-3 -5 -9 -9 -16 -9h-4
c-9 0 -13 4 -14 10z" />
    <glyph glyph-name="x" unicode="x" horiz-adv-x="408" 
d="M5 0c-15 0 -19 14 -9 27l142 178l-91 169c-7 13 1 26 17 26h55c11 0 19 -3 23 -11l58 -120h1l87 120c6 8 14 11 25 11h67c15 0 19 -14 8 -27l-138 -168l92 -179c7 -13 -3 -26 -17 -26h-54c-9 0 -16 4 -20 12l-61 129h-1l-99 -133c-3 -4 -9 -8 -15 -8h-70z" />
    <glyph glyph-name="y" unicode="y" horiz-adv-x="425" 
d="M125 21l-102 355c-4 13 3 24 17 24h58c7 0 12 -5 14 -11l73 -268h1l144 268c5 9 13 11 22 11h58c15 0 20 -13 12 -26l-367 -662c-3 -6 -9 -12 -17 -12h-63c-14 0 -19 11 -11 25z" />
    <glyph glyph-name="z" unicode="z" horiz-adv-x="338" 
d="M11 0c-9 0 -15 9 -14 19l1 10l184 283v3h-119c-9 0 -14 9 -13 19l6 47c1 11 10 19 19 19h233c14 0 21 -14 12 -27l-185 -286v-3h113c10 0 15 -8 14 -19l-6 -46c-1 -10 -10 -19 -20 -19h-225z" />
    <glyph glyph-name="braceleft" unicode="{" horiz-adv-x="361" 
d="M50 -54l20 142c6 45 -31 68 -52 73c-9 2 -12 8 -11 18l6 40c2 11 8 14 14 16c12 4 68 29 74 73l20 144c30 212 165 254 258 258c10 0 17 -5 16 -17l-4 -41c-1 -11 -8 -17 -14 -18c-77 -15 -144 -77 -159 -182l-17 -119c-13 -93 -77 -125 -92 -133l-1 -4
c23 -12 69 -39 56 -130l-17 -120c-15 -105 35 -165 108 -180c6 -1 12 -8 10 -18l-9 -41c-2 -10 -11 -17 -20 -17c-93 3 -211 75 -186 256z" />
    <glyph glyph-name="bar" unicode="|" horiz-adv-x="183" 
d="M-9 -282l144 1023c2 11 11 19 20 19h10c9 0 15 -8 13 -19l-143 -1023c-1 -10 -11 -18 -20 -18h-9c-9 0 -16 8 -15 18z" />
    <glyph glyph-name="braceright" unicode="}" horiz-adv-x="361" 
d="M121 -54l17 120c13 91 65 119 91 131l1 5c-12 8 -68 38 -55 131l17 119c15 105 -35 167 -109 182c-9 2 -11 10 -9 18l9 41c3 12 10 17 20 17c92 -3 213 -72 186 -258l-21 -144c-6 -44 43 -69 54 -73c5 -2 11 -7 10 -16l-6 -40c-2 -13 -9 -16 -16 -18
c-22 -5 -66 -28 -72 -73l-20 -142c-29 -211 -165 -248 -258 -256c-9 -1 -17 5 -16 17l3 41c1 11 9 17 15 18c77 16 144 75 159 180z" />
    <glyph glyph-name="asciitilde" unicode="~" horiz-adv-x="508" 
d="M72 211l-32 34c-5 6 -5 17 1 24c0 0 69 91 145 91c39 0 68 -21 89 -41c15 -14 37 -34 61 -34c34 0 65 40 79 58c8 11 19 11 26 3l29 -34c6 -6 5 -17 -1 -24c0 0 -67 -90 -142 -90c-42 0 -71 18 -95 41c-14 14 -32 33 -56 33c-34 0 -65 -38 -79 -58c-7 -10 -18 -11 -25 -3
z" />
    <glyph glyph-name="uni00A0" unicode="&#xa0;" horiz-adv-x="225" 
 />
    <glyph glyph-name="Agrave" unicode="&#xc0;" horiz-adv-x="603" 
d="M-17 0c-14 0 -19 13 -12 26l372 673c3 6 8 11 17 11h9c7 0 12 -5 14 -11l181 -673c3 -13 -6 -26 -19 -26h-60c-12 0 -19 6 -21 15l-36 139h-275l-77 -139c-4 -7 -12 -15 -25 -15h-68zM195 238h210l-65 275h-4zM440 777l-140 70c-12 6 -12 16 -6 26l26 41c6 9 15 9 24 3
l131 -91c5 -3 8 -11 3 -19l-15 -26c-5 -8 -11 -10 -23 -4z" />
    <glyph glyph-name="Aacute" unicode="&#xc1;" horiz-adv-x="603" 
d="M-17 0c-14 0 -19 13 -12 26l372 673c3 6 8 11 17 11h9c7 0 12 -5 14 -11l181 -673c3 -13 -6 -26 -19 -26h-60c-12 0 -19 6 -21 15l-36 139h-275l-77 -139c-4 -7 -12 -15 -25 -15h-68zM195 238h210l-65 275h-4zM315 773c-11 -5 -19 -4 -22 6l-11 31c-3 8 1 15 8 19l156 91
c6 4 20 6 25 -7l17 -44c4 -10 2 -19 -9 -24z" />
    <glyph glyph-name="Acircumflex" unicode="&#xc2;" horiz-adv-x="603" 
d="M-17 0c-14 0 -19 13 -12 26l372 673c3 6 8 11 17 11h9c7 0 12 -5 14 -11l181 -673c3 -13 -6 -26 -19 -26h-60c-12 0 -19 6 -21 15l-36 139h-275l-77 -139c-4 -7 -12 -15 -25 -15h-68zM195 238h210l-65 275h-4zM284 772c-12 -8 -15 -5 -22 5l-14 20c-7 11 -1 20 5 24
l126 98c7 5 16 5 22 0l98 -98c5 -5 9 -12 2 -21l-18 -22c-7 -8 -12 -11 -23 -2l-77 60z" />
    <glyph glyph-name="Atilde" unicode="&#xc3;" horiz-adv-x="603" 
d="M-17 0c-14 0 -19 13 -12 26l372 673c3 6 8 11 17 11h9c7 0 12 -5 14 -11l181 -673c3 -13 -6 -26 -19 -26h-60c-12 0 -19 6 -21 15l-36 139h-275l-77 -139c-4 -7 -12 -15 -25 -15h-68zM195 238h210l-65 275h-4zM275 791l-26 15c-8 6 -7 16 -4 23c8 18 44 84 98 84
c52 0 60 -64 87 -64c21 0 33 24 42 40c6 11 16 15 25 9l19 -14c13 -10 9 -21 2 -32c-12 -22 -45 -75 -93 -75c-45 0 -64 65 -87 65c-21 0 -34 -28 -41 -41c-6 -11 -11 -17 -22 -10z" />
    <glyph glyph-name="Adieresis" unicode="&#xc4;" horiz-adv-x="603" 
d="M-17 0c-14 0 -19 13 -12 26l372 673c3 6 8 11 17 11h9c7 0 12 -5 14 -11l181 -673c3 -13 -6 -26 -19 -26h-60c-12 0 -19 6 -21 15l-36 139h-275l-77 -139c-4 -7 -12 -15 -25 -15h-68zM195 238h210l-65 275h-4zM481 782c-27 0 -46 23 -46 50c0 35 30 63 62 63
c27 0 48 -22 48 -49c0 -35 -32 -64 -64 -64zM268 782c-27 0 -46 23 -46 50c0 35 30 63 62 63c27 0 48 -22 48 -49c0 -35 -32 -64 -64 -64z" />
    <glyph glyph-name="Amacron" unicode="&#x100;" horiz-adv-x="603" 
d="M-17 0c-14 0 -19 13 -12 26l372 673c3 6 8 11 17 11h9c7 0 12 -5 14 -11l181 -673c3 -13 -6 -26 -19 -26h-60c-12 0 -19 6 -21 15l-36 139h-275l-77 -139c-4 -7 -12 -15 -25 -15h-68zM195 238h210l-65 275h-4zM266 814c-10 0 -16 8 -15 18l4 28c2 11 10 19 20 19h230
c10 0 16 -8 15 -19l-4 -28c-1 -10 -10 -18 -20 -18h-230z" />
    <glyph glyph-name="Abreve" unicode="&#x102;" horiz-adv-x="603" 
d="M-17 0c-14 0 -19 13 -12 26l372 673c3 6 8 11 17 11h9c7 0 12 -5 14 -11l181 -673c3 -13 -6 -26 -19 -26h-60c-12 0 -19 6 -21 15l-36 139h-275l-77 -139c-4 -7 -12 -15 -25 -15h-68zM195 238h210l-65 275h-4zM380 768c-62 0 -109 50 -109 116c0 12 7 21 18 21h27
c9 0 13 -7 14 -15c3 -35 25 -59 57 -59c30 0 57 27 70 59c4 9 9 15 18 15h33c11 0 16 -9 12 -21c-19 -66 -73 -116 -140 -116z" />
    <glyph glyph-name="Aring" unicode="&#xc5;" horiz-adv-x="603" 
d="M-17 0c-14 0 -19 13 -12 26l372 673c3 6 8 11 17 11h9c7 0 12 -5 14 -11l181 -673c3 -13 -6 -26 -19 -26h-60c-12 0 -19 6 -21 15l-36 139h-275l-77 -139c-4 -7 -12 -15 -25 -15h-68zM195 238h210l-65 275h-4zM372 756c-48 0 -86 43 -86 96c0 70 51 126 117 126
c47 0 87 -43 87 -96c0 -70 -52 -126 -118 -126zM380 811c27 0 53 31 53 63c0 25 -15 46 -38 46c-27 0 -55 -27 -55 -60c0 -25 17 -49 40 -49z" />
    <glyph glyph-name="Aringacute" unicode="&#x1fa;" horiz-adv-x="603" 
d="M301 893l-11 31c-3 8 1 15 8 19l156 91c6 4 20 6 25 -7l17 -44c4 -10 2 -19 -9 -24l-164 -72c-11 -5 -19 -4 -22 6zM-17 0c-14 0 -19 13 -12 26l353 639c-31 14 -53 49 -53 89c0 70 51 126 117 126c47 0 87 -43 87 -96c0 -57 -35 -104 -83 -120l172 -638
c3 -13 -6 -26 -19 -26h-60c-12 0 -19 6 -21 15l-36 139h-275l-77 -139c-4 -7 -12 -15 -25 -15h-68zM365 713c27 0 53 31 53 63c0 25 -15 46 -38 46c-27 0 -55 -27 -55 -60c0 -25 17 -49 40 -49zM195 238h210l-65 275h-4z" />
    <glyph glyph-name="Aogonek" unicode="&#x104;" horiz-adv-x="603" 
d="M-17 0c-14 0 -19 13 -12 26l372 673c3 6 8 11 17 11h9c7 0 12 -5 14 -11l181 -673c3 -13 -6 -26 -19 -26h-35c-20 -18 -57 -57 -57 -107c0 -29 16 -51 50 -51c19 0 34 8 45 13c10 4 17 -3 15 -15l-4 -29c-1 -9 -8 -14 -15 -18c-5 -3 -34 -12 -62 -12c-53 0 -95 33 -95 89
c0 78 63 128 79 139l-38 145h-275l-77 -139c-4 -7 -12 -15 -25 -15h-68zM195 238h210l-65 275h-4z" />
    <glyph glyph-name="AE" unicode="&#xc6;" horiz-adv-x="822" 
d="M-31 0c-14 0 -17 13 -8 26l452 643c14 20 25 31 44 31h352c9 0 15 -9 14 -19l-8 -56c-1 -10 -10 -19 -20 -19h-279l-29 -204h236c9 0 15 -9 14 -19l-8 -56c-2 -11 -11 -19 -20 -19h-235l-30 -215h279c10 0 16 -9 15 -19l-8 -55c-1 -10 -10 -19 -20 -19h-363
c-10 0 -16 9 -15 19l19 133h-189l-94 -139c-5 -7 -12 -13 -22 -13h-77zM224 238h139l40 275z" />
    <glyph glyph-name="AEacute" unicode="&#x1fc;" horiz-adv-x="821" 
d="M-31 0c-14 0 -17 13 -8 26l452 643c14 20 25 31 44 31h352c9 0 15 -9 14 -19l-8 -56c-1 -10 -10 -19 -20 -19h-279l-29 -204h236c9 0 15 -9 14 -19l-8 -56c-2 -11 -11 -19 -20 -19h-235l-30 -215h279c10 0 16 -9 15 -19l-8 -55c-1 -10 -10 -19 -20 -19h-363
c-10 0 -16 9 -15 19l19 133h-189l-94 -139c-5 -7 -12 -13 -22 -13h-77zM224 238h139l40 275zM589 774c-11 -5 -19 -4 -22 6l-11 31c-3 8 1 15 8 19l156 91c6 4 20 6 25 -7l17 -44c4 -10 2 -19 -9 -24z" />
    <glyph glyph-name="Cacute" unicode="&#x106;" horiz-adv-x="640" 
d="M57 310c0 226 171 400 379 400c91 0 152 -34 205 -93c7 -8 5 -20 -3 -28l-41 -37c-8 -8 -19 -11 -31 1c-30 32 -82 58 -136 58c-136 0 -260 -143 -260 -301c0 -120 68 -214 178 -214c67 0 113 31 156 65c12 10 20 9 28 -1l40 -46c6 -7 3 -20 -4 -27
c-71 -66 -153 -97 -226 -97c-172 0 -285 139 -285 320zM385 773c-11 -5 -19 -4 -22 6l-11 31c-3 8 1 15 8 19l156 91c6 4 20 6 25 -7l17 -44c4 -10 2 -19 -9 -24z" />
    <glyph glyph-name="Ccircumflex" unicode="&#x108;" horiz-adv-x="640" 
d="M57 310c0 226 171 400 379 400c91 0 152 -34 205 -93c7 -8 5 -20 -3 -28l-41 -37c-8 -8 -19 -11 -31 1c-30 32 -82 58 -136 58c-136 0 -260 -143 -260 -301c0 -120 68 -214 178 -214c67 0 113 31 156 65c12 10 20 9 28 -1l40 -46c6 -7 3 -20 -4 -27
c-71 -66 -153 -97 -226 -97c-172 0 -285 139 -285 320zM354 772c-12 -8 -15 -5 -22 5l-14 20c-7 11 -1 20 5 24l126 98c7 5 16 5 22 0l98 -98c5 -5 9 -12 2 -21l-18 -22c-7 -8 -12 -11 -23 -2l-77 60z" />
    <glyph glyph-name="Ccaron" unicode="&#x10c;" horiz-adv-x="640" 
d="M57 310c0 226 171 400 379 400c91 0 152 -34 205 -93c7 -8 5 -20 -3 -28l-41 -37c-8 -8 -19 -11 -31 1c-30 32 -82 58 -136 58c-136 0 -260 -143 -260 -301c0 -120 68 -214 178 -214c67 0 113 31 156 65c12 10 20 9 28 -1l40 -46c6 -7 3 -20 -4 -27
c-71 -66 -153 -97 -226 -97c-172 0 -285 139 -285 320zM437 769l-98 98c-5 5 -9 12 -2 21l18 22c7 8 12 11 23 2l77 -60l99 64c12 8 15 5 22 -5l14 -20c7 -11 1 -20 -5 -24l-126 -98c-7 -5 -16 -5 -22 0z" />
    <glyph glyph-name="Cdotaccent" unicode="&#x10a;" horiz-adv-x="640" 
d="M57 310c0 226 171 400 379 400c91 0 152 -34 205 -93c7 -8 5 -20 -3 -28l-41 -37c-8 -8 -19 -11 -31 1c-30 32 -82 58 -136 58c-136 0 -260 -143 -260 -301c0 -120 68 -214 178 -214c67 0 113 31 156 65c12 10 20 9 28 -1l40 -46c6 -7 3 -20 -4 -27
c-71 -66 -153 -97 -226 -97c-172 0 -285 139 -285 320zM446 788c-30 0 -52 25 -52 57c0 40 34 72 70 72c31 0 53 -25 53 -56c0 -40 -34 -73 -71 -73z" />
    <glyph glyph-name="Ccedilla" unicode="&#xc7;" horiz-adv-x="640" 
d="M289 -5c-142 25 -232 153 -232 315c0 226 171 400 379 400c91 0 152 -34 205 -93c7 -8 5 -20 -3 -28l-41 -37c-8 -8 -19 -11 -31 1c-30 32 -82 58 -136 58c-136 0 -260 -143 -260 -301c0 -120 68 -214 178 -214c67 0 113 31 156 65c12 10 20 9 28 -1l40 -46
c6 -7 3 -20 -4 -27c-70 -66 -151 -96 -224 -97l-5 -45c46 -10 76 -40 76 -92c0 -60 -42 -113 -107 -113c-26 0 -54 16 -66 35c-6 9 -6 17 2 25l16 15c6 6 13 6 20 -1c8 -8 16 -14 31 -14c22 0 41 22 41 49c0 30 -23 44 -61 49c-13 3 -14 14 -13 19z" />
    <glyph glyph-name="Dcaron" unicode="&#x10e;" horiz-adv-x="687" 
d="M58 19l93 662c1 10 10 19 19 19h209c157 0 271 -142 271 -305c0 -217 -161 -395 -369 -395h-210c-9 0 -15 9 -13 19zM170 95h112c140 0 257 127 257 296c0 122 -73 214 -185 214h-112zM364 769l-98 98c-5 5 -9 12 -2 21l18 22c7 8 12 11 23 2l77 -60l99 64
c12 8 15 5 22 -5l14 -20c7 -11 1 -20 -5 -24l-126 -98c-7 -5 -16 -5 -22 0z" />
    <glyph glyph-name="Dcroat" unicode="&#x110;" horiz-adv-x="690" 
d="M62 19l42 303h-26c-9 0 -15 9 -13 19l2 10c2 10 9 19 18 19h26l44 311c1 10 10 19 19 19h209c157 0 271 -143 271 -304c0 -217 -163 -396 -369 -396h-210c-9 0 -15 9 -13 19zM174 95h112c140 0 257 127 257 296c0 122 -73 214 -185 214h-112l-33 -235h160
c10 0 17 -9 15 -19l-2 -11c-2 -10 -10 -18 -20 -18h-160z" />
    <glyph glyph-name="Eth" unicode="&#xd0;" horiz-adv-x="690" 
d="M62 19l42 303h-26c-9 0 -15 9 -13 19l2 10c2 10 9 19 18 19h26l44 311c1 10 10 19 19 19h209c157 0 271 -143 271 -304c0 -217 -163 -396 -369 -396h-210c-9 0 -15 9 -13 19zM174 95h112c140 0 257 127 257 296c0 122 -73 214 -185 214h-112l-33 -235h160
c10 0 17 -9 15 -19l-2 -11c-2 -10 -10 -18 -20 -18h-160z" />
    <glyph glyph-name="Egrave" unicode="&#xc8;" horiz-adv-x="546" 
d="M58 19l93 662c1 10 10 19 19 19h363c10 0 15 -9 14 -19l-8 -56c-1 -10 -9 -19 -19 -19h-277l-29 -204h233c9 0 15 -9 14 -19l-8 -56c-2 -11 -10 -19 -19 -19h-233l-30 -215h277c9 0 15 -9 14 -19l-8 -55c-1 -10 -10 -19 -20 -19h-362c-10 0 -16 9 -14 19zM433 777
l-140 70c-12 6 -12 16 -6 26l26 41c6 9 15 9 24 3l131 -91c5 -3 8 -11 3 -19l-15 -26c-5 -8 -11 -10 -23 -4z" />
    <glyph glyph-name="Eacute" unicode="&#xc9;" horiz-adv-x="546" 
d="M58 19l93 662c1 10 10 19 19 19h363c10 0 15 -9 14 -19l-8 -56c-1 -10 -9 -19 -19 -19h-277l-29 -204h233c9 0 15 -9 14 -19l-8 -56c-2 -11 -10 -19 -19 -19h-233l-30 -215h277c9 0 15 -9 14 -19l-8 -55c-1 -10 -10 -19 -20 -19h-362c-10 0 -16 9 -14 19zM308 773
c-11 -5 -19 -4 -22 6l-11 31c-3 8 1 15 8 19l156 91c6 4 20 6 25 -7l17 -44c4 -10 2 -19 -9 -24z" />
    <glyph glyph-name="Ecircumflex" unicode="&#xca;" horiz-adv-x="546" 
d="M58 19l93 662c1 10 10 19 19 19h363c10 0 15 -9 14 -19l-8 -56c-1 -10 -9 -19 -19 -19h-277l-29 -204h233c9 0 15 -9 14 -19l-8 -56c-2 -11 -10 -19 -19 -19h-233l-30 -215h277c9 0 15 -9 14 -19l-8 -55c-1 -10 -10 -19 -20 -19h-362c-10 0 -16 9 -14 19zM279 772
c-12 -8 -15 -5 -22 5l-14 20c-7 11 -1 20 5 24l126 98c7 5 16 5 22 0l98 -98c5 -5 9 -12 2 -21l-18 -22c-7 -8 -12 -11 -23 -2l-77 60z" />
    <glyph glyph-name="Ecaron" unicode="&#x11a;" horiz-adv-x="546" 
d="M58 19l93 662c1 10 10 19 19 19h363c10 0 15 -9 14 -19l-8 -56c-1 -10 -9 -19 -19 -19h-277l-29 -204h233c9 0 15 -9 14 -19l-8 -56c-2 -11 -10 -19 -19 -19h-233l-30 -215h277c9 0 15 -9 14 -19l-8 -55c-1 -10 -10 -19 -20 -19h-362c-10 0 -16 9 -14 19zM360 769l-98 98
c-5 5 -9 12 -2 21l18 22c7 8 12 11 23 2l77 -60l99 64c12 8 15 5 22 -5l14 -20c7 -11 1 -20 -5 -24l-126 -98c-7 -5 -16 -5 -22 0z" />
    <glyph glyph-name="Edieresis" unicode="&#xcb;" horiz-adv-x="546" 
d="M58 19l93 662c1 10 10 19 19 19h363c10 0 15 -9 14 -19l-8 -56c-1 -10 -9 -19 -19 -19h-277l-29 -204h233c9 0 15 -9 14 -19l-8 -56c-2 -11 -10 -19 -19 -19h-233l-30 -215h277c9 0 15 -9 14 -19l-8 -55c-1 -10 -10 -19 -20 -19h-362c-10 0 -16 9 -14 19zM471 782
c-27 0 -46 23 -46 50c0 35 30 63 62 63c27 0 48 -22 48 -49c0 -35 -32 -64 -64 -64zM258 782c-27 0 -46 23 -46 50c0 35 30 63 62 63c27 0 48 -22 48 -49c0 -35 -32 -64 -64 -64z" />
    <glyph glyph-name="Emacron" unicode="&#x112;" horiz-adv-x="546" 
d="M58 19l93 662c1 10 10 19 19 19h363c10 0 15 -9 14 -19l-8 -56c-1 -10 -9 -19 -19 -19h-277l-29 -204h233c9 0 15 -9 14 -19l-8 -56c-2 -11 -10 -19 -19 -19h-233l-30 -215h277c9 0 15 -9 14 -19l-8 -55c-1 -10 -10 -19 -20 -19h-362c-10 0 -16 9 -14 19zM259 814
c-10 0 -16 8 -15 18l4 28c2 11 10 19 20 19h230c10 0 16 -8 15 -19l-4 -28c-1 -10 -10 -18 -20 -18h-230z" />
    <glyph glyph-name="Ebreve" unicode="&#x114;" horiz-adv-x="546" 
d="M58 19l93 662c1 10 10 19 19 19h363c10 0 15 -9 14 -19l-8 -56c-1 -10 -9 -19 -19 -19h-277l-29 -204h233c9 0 15 -9 14 -19l-8 -56c-2 -11 -10 -19 -19 -19h-233l-30 -215h277c9 0 15 -9 14 -19l-8 -55c-1 -10 -10 -19 -20 -19h-362c-10 0 -16 9 -14 19zM373 768
c-62 0 -109 50 -109 116c0 12 7 21 18 21h27c9 0 13 -7 14 -15c3 -35 25 -59 57 -59c30 0 57 27 70 59c4 9 9 15 18 15h33c11 0 16 -9 12 -21c-19 -66 -73 -116 -140 -116z" />
    <glyph glyph-name="Edotaccent" unicode="&#x116;" horiz-adv-x="546" 
d="M58 19l93 662c1 10 10 19 19 19h363c10 0 15 -9 14 -19l-8 -56c-1 -10 -9 -19 -19 -19h-277l-29 -204h233c9 0 15 -9 14 -19l-8 -56c-2 -11 -10 -19 -19 -19h-233l-30 -215h277c9 0 15 -9 14 -19l-8 -55c-1 -10 -10 -19 -20 -19h-362c-10 0 -16 9 -14 19zM371 788
c-30 0 -52 25 -52 57c0 40 34 72 70 72c31 0 53 -25 53 -56c0 -40 -34 -73 -71 -73z" />
    <glyph glyph-name="Eogonek" unicode="&#x118;" horiz-adv-x="545" 
d="M58 19l93 662c1 10 10 19 19 19h363c10 0 15 -9 14 -19l-8 -56c-1 -10 -9 -19 -19 -19h-277l-29 -204h233c9 0 15 -9 14 -19l-8 -56c-2 -11 -10 -19 -19 -19h-233l-30 -215h277c9 0 15 -9 14 -19l-7 -47c-2 -18 -12 -20 -20 -27c-20 -18 -57 -57 -57 -107
c0 -29 16 -51 50 -51c19 0 34 8 45 13c10 4 17 -3 15 -15l-4 -29c-1 -9 -8 -14 -15 -18c-5 -3 -34 -12 -62 -12c-53 0 -95 33 -95 89c0 64 43 110 67 130h-307c-10 0 -16 9 -14 19z" />
    <glyph glyph-name="Gcircumflex" unicode="&#x11c;" horiz-adv-x="666" 
d="M57 301c0 235 168 409 379 409c91 0 152 -34 205 -93c7 -8 5 -20 -3 -28l-40 -38c-8 -8 -19 -11 -31 1c-30 32 -83 59 -137 59c-136 0 -259 -138 -259 -296c0 -120 70 -222 179 -222c64 0 118 26 131 33l16 112h-82c-10 0 -16 8 -14 18l8 58c1 11 10 19 20 19h167
c8 0 14 -8 14 -17l-33 -244c-2 -10 -6 -13 -10 -16c0 0 -100 -66 -231 -66c-164 0 -279 139 -279 311zM368 772c-12 -8 -15 -5 -22 5l-14 20c-7 11 -1 20 5 24l126 98c7 5 16 5 22 0l98 -98c5 -5 9 -12 2 -21l-18 -22c-7 -8 -12 -11 -23 -2l-77 60z" />
    <glyph glyph-name="Gbreve" unicode="&#x11e;" horiz-adv-x="666" 
d="M57 301c0 235 168 409 379 409c91 0 152 -34 205 -93c7 -8 5 -20 -3 -28l-40 -38c-8 -8 -19 -11 -31 1c-30 32 -83 59 -137 59c-136 0 -259 -138 -259 -296c0 -120 70 -222 179 -222c64 0 118 26 131 33l16 112h-82c-10 0 -16 8 -14 18l8 58c1 11 10 19 20 19h167
c8 0 14 -8 14 -17l-33 -244c-2 -10 -6 -13 -10 -16c0 0 -100 -66 -231 -66c-164 0 -279 139 -279 311zM454 768c-62 0 -109 50 -109 116c0 12 7 21 18 21h27c9 0 13 -7 14 -15c3 -35 25 -59 57 -59c30 0 57 27 70 59c4 9 9 15 18 15h33c11 0 16 -9 12 -21
c-19 -66 -73 -116 -140 -116z" />
    <glyph glyph-name="Gdotaccent" unicode="&#x120;" horiz-adv-x="666" 
d="M57 301c0 235 168 409 379 409c91 0 152 -34 205 -93c7 -8 5 -20 -3 -28l-40 -38c-8 -8 -19 -11 -31 1c-30 32 -83 59 -137 59c-136 0 -259 -138 -259 -296c0 -120 70 -222 179 -222c64 0 118 26 131 33l16 112h-82c-10 0 -16 8 -14 18l8 58c1 11 10 19 20 19h167
c8 0 14 -8 14 -17l-33 -244c-2 -10 -6 -13 -10 -16c0 0 -100 -66 -231 -66c-164 0 -279 139 -279 311zM451 788c-30 0 -52 25 -52 57c0 40 34 72 70 72c31 0 53 -25 53 -56c0 -40 -34 -73 -71 -73z" />
    <glyph glyph-name="Gcommaaccent" unicode="&#x122;" horiz-adv-x="666" 
d="M57 301c0 235 168 409 379 409c91 0 152 -34 205 -93c7 -8 5 -20 -3 -28l-40 -38c-8 -8 -19 -11 -31 1c-30 32 -83 59 -137 59c-136 0 -259 -138 -259 -296c0 -120 70 -222 179 -222c64 0 118 26 131 33l16 112h-82c-10 0 -16 8 -14 18l8 58c1 11 10 19 20 19h167
c8 0 14 -8 14 -17l-33 -244c-2 -10 -6 -13 -10 -16c0 0 -100 -66 -231 -66c-164 0 -279 139 -279 311zM251 -162c0 38 32 70 70 70c27 0 59 -18 59 -77c0 -101 -76 -176 -107 -205c-9 -8 -16 -8 -22 -1l-11 15c-5 6 -3 16 5 23c10 9 68 53 78 124c-1 -1 -11 -3 -22 -3
c-29 0 -50 25 -50 54z" />
    <glyph glyph-name="Hcircumflex" unicode="&#x124;" horiz-adv-x="711" 
d="M58 19l93 662c2 10 11 19 20 19h70c10 0 16 -9 15 -19l-40 -279h314l39 279c2 10 10 19 20 19h70c9 0 16 -9 14 -19l-93 -662c-1 -10 -10 -19 -19 -19h-70c-10 0 -16 9 -15 19l41 289h-314l-41 -289c-1 -10 -9 -19 -19 -19h-70c-9 0 -16 9 -15 19zM334 772
c-12 -8 -15 -5 -22 5l-14 20c-7 11 -1 20 5 24l126 98c7 5 16 5 22 0l98 -98c5 -5 9 -12 2 -21l-18 -22c-7 -8 -12 -11 -23 -2l-77 60z" />
    <glyph glyph-name="Hbar" unicode="&#x126;" horiz-adv-x="711" 
d="M58 19l73 515h-23c-9 0 -14 9 -13 19l1 10c1 10 10 19 19 19h23l13 99c2 10 11 19 20 19h70c10 0 16 -9 15 -19l-14 -99h313l14 99c2 10 10 19 20 19h70c9 0 16 -9 14 -19l-13 -99h21c10 0 15 -9 14 -19l-1 -11c-1 -10 -10 -18 -20 -18h-21l-73 -515
c-1 -10 -10 -19 -19 -19h-70c-10 0 -16 9 -15 19l41 289h-314l-41 -289c-1 -10 -9 -19 -19 -19h-70c-9 0 -16 9 -15 19zM216 402h314l19 132h-314z" />
    <glyph glyph-name="Igrave" unicode="&#xcc;" horiz-adv-x="292" 
d="M58 19l93 662c1 10 10 19 19 19h70c9 0 16 -9 14 -19l-93 -662c-1 -10 -10 -19 -19 -19h-70c-9 0 -16 9 -14 19zM279 777l-140 70c-12 6 -12 16 -6 26l26 41c6 9 15 9 24 3l131 -91c5 -3 8 -11 3 -19l-15 -26c-5 -8 -11 -10 -23 -4z" />
    <glyph glyph-name="Iacute" unicode="&#xcd;" horiz-adv-x="292" 
d="M58 19l93 662c1 10 10 19 19 19h70c9 0 16 -9 14 -19l-93 -662c-1 -10 -10 -19 -19 -19h-70c-9 0 -16 9 -14 19zM154 773c-11 -5 -19 -4 -22 6l-11 31c-3 8 1 15 8 19l156 91c6 4 20 6 25 -7l17 -44c4 -10 2 -19 -9 -24z" />
    <glyph glyph-name="Ibreve" unicode="&#x12c;" horiz-adv-x="292" 
d="M58 19l93 662c1 10 10 19 19 19h70c9 0 16 -9 14 -19l-93 -662c-1 -10 -10 -19 -19 -19h-70c-9 0 -16 9 -14 19zM217 768c-62 0 -109 50 -109 116c0 12 7 21 18 21h27c9 0 13 -7 14 -15c3 -35 25 -59 57 -59c30 0 57 27 70 59c4 9 9 15 18 15h33c11 0 16 -9 12 -21
c-19 -66 -73 -116 -140 -116z" />
    <glyph glyph-name="Icircumflex" unicode="&#xce;" horiz-adv-x="292" 
d="M58 19l93 662c1 10 10 19 19 19h70c9 0 16 -9 14 -19l-93 -662c-1 -10 -10 -19 -19 -19h-70c-9 0 -16 9 -14 19zM125 772c-12 -8 -15 -5 -22 5l-14 20c-7 11 -1 20 5 24l126 98c7 5 16 5 22 0l98 -98c5 -5 9 -12 2 -21l-18 -22c-7 -8 -12 -11 -23 -2l-77 60z" />
    <glyph glyph-name="Itilde" unicode="&#x128;" horiz-adv-x="292" 
d="M58 19l93 662c1 10 10 19 19 19h70c9 0 16 -9 14 -19l-93 -662c-1 -10 -10 -19 -19 -19h-70c-9 0 -16 9 -14 19zM114 791l-26 15c-8 6 -7 16 -4 23c8 18 44 84 98 84c52 0 60 -64 87 -64c21 0 33 24 42 40c6 11 16 15 25 9l19 -14c13 -10 9 -21 2 -32
c-12 -22 -45 -75 -93 -75c-45 0 -64 65 -87 65c-21 0 -34 -28 -41 -41c-6 -11 -11 -17 -22 -10z" />
    <glyph glyph-name="Idieresis" unicode="&#xcf;" horiz-adv-x="292" 
d="M58 19l93 662c1 10 10 19 19 19h70c9 0 16 -9 14 -19l-93 -662c-1 -10 -10 -19 -19 -19h-70c-9 0 -16 9 -14 19zM320 782c-27 0 -46 23 -46 50c0 35 30 63 62 63c27 0 48 -22 48 -49c0 -35 -32 -64 -64 -64zM107 782c-27 0 -46 23 -46 50c0 35 30 63 62 63
c27 0 48 -22 48 -49c0 -35 -32 -64 -64 -64z" />
    <glyph glyph-name="Imacron" unicode="&#x12a;" horiz-adv-x="292" 
d="M58 19l93 662c1 10 10 19 19 19h70c9 0 16 -9 14 -19l-93 -662c-1 -10 -10 -19 -19 -19h-70c-9 0 -16 9 -14 19zM104 814c-10 0 -16 8 -15 18l4 28c2 11 10 19 20 19h230c10 0 16 -8 15 -19l-4 -28c-1 -10 -10 -18 -20 -18h-230z" />
    <glyph glyph-name="Idotaccent" unicode="&#x130;" horiz-adv-x="292" 
d="M58 19l93 662c1 10 10 19 19 19h70c9 0 16 -9 14 -19l-93 -662c-1 -10 -10 -19 -19 -19h-70c-9 0 -16 9 -14 19zM216 788c-30 0 -52 25 -52 57c0 40 34 72 70 72c31 0 53 -25 53 -56c0 -40 -34 -73 -71 -73z" />
    <glyph glyph-name="Iogonek" unicode="&#x12e;" horiz-adv-x="292" 
d="M58 19l93 662c1 10 10 19 19 19h70c9 0 16 -9 14 -19l-93 -662c-1 -10 -10 -19 -19 -19h-15c-20 -18 -57 -57 -57 -107c0 -29 16 -51 50 -51c19 0 34 8 45 13c10 4 17 -3 15 -15l-4 -29c-1 -9 -8 -14 -15 -18c-5 -3 -34 -12 -62 -12c-53 0 -95 33 -95 89
c0 64 43 110 67 130c-9 0 -15 9 -13 19z" />
    <glyph glyph-name="Jcircumflex" unicode="&#x134;" horiz-adv-x="393" 
d="M-38 63c-4 8 -1 18 6 25l32 31c13 13 20 8 28 -2c12 -15 38 -35 73 -35c40 0 89 38 101 126l66 473c1 10 10 19 20 19h70c10 0 16 -9 14 -19l-66 -472c-19 -139 -85 -219 -209 -219c-78 0 -124 52 -135 73zM242 772c-12 -8 -15 -5 -22 5l-14 20c-7 11 -1 20 5 24l126 98
c7 5 16 5 22 0l98 -98c5 -5 9 -12 2 -21l-18 -22c-7 -8 -12 -11 -23 -2l-77 60z" />
    <glyph glyph-name="Kcommaaccent" unicode="&#x136;" horiz-adv-x="594" 
d="M59 24l92 652c2 13 12 24 25 24h63c12 0 21 -11 19 -24l-39 -277l273 288c7 8 15 13 27 13h80c16 0 22 -20 8 -35l-295 -304l220 -328c9 -13 1 -33 -18 -33h-72c-14 0 -19 4 -25 13l-207 322l-44 -311c-2 -13 -13 -24 -25 -24h-63c-13 0 -20 11 -19 24zM188 -162
c0 38 32 70 70 70c27 0 59 -18 59 -77c0 -101 -76 -176 -107 -205c-9 -8 -16 -8 -22 -1l-11 15c-5 6 -3 16 5 23c10 9 68 53 78 124c-1 -1 -11 -3 -22 -3c-29 0 -50 25 -50 54z" />
    <glyph glyph-name="Lacute" unicode="&#x139;" horiz-adv-x="458" 
d="M58 19l93 662c1 10 10 19 20 19h70c9 0 16 -9 15 -19l-83 -588h237c10 0 16 -9 15 -19l-8 -55c-1 -10 -10 -19 -20 -19h-324c-10 0 -16 9 -15 19zM155 773c-11 -5 -19 -4 -22 6l-11 31c-3 8 1 15 8 19l156 91c6 4 20 6 25 -7l17 -44c4 -10 2 -19 -9 -24z" />
    <glyph glyph-name="Lcaron" unicode="&#x13d;" horiz-adv-x="458" 
d="M58 19l93 662c1 10 10 19 20 19h70c9 0 16 -9 15 -19l-83 -588h237c10 0 16 -9 15 -19l-8 -55c-1 -10 -10 -19 -20 -19h-324c-10 0 -16 9 -15 19zM346 641c0 38 32 70 70 70c27 0 59 -18 59 -77c0 -101 -76 -176 -107 -205c-9 -8 -16 -8 -22 -1l-11 15c-5 6 -3 16 5 23
c10 9 68 53 78 124c-1 -1 -11 -3 -22 -3c-29 0 -50 25 -50 54z" />
    <glyph glyph-name="Lcommaaccent" unicode="&#x13b;" horiz-adv-x="458" 
d="M58 19l93 662c1 10 10 19 20 19h70c9 0 16 -9 15 -19l-83 -588h237c10 0 16 -9 15 -19l-8 -55c-1 -10 -10 -19 -20 -19h-324c-10 0 -16 9 -15 19zM156 -162c0 38 32 70 70 70c27 0 59 -18 59 -77c0 -101 -76 -176 -107 -205c-9 -8 -16 -8 -22 -1l-11 15c-5 6 -3 16 5 23
c10 9 68 53 78 124c-1 -1 -11 -3 -22 -3c-29 0 -50 25 -50 54z" />
    <glyph glyph-name="Lslash" unicode="&#x141;" horiz-adv-x="465" 
d="M65 19l41 289l-22 -12c-8 -5 -17 -2 -21 7l-4 9c-4 8 -1 21 9 26l46 25l44 318c2 10 10 19 20 19h70c9 0 16 -9 15 -19l-37 -257l93 57c10 6 19 1 22 -7l4 -9c4 -9 -1 -20 -10 -26l-116 -71l-39 -275h237c10 0 16 -9 15 -19l-8 -55c-2 -10 -10 -19 -20 -19h-324
c-10 0 -16 9 -15 19z" />
    <glyph glyph-name="Ldot" unicode="&#x13f;" horiz-adv-x="523" 
d="M58 19l93 662c1 10 10 19 20 19h70c9 0 16 -9 15 -19l-83 -588h237c10 0 16 -9 15 -19l-8 -55c-1 -10 -10 -19 -20 -19h-324c-10 0 -16 9 -15 19zM434 287c-30 0 -52 25 -52 57c0 40 34 72 70 72c31 0 53 -25 53 -56c0 -40 -34 -73 -71 -73z" />
    <glyph glyph-name="Nacute" unicode="&#x143;" horiz-adv-x="717" 
d="M58 19l95 673c1 10 11 18 20 18h25l313 -499c-1 0 2 0 2 0l63 470c1 10 9 19 19 19h69c9 0 16 -9 15 -19l-95 -673c-1 -10 -11 -18 -20 -18h-28l-313 507h-1l-62 -478c-1 -10 -10 -19 -20 -19h-67c-9 0 -16 9 -15 19zM363 773c-11 -5 -19 -4 -22 6l-11 31c-3 8 1 15 8 19
l156 91c6 4 20 6 25 -7l17 -44c4 -10 2 -19 -9 -24z" />
    <glyph glyph-name="Ncaron" unicode="&#x147;" horiz-adv-x="717" 
d="M58 19l95 673c1 10 11 18 20 18h25l313 -499c-1 0 2 0 2 0l63 470c1 10 9 19 19 19h69c9 0 16 -9 15 -19l-95 -673c-1 -10 -11 -18 -20 -18h-28l-313 507h-1l-62 -478c-1 -10 -10 -19 -20 -19h-67c-9 0 -16 9 -15 19zM414 769l-98 98c-5 5 -9 12 -2 21l18 22
c7 8 12 11 23 2l77 -60l99 64c12 8 15 5 22 -5l14 -20c7 -11 1 -20 -5 -24l-126 -98c-7 -5 -16 -5 -22 0z" />
    <glyph glyph-name="Ntilde" unicode="&#xd1;" horiz-adv-x="717" 
d="M58 19l95 673c1 10 11 18 20 18h25l313 -499c-1 0 2 0 2 0l63 470c1 10 9 19 19 19h69c9 0 16 -9 15 -19l-95 -673c-1 -10 -11 -18 -20 -18h-28l-313 507h-1l-62 -478c-1 -10 -10 -19 -20 -19h-67c-9 0 -16 9 -15 19zM322 791l-26 15c-8 6 -7 16 -4 23c8 18 44 84 98 84
c52 0 60 -64 87 -64c21 0 33 24 42 40c6 11 16 15 25 9l19 -14c13 -10 9 -21 2 -32c-12 -22 -45 -75 -93 -75c-45 0 -64 65 -87 65c-21 0 -34 -28 -41 -41c-6 -11 -11 -17 -22 -10z" />
    <glyph glyph-name="Ncommaaccent" unicode="&#x145;" horiz-adv-x="717" 
d="M58 19l95 673c1 10 11 18 20 18h25l313 -499c-1 0 2 0 2 0l63 470c1 10 9 19 19 19h69c9 0 16 -9 15 -19l-95 -673c-1 -10 -11 -18 -20 -18h-28l-313 507h-1l-62 -478c-1 -10 -10 -19 -20 -19h-67c-9 0 -16 9 -15 19zM237 -162c0 38 32 70 70 70c27 0 59 -18 59 -77
c0 -101 -76 -176 -107 -205c-9 -8 -16 -8 -22 -1l-11 15c-5 6 -3 16 5 23c10 9 68 53 78 124c-1 -1 -11 -3 -22 -3c-29 0 -50 25 -50 54z" />
    <glyph glyph-name="Ograve" unicode="&#xd2;" horiz-adv-x="747" 
d="M56 300c0 231 167 410 377 410c162 0 278 -145 278 -313c0 -230 -168 -407 -377 -407c-163 0 -278 144 -278 310zM161 313c0 -122 77 -223 186 -223c134 0 259 133 259 294c0 123 -76 226 -186 226c-133 0 -259 -136 -259 -297zM506 777l-140 70c-12 6 -12 16 -6 26
l26 41c6 9 15 9 24 3l131 -91c5 -3 8 -11 3 -19l-15 -26c-5 -8 -11 -10 -23 -4z" />
    <glyph glyph-name="Oacute" unicode="&#xd3;" horiz-adv-x="747" 
d="M56 300c0 231 167 410 377 410c162 0 278 -145 278 -313c0 -230 -168 -407 -377 -407c-163 0 -278 144 -278 310zM161 313c0 -122 77 -223 186 -223c134 0 259 133 259 294c0 123 -76 226 -186 226c-133 0 -259 -136 -259 -297zM381 773c-11 -5 -19 -4 -22 6l-11 31
c-3 8 1 15 8 19l156 91c6 4 20 6 25 -7l17 -44c4 -10 2 -19 -9 -24z" />
    <glyph glyph-name="Ocircumflex" unicode="&#xd4;" horiz-adv-x="747" 
d="M56 300c0 231 167 410 377 410c162 0 278 -145 278 -313c0 -230 -168 -407 -377 -407c-163 0 -278 144 -278 310zM161 313c0 -122 77 -223 186 -223c134 0 259 133 259 294c0 123 -76 226 -186 226c-133 0 -259 -136 -259 -297zM351 772c-12 -8 -15 -5 -22 5l-14 20
c-7 11 -1 20 5 24l126 98c7 5 16 5 22 0l98 -98c5 -5 9 -12 2 -21l-18 -22c-7 -8 -12 -11 -23 -2l-77 60z" />
    <glyph glyph-name="Otilde" unicode="&#xd5;" horiz-adv-x="747" 
d="M56 300c0 231 167 410 377 410c162 0 278 -145 278 -313c0 -230 -168 -407 -377 -407c-163 0 -278 144 -278 310zM161 313c0 -122 77 -223 186 -223c134 0 259 133 259 294c0 123 -76 226 -186 226c-133 0 -259 -136 -259 -297zM342 791l-26 15c-8 6 -7 16 -4 23
c8 18 44 84 98 84c52 0 60 -64 87 -64c21 0 33 24 42 40c6 11 16 15 25 9l19 -14c13 -10 9 -21 2 -32c-12 -22 -45 -75 -93 -75c-45 0 -64 65 -87 65c-21 0 -34 -28 -41 -41c-6 -11 -11 -17 -22 -10z" />
    <glyph glyph-name="Odieresis" unicode="&#xd6;" horiz-adv-x="747" 
d="M56 300c0 231 167 410 377 410c162 0 278 -145 278 -313c0 -230 -168 -407 -377 -407c-163 0 -278 144 -278 310zM161 313c0 -122 77 -223 186 -223c134 0 259 133 259 294c0 123 -76 226 -186 226c-133 0 -259 -136 -259 -297zM549 782c-27 0 -46 23 -46 50
c0 35 30 63 62 63c27 0 48 -22 48 -49c0 -35 -32 -64 -64 -64zM336 782c-27 0 -46 23 -46 50c0 35 30 63 62 63c27 0 48 -22 48 -49c0 -35 -32 -64 -64 -64z" />
    <glyph glyph-name="Omacron" unicode="&#x14c;" horiz-adv-x="747" 
d="M56 300c0 231 167 410 377 410c162 0 278 -145 278 -313c0 -230 -168 -407 -377 -407c-163 0 -278 144 -278 310zM161 313c0 -122 77 -223 186 -223c134 0 259 133 259 294c0 123 -76 226 -186 226c-133 0 -259 -136 -259 -297zM333 814c-10 0 -16 8 -15 18l4 28
c2 11 10 19 20 19h230c10 0 16 -8 15 -19l-4 -28c-1 -10 -10 -18 -20 -18h-230z" />
    <glyph glyph-name="Obreve" unicode="&#x14e;" horiz-adv-x="747" 
d="M56 300c0 231 167 410 377 410c162 0 278 -145 278 -313c0 -230 -168 -407 -377 -407c-163 0 -278 144 -278 310zM161 313c0 -122 77 -223 186 -223c134 0 259 133 259 294c0 123 -76 226 -186 226c-133 0 -259 -136 -259 -297zM444 768c-62 0 -109 50 -109 116
c0 12 7 21 18 21h27c9 0 13 -7 14 -15c3 -35 25 -59 57 -59c30 0 57 27 70 59c4 9 9 15 18 15h33c11 0 16 -9 12 -21c-19 -66 -73 -116 -140 -116z" />
    <glyph glyph-name="Ohungarumlaut" unicode="&#x150;" horiz-adv-x="747" 
d="M56 300c0 231 167 410 377 410c162 0 278 -145 278 -313c0 -230 -168 -407 -377 -407c-163 0 -278 144 -278 310zM161 313c0 -122 77 -223 186 -223c134 0 259 133 259 294c0 123 -76 226 -186 226c-133 0 -259 -136 -259 -297zM499 768c-13 0 -18 9 -14 19l57 141
c4 10 11 19 20 19h58c17 0 21 -12 13 -25l-90 -139c-5 -8 -11 -15 -19 -15h-25zM350 768c-13 0 -18 9 -14 19l57 141c4 10 11 19 20 19h58c17 0 21 -12 13 -25l-90 -139c-5 -8 -11 -15 -19 -15h-25z" />
    <glyph glyph-name="Oslash" unicode="&#xd8;" horiz-adv-x="747" 
d="M36 22c-5 7 -5 19 3 26l70 67c-34 52 -53 117 -53 185c0 231 167 410 377 410c80 0 150 -36 199 -93l72 68c8 7 18 7 24 0l6 -7c5 -7 3 -19 -4 -26l-72 -69c34 -53 53 -118 53 -186c0 -230 -168 -407 -377 -407c-81 0 -150 35 -199 91l-69 -67c-8 -7 -18 -6 -24 1z
M189 192l366 350c-33 42 -80 68 -135 68c-133 0 -259 -136 -259 -297c0 -45 10 -86 28 -121zM213 155c33 -40 79 -65 134 -65c134 0 259 133 259 294c0 44 -10 86 -28 122z" />
    <glyph glyph-name="Oslashacute" unicode="&#x1fe;" horiz-adv-x="747" 
d="M37 22c-5 7 -5 19 3 26l70 67c-34 52 -53 117 -53 185c0 231 167 410 377 410c80 0 150 -36 199 -93l72 68c8 7 18 7 24 0l6 -7c5 -7 3 -19 -4 -26l-72 -69c34 -53 53 -118 53 -186c0 -230 -168 -407 -377 -407c-81 0 -150 35 -199 91l-69 -67c-8 -7 -18 -6 -24 1z
M190 192l366 350c-33 42 -80 68 -135 68c-133 0 -259 -136 -259 -297c0 -45 10 -86 28 -121zM214 155c33 -40 79 -65 134 -65c134 0 259 133 259 294c0 44 -10 86 -28 122zM385 773c-11 -5 -19 -4 -22 6l-11 31c-3 8 1 15 8 19l156 91c6 4 20 6 25 -7l17 -44
c4 -10 2 -19 -9 -24z" />
    <glyph glyph-name="OE" unicode="&#x152;" horiz-adv-x="893" 
d="M56 300c0 226 165 410 378 410c47 0 84 -10 84 -10h362c10 0 15 -9 14 -19l-7 -56c-1 -10 -10 -19 -20 -19h-277l-29 -204h233c9 0 15 -9 14 -19l-7 -56c-1 -11 -11 -19 -20 -19h-233l-30 -215h277c10 0 15 -9 14 -19l-8 -55c-1 -10 -10 -19 -19 -19h-363
s-48 -10 -86 -10c-154 0 -277 138 -277 310zM159 313c0 -123 79 -224 188 -224c23 0 46 2 69 10l70 500c-21 7 -43 11 -66 11c-133 0 -261 -136 -261 -297z" />
    <glyph glyph-name="Racute" unicode="&#x154;" horiz-adv-x="618" 
d="M58 19l93 662c1 10 10 19 19 19h250c98 0 169 -88 169 -186c0 -107 -67 -203 -166 -231l89 -255c5 -13 -1 -28 -16 -28h-75c-10 0 -16 5 -19 14l-74 259h-132l-36 -254c-1 -10 -10 -19 -19 -19h-69c-10 0 -16 9 -14 19zM210 361h153c59 0 120 62 120 139
c0 56 -37 103 -86 103h-153zM299 773c-11 -5 -19 -4 -22 6l-11 31c-3 8 1 15 8 19l156 91c6 4 20 6 25 -7l17 -44c4 -10 2 -19 -9 -24z" />
    <glyph glyph-name="Rcaron" unicode="&#x158;" horiz-adv-x="618" 
d="M58 19l93 662c1 10 10 19 19 19h250c98 0 169 -88 169 -186c0 -107 -67 -203 -166 -231l89 -255c5 -13 -1 -28 -16 -28h-75c-10 0 -16 5 -19 14l-74 259h-132l-36 -254c-1 -10 -10 -19 -19 -19h-69c-10 0 -16 9 -14 19zM210 361h153c59 0 120 62 120 139
c0 56 -37 103 -86 103h-153zM336 769l-98 98c-5 5 -9 12 -2 21l18 22c7 8 12 11 23 2l77 -60l99 64c12 8 15 5 22 -5l14 -20c7 -11 1 -20 -5 -24l-126 -98c-7 -5 -16 -5 -22 0z" />
    <glyph glyph-name="Rcommaaccent" unicode="&#x156;" horiz-adv-x="617" 
d="M58 19l93 662c1 10 10 19 19 19h250c98 0 169 -88 169 -186c0 -107 -67 -203 -166 -231l89 -255c5 -13 -1 -28 -16 -28h-75c-10 0 -16 5 -19 14l-74 259h-132l-36 -254c-1 -10 -10 -19 -19 -19h-69c-10 0 -16 9 -14 19zM210 361h153c59 0 120 62 120 139
c0 56 -37 103 -86 103h-153zM195 -162c0 38 32 70 70 70c27 0 59 -18 59 -77c0 -101 -76 -176 -107 -205c-9 -8 -16 -8 -22 -1l-11 15c-5 6 -3 16 5 23c10 9 68 53 78 124c-1 -1 -11 -3 -22 -3c-29 0 -50 25 -50 54z" />
    <glyph glyph-name="Sacute" unicode="&#x15a;" horiz-adv-x="503" 
d="M31 69c-7 8 -14 16 -1 32l31 38c10 12 23 13 34 3c15 -14 61 -61 126 -61c62 0 113 47 113 106c0 52 -40 85 -109 126c-73 44 -138 101 -138 196c0 93 72 201 226 201c91 0 150 -48 162 -58c7 -6 12 -19 1 -34l-27 -36c-9 -12 -25 -15 -35 -6c-13 11 -61 41 -112 41
c-68 0 -112 -57 -112 -102c0 -48 34 -79 96 -114c81 -46 161 -103 161 -206c0 -120 -91 -205 -231 -205c-106 0 -171 64 -185 79zM264 773c-11 -5 -19 -4 -22 6l-11 31c-3 8 1 15 8 19l156 91c6 4 20 6 25 -7l17 -44c4 -10 2 -19 -9 -24z" />
    <glyph glyph-name="Scircumflex" unicode="&#x15c;" horiz-adv-x="503" 
d="M31 69c-7 8 -14 16 -1 32l31 38c10 12 23 13 34 3c15 -14 61 -61 126 -61c62 0 113 47 113 106c0 52 -40 85 -109 126c-73 44 -138 101 -138 196c0 93 72 201 226 201c91 0 150 -48 162 -58c7 -6 12 -19 1 -34l-27 -36c-9 -12 -25 -15 -35 -6c-13 11 -61 41 -112 41
c-68 0 -112 -57 -112 -102c0 -48 34 -79 96 -114c81 -46 161 -103 161 -206c0 -120 -91 -205 -231 -205c-106 0 -171 64 -185 79zM233 772c-12 -8 -15 -5 -22 5l-14 20c-7 11 -1 20 5 24l126 98c7 5 16 5 22 0l98 -98c5 -5 9 -12 2 -21l-18 -22c-7 -8 -12 -11 -23 -2l-77 60
z" />
    <glyph glyph-name="Scaron" unicode="&#x160;" horiz-adv-x="503" 
d="M31 69c-7 8 -14 16 -1 32l31 38c10 12 23 13 34 3c15 -14 61 -61 126 -61c62 0 113 47 113 106c0 52 -40 85 -109 126c-73 44 -138 101 -138 196c0 93 72 201 226 201c91 0 150 -48 162 -58c7 -6 12 -19 1 -34l-27 -36c-9 -12 -25 -15 -35 -6c-13 11 -61 41 -112 41
c-68 0 -112 -57 -112 -102c0 -48 34 -79 96 -114c81 -46 161 -103 161 -206c0 -120 -91 -205 -231 -205c-106 0 -171 64 -185 79zM314 769l-98 98c-5 5 -9 12 -2 21l18 22c7 8 12 11 23 2l77 -60l99 64c12 8 15 5 22 -5l14 -20c7 -11 1 -20 -5 -24l-126 -98
c-7 -5 -16 -5 -22 0z" />
    <glyph glyph-name="Scedilla" unicode="&#x15e;" horiz-adv-x="504" 
d="M32 69c-7 8 -14 16 -1 32l31 38c10 12 23 13 34 3c15 -14 61 -61 126 -61c62 0 113 47 113 106c0 52 -40 85 -109 126c-73 44 -138 101 -138 196c0 93 72 201 226 201c91 0 150 -48 162 -58c7 -6 12 -19 1 -34l-27 -36c-9 -12 -25 -15 -35 -6c-13 11 -61 41 -112 41
c-68 0 -112 -57 -112 -102c0 -48 34 -79 96 -114c81 -46 161 -103 161 -206c0 -119 -89 -203 -226 -205l-5 -45c46 -10 76 -40 76 -92c0 -60 -42 -113 -107 -113c-26 0 -54 16 -66 35c-6 9 -6 17 2 25l16 15c6 6 13 6 20 -1c8 -8 16 -14 31 -14c22 0 41 22 41 49
c0 30 -23 44 -61 49c-13 3 -14 14 -13 19l11 78c-77 15 -124 61 -135 74z" />
    <glyph glyph-name="Scommaaccent" unicode="&#x218;" horiz-adv-x="504" 
d="M32 69c-7 8 -14 16 -1 32l31 38c10 12 23 13 34 3c15 -14 61 -61 126 -61c62 0 113 47 113 106c0 52 -40 85 -109 126c-73 44 -138 101 -138 196c0 93 72 201 226 201c91 0 150 -48 162 -58c7 -6 12 -19 1 -34l-27 -36c-9 -12 -25 -15 -35 -6c-13 11 -61 41 -112 41
c-68 0 -112 -57 -112 -102c0 -48 34 -79 96 -114c81 -46 161 -103 161 -206c0 -120 -91 -205 -231 -205c-106 0 -171 64 -185 79zM133 -162c0 38 32 70 70 70c27 0 59 -18 59 -77c0 -101 -76 -176 -107 -205c-9 -8 -16 -8 -22 -1l-11 15c-5 6 -3 16 5 23c10 9 68 53 78 124
c-1 -1 -11 -3 -22 -3c-29 0 -50 25 -50 54z" />
    <glyph glyph-name="Tcaron" unicode="&#x164;" horiz-adv-x="447" 
d="M133 19l83 587h-143c-10 0 -15 9 -14 19l8 56c1 10 10 19 19 19h390c10 0 15 -9 14 -19l-8 -56c-1 -10 -9 -19 -19 -19h-143l-82 -587c-1 -10 -11 -19 -20 -19h-70c-9 0 -16 9 -15 19zM282 769l-98 98c-5 5 -9 12 -2 21l18 22c7 8 12 11 23 2l77 -60l99 64
c12 8 15 5 22 -5l14 -20c7 -11 1 -20 -5 -24l-126 -98c-7 -5 -16 -5 -22 0z" />
    <glyph glyph-name="Tcommaaccent" unicode="&#x162;" horiz-adv-x="447" 
d="M133 19l83 587h-143c-10 0 -15 9 -14 19l8 56c1 10 10 19 19 19h390c10 0 15 -9 14 -19l-8 -56c-1 -10 -9 -19 -19 -19h-143l-82 -587c-1 -10 -11 -19 -20 -19h-70c-9 0 -16 9 -15 19zM97 -162c0 38 32 70 70 70c27 0 59 -18 59 -77c0 -101 -76 -176 -107 -205
c-9 -8 -16 -8 -22 -1l-11 15c-5 6 -3 16 5 23c10 9 68 53 78 124c-1 -1 -11 -3 -22 -3c-29 0 -50 25 -50 54z" />
    <glyph glyph-name="uni021A" unicode="&#x21a;" horiz-adv-x="447" 
d="M133 19l83 587h-143c-10 0 -15 9 -14 19l8 56c1 10 10 19 19 19h390c10 0 15 -9 14 -19l-8 -56c-1 -10 -9 -19 -19 -19h-143l-82 -587c-1 -10 -11 -19 -20 -19h-70c-9 0 -16 9 -15 19zM97 -162c0 38 32 70 70 70c27 0 59 -18 59 -77c0 -101 -76 -176 -107 -205
c-9 -8 -16 -8 -22 -1l-11 15c-5 6 -3 16 5 23c10 9 68 53 78 124c-1 -1 -11 -3 -22 -3c-29 0 -50 25 -50 54z" />
    <glyph glyph-name="Tbar" unicode="&#x166;" horiz-adv-x="448" 
d="M134 19l38 274h-89c-9 0 -16 9 -14 19l2 10c2 10 10 19 19 19h89l38 265h-143c-10 0 -15 9 -14 19l8 56c1 10 10 19 19 19h390c10 0 15 -9 14 -19l-8 -56c-1 -10 -9 -19 -19 -19h-143l-37 -265h87c10 0 17 -9 15 -19l-2 -11c-2 -10 -10 -18 -20 -18h-87l-38 -274
c-1 -10 -11 -19 -20 -19h-70c-9 0 -16 9 -15 19z" />
    <glyph glyph-name="Thorn" unicode="&#xde;" horiz-adv-x="551" 
d="M58 19l93 662c2 10 10 19 20 19h69c9 0 16 -9 15 -19l-16 -108h122c95 1 173 -87 173 -193c0 -138 -101 -253 -235 -253h-122l-15 -108c-2 -10 -11 -19 -20 -19h-69c-10 0 -16 9 -15 19zM191 225h116c63 0 124 65 124 146c0 58 -38 103 -89 103h-116z" />
    <glyph glyph-name="Ugrave" unicode="&#xd9;" horiz-adv-x="669" 
d="M85 261l59 420c2 10 11 19 20 19h72c10 0 16 -9 14 -19l-58 -413c-14 -100 30 -177 116 -177c87 0 153 76 167 175l59 415c1 10 10 19 19 19h72c9 0 16 -9 14 -19l-59 -420c-21 -152 -131 -271 -286 -271c-132 0 -230 119 -209 271zM469 777l-140 70c-12 6 -12 16 -6 26
l26 41c6 9 15 9 24 3l131 -91c5 -3 8 -11 3 -19l-15 -26c-5 -8 -11 -10 -23 -4z" />
    <glyph glyph-name="Uacute" unicode="&#xda;" horiz-adv-x="669" 
d="M85 261l59 420c2 10 11 19 20 19h72c10 0 16 -9 14 -19l-58 -413c-14 -100 30 -177 116 -177c87 0 153 76 167 175l59 415c1 10 10 19 19 19h72c9 0 16 -9 14 -19l-59 -420c-21 -152 -131 -271 -286 -271c-132 0 -230 119 -209 271zM344 773c-11 -5 -19 -4 -22 6l-11 31
c-3 8 1 15 8 19l156 91c6 4 20 6 25 -7l17 -44c4 -10 2 -19 -9 -24z" />
    <glyph glyph-name="Ucircumflex" unicode="&#xdb;" horiz-adv-x="669" 
d="M85 261l59 420c2 10 11 19 20 19h72c10 0 16 -9 14 -19l-58 -413c-14 -100 30 -177 116 -177c87 0 153 76 167 175l59 415c1 10 10 19 19 19h72c9 0 16 -9 14 -19l-59 -420c-21 -152 -131 -271 -286 -271c-132 0 -230 119 -209 271zM313 772c-12 -8 -15 -5 -22 5l-14 20
c-7 11 -1 20 5 24l126 98c7 5 16 5 22 0l98 -98c5 -5 9 -12 2 -21l-18 -22c-7 -8 -12 -11 -23 -2l-77 60z" />
    <glyph glyph-name="Utilde" unicode="&#x168;" horiz-adv-x="669" 
d="M85 261l59 420c2 10 11 19 20 19h72c10 0 16 -9 14 -19l-58 -413c-14 -100 30 -177 116 -177c87 0 153 76 167 175l59 415c1 10 10 19 19 19h72c9 0 16 -9 14 -19l-59 -420c-21 -152 -131 -271 -286 -271c-132 0 -230 119 -209 271zM304 791l-26 15c-8 6 -7 16 -4 23
c8 18 44 84 98 84c52 0 60 -64 87 -64c21 0 33 24 42 40c6 11 16 15 25 9l19 -14c13 -10 9 -21 2 -32c-12 -22 -45 -75 -93 -75c-45 0 -64 65 -87 65c-21 0 -34 -28 -41 -41c-6 -11 -11 -17 -22 -10z" />
    <glyph glyph-name="Udieresis" unicode="&#xdc;" horiz-adv-x="669" 
d="M85 261l59 420c2 10 11 19 20 19h72c10 0 16 -9 14 -19l-58 -413c-14 -100 30 -177 116 -177c87 0 153 76 167 175l59 415c1 10 10 19 19 19h72c9 0 16 -9 14 -19l-59 -420c-21 -152 -131 -271 -286 -271c-132 0 -230 119 -209 271zM512 782c-27 0 -46 23 -46 50
c0 35 30 63 62 63c27 0 48 -22 48 -49c0 -35 -32 -64 -64 -64zM299 782c-27 0 -46 23 -46 50c0 35 30 63 62 63c27 0 48 -22 48 -49c0 -35 -32 -64 -64 -64z" />
    <glyph glyph-name="Umacron" unicode="&#x16a;" horiz-adv-x="669" 
d="M85 261l59 420c2 10 11 19 20 19h72c10 0 16 -9 14 -19l-58 -413c-14 -100 30 -177 116 -177c87 0 153 76 167 175l59 415c1 10 10 19 19 19h72c9 0 16 -9 14 -19l-59 -420c-21 -152 -131 -271 -286 -271c-132 0 -230 119 -209 271zM295 814c-10 0 -16 8 -15 18l4 28
c2 11 10 19 20 19h230c10 0 16 -8 15 -19l-4 -28c-1 -10 -10 -18 -20 -18h-230z" />
    <glyph glyph-name="Ubreve" unicode="&#x16c;" horiz-adv-x="669" 
d="M85 261l59 420c2 10 11 19 20 19h72c10 0 16 -9 14 -19l-58 -413c-14 -100 30 -177 116 -177c87 0 153 76 167 175l59 415c1 10 10 19 19 19h72c9 0 16 -9 14 -19l-59 -420c-21 -152 -131 -271 -286 -271c-132 0 -230 119 -209 271zM408 768c-62 0 -109 50 -109 116
c0 12 7 21 18 21h27c9 0 13 -7 14 -15c3 -35 25 -59 57 -59c30 0 57 27 70 59c4 9 9 15 18 15h33c11 0 16 -9 12 -21c-19 -66 -73 -116 -140 -116z" />
    <glyph glyph-name="Uring" unicode="&#x16e;" horiz-adv-x="669" 
d="M85 261l59 420c2 10 11 19 20 19h72c10 0 16 -9 14 -19l-58 -413c-14 -100 30 -177 116 -177c87 0 153 76 167 175l59 415c1 10 10 19 19 19h72c9 0 16 -9 14 -19l-59 -420c-21 -152 -131 -271 -286 -271c-132 0 -230 119 -209 271zM402 756c-48 0 -86 43 -86 96
c0 70 51 126 117 126c47 0 87 -43 87 -96c0 -70 -52 -126 -118 -126zM410 811c27 0 53 31 53 63c0 25 -15 46 -38 46c-27 0 -55 -27 -55 -60c0 -25 17 -49 40 -49z" />
    <glyph glyph-name="Uhungarumlaut" unicode="&#x170;" horiz-adv-x="669" 
d="M85 261l59 420c2 10 11 19 20 19h72c10 0 16 -9 14 -19l-58 -413c-14 -100 30 -177 116 -177c87 0 153 76 167 175l59 415c1 10 10 19 19 19h72c9 0 16 -9 14 -19l-59 -420c-21 -152 -131 -271 -286 -271c-132 0 -230 119 -209 271zM469 768c-13 0 -18 9 -14 19l57 141
c4 10 11 19 20 19h58c17 0 21 -12 13 -25l-90 -139c-5 -8 -11 -15 -19 -15h-25zM320 768c-13 0 -18 9 -14 19l57 141c4 10 11 19 20 19h58c17 0 21 -12 13 -25l-90 -139c-5 -8 -11 -15 -19 -15h-25z" />
    <glyph glyph-name="Uogonek" unicode="&#x172;" horiz-adv-x="671" 
d="M201 -130c0 58 34 100 59 123c-114 19 -193 130 -174 268l59 420c2 10 11 19 20 19h72c10 0 16 -9 14 -19l-58 -413c-14 -100 30 -177 116 -177c87 0 153 76 167 175l59 415c1 10 10 19 19 19h72c9 0 16 -9 14 -19l-59 -420c-20 -146 -122 -261 -267 -270
c-21 -21 -47 -55 -47 -98c0 -29 16 -51 50 -51c19 0 34 8 45 13c10 4 17 -3 15 -15l-4 -29c-1 -9 -8 -14 -15 -18c-5 -3 -34 -12 -62 -12c-53 0 -95 33 -95 89z" />
    <glyph glyph-name="Wacute" unicode="&#x1e82;" horiz-adv-x="822" 
d="M166 4l-75 672c-2 14 7 24 19 24h68c9 0 14 -7 15 -14l39 -439h4l211 452c3 7 9 11 17 11h16c6 0 13 -5 14 -11l80 -452h4l163 439c3 7 9 14 18 14h72c13 0 18 -10 13 -24l-265 -672c-3 -8 -10 -14 -18 -14h-14c-8 0 -13 5 -15 13l-89 468h-4l-227 -470
c-3 -7 -10 -11 -17 -11h-14c-8 0 -14 6 -15 14zM423 773c-11 -5 -19 -4 -22 6l-11 31c-3 8 1 15 8 19l156 91c6 4 20 6 25 -7l17 -44c4 -10 2 -19 -9 -24z" />
    <glyph glyph-name="Wcircumflex" unicode="&#x174;" horiz-adv-x="822" 
d="M166 4l-75 672c-2 14 7 24 19 24h68c9 0 14 -7 15 -14l39 -439h4l211 452c3 7 9 11 17 11h16c6 0 13 -5 14 -11l80 -452h4l163 439c3 7 9 14 18 14h72c13 0 18 -10 13 -24l-265 -672c-3 -8 -10 -14 -18 -14h-14c-8 0 -13 5 -15 13l-89 468h-4l-227 -470
c-3 -7 -10 -11 -17 -11h-14c-8 0 -14 6 -15 14zM393 772c-12 -8 -15 -5 -22 5l-14 20c-7 11 -1 20 5 24l126 98c7 5 16 5 22 0l98 -98c5 -5 9 -12 2 -21l-18 -22c-7 -8 -12 -11 -23 -2l-77 60z" />
    <glyph glyph-name="Wdieresis" unicode="&#x1e84;" horiz-adv-x="822" 
d="M166 4l-75 672c-2 14 7 24 19 24h68c9 0 14 -7 15 -14l39 -439h4l211 452c3 7 9 11 17 11h16c6 0 13 -5 14 -11l80 -452h4l163 439c3 7 9 14 18 14h72c13 0 18 -10 13 -24l-265 -672c-3 -8 -10 -14 -18 -14h-14c-8 0 -13 5 -15 13l-89 468h-4l-227 -470
c-3 -7 -10 -11 -17 -11h-14c-8 0 -14 6 -15 14zM590 782c-27 0 -46 23 -46 50c0 35 30 63 62 63c27 0 48 -22 48 -49c0 -35 -32 -64 -64 -64zM377 782c-27 0 -46 23 -46 50c0 35 30 63 62 63c27 0 48 -22 48 -49c0 -35 -32 -64 -64 -64z" />
    <glyph glyph-name="Wgrave" unicode="&#x1e80;" horiz-adv-x="822" 
d="M166 4l-75 672c-2 14 7 24 19 24h68c9 0 14 -7 15 -14l39 -439h4l211 452c3 7 9 11 17 11h16c6 0 13 -5 14 -11l80 -452h4l163 439c3 7 9 14 18 14h72c13 0 18 -10 13 -24l-265 -672c-3 -8 -10 -14 -18 -14h-14c-8 0 -13 5 -15 13l-89 468h-4l-227 -470
c-3 -7 -10 -11 -17 -11h-14c-8 0 -14 6 -15 14zM547 777l-140 70c-12 6 -12 16 -6 26l26 41c6 9 15 9 24 3l131 -91c5 -3 8 -11 3 -19l-15 -26c-5 -8 -11 -10 -23 -4z" />
    <glyph glyph-name="Yacute" unicode="&#xdd;" horiz-adv-x="525" 
d="M171 19l45 318l-162 337c-5 13 3 26 17 26h71c11 0 14 -4 17 -11l117 -254h2l192 254c5 6 10 11 20 11h79c15 0 18 -13 9 -26l-258 -336l-45 -319c-1 -10 -11 -19 -20 -19h-69c-10 0 -16 9 -15 19zM264 773c-11 -5 -19 -4 -22 6l-11 31c-3 8 1 15 8 19l156 91
c6 4 20 6 25 -7l17 -44c4 -10 2 -19 -9 -24z" />
    <glyph glyph-name="Ycircumflex" unicode="&#x176;" horiz-adv-x="525" 
d="M171 19l45 318l-162 337c-5 13 3 26 17 26h71c11 0 14 -4 17 -11l117 -254h2l192 254c5 6 10 11 20 11h79c15 0 18 -13 9 -26l-258 -336l-45 -319c-1 -10 -11 -19 -20 -19h-69c-10 0 -16 9 -15 19zM234 772c-12 -8 -15 -5 -22 5l-14 20c-7 11 -1 20 5 24l126 98
c7 5 16 5 22 0l98 -98c5 -5 9 -12 2 -21l-18 -22c-7 -8 -12 -11 -23 -2l-77 60z" />
    <glyph glyph-name="Ydieresis" unicode="&#x178;" horiz-adv-x="525" 
d="M171 19l45 318l-162 337c-5 13 3 26 17 26h71c11 0 14 -4 17 -11l117 -254h2l192 254c5 6 10 11 20 11h79c15 0 18 -13 9 -26l-258 -336l-45 -319c-1 -10 -11 -19 -20 -19h-69c-10 0 -16 9 -15 19zM431 782c-27 0 -46 23 -46 50c0 35 30 63 62 63c27 0 48 -22 48 -49
c0 -35 -32 -64 -64 -64zM218 782c-27 0 -46 23 -46 50c0 35 30 63 62 63c27 0 48 -22 48 -49c0 -35 -32 -64 -64 -64z" />
    <glyph glyph-name="Ygrave" unicode="&#x1ef2;" horiz-adv-x="525" 
d="M171 19l45 318l-162 337c-5 13 3 26 17 26h71c11 0 14 -4 17 -11l117 -254h2l192 254c5 6 10 11 20 11h79c15 0 18 -13 9 -26l-258 -336l-45 -319c-1 -10 -11 -19 -20 -19h-69c-10 0 -16 9 -15 19zM389 777l-140 70c-12 6 -12 16 -6 26l26 41c6 9 15 9 24 3l131 -91
c5 -3 8 -11 3 -19l-15 -26c-5 -8 -11 -10 -23 -4z" />
    <glyph glyph-name="Zacute" unicode="&#x179;" horiz-adv-x="497" 
d="M9 0c-9 0 -15 9 -14 19l2 18l365 564v3h-242c-9 0 -15 9 -14 19l8 58c1 10 11 19 20 19h372c9 0 16 -9 14 -19l-2 -13l-362 -570v-3h247c10 0 15 -9 14 -19l-8 -57c-1 -10 -10 -19 -20 -19h-380zM263 773c-11 -5 -19 -4 -22 6l-11 31c-3 8 1 15 8 19l156 91
c6 4 20 6 25 -7l17 -44c4 -10 2 -19 -9 -24z" />
    <glyph glyph-name="Zcaron" unicode="&#x17d;" horiz-adv-x="497" 
d="M9 0c-9 0 -15 9 -14 19l2 18l365 564v3h-242c-9 0 -15 9 -14 19l8 58c1 10 11 19 20 19h372c9 0 16 -9 14 -19l-2 -13l-362 -570v-3h247c10 0 15 -9 14 -19l-8 -57c-1 -10 -10 -19 -20 -19h-380zM314 769l-98 98c-5 5 -9 12 -2 21l18 22c7 8 12 11 23 2l77 -60l99 64
c12 8 15 5 22 -5l14 -20c7 -11 1 -20 -5 -24l-126 -98c-7 -5 -16 -5 -22 0z" />
    <glyph glyph-name="Zdotaccent" unicode="&#x17b;" horiz-adv-x="497" 
d="M9 0c-9 0 -15 9 -14 19l2 18l365 564v3h-242c-9 0 -15 9 -14 19l8 58c1 10 11 19 20 19h372c9 0 16 -9 14 -19l-2 -13l-362 -570v-3h247c10 0 15 -9 14 -19l-8 -57c-1 -10 -10 -19 -20 -19h-380zM332 788c-30 0 -52 25 -52 57c0 40 34 72 70 72c31 0 53 -25 53 -56
c0 -40 -34 -73 -71 -73z" />
    <glyph glyph-name="agrave" unicode="&#xe0;" 
d="M324 546l-140 70c-12 6 -12 16 -6 26l26 41c6 9 15 9 24 3l131 -91c5 -3 8 -11 3 -19l-15 -26c-5 -8 -11 -10 -23 -4zM407 381l-47 -362c-1 -10 -11 -19 -20 -19h-33c-7 0 -12 4 -13 14l-3 30c-7 -7 -57 -54 -123 -54c-84 0 -144 82 -144 183c0 125 91 237 201 237
c60 0 98 -39 106 -49l13 25c4 8 11 14 19 14h30c9 0 15 -9 14 -19zM284 138l17 140s-28 45 -80 45c-64 0 -102 -66 -102 -149c0 -56 27 -98 75 -98c50 0 86 54 90 62z" />
    <glyph glyph-name="aacute" unicode="&#xe1;" 
d="M193 543c-11 -5 -19 -4 -22 6l-11 31c-3 8 1 15 8 19l156 91c6 4 20 6 25 -7l17 -44c4 -10 2 -19 -9 -24zM407 381l-47 -362c-1 -10 -11 -19 -20 -19h-33c-7 0 -12 4 -13 14l-3 30c-7 -7 -57 -54 -123 -54c-84 0 -144 82 -144 183c0 125 91 237 201 237
c60 0 98 -39 106 -49l13 25c4 8 11 14 19 14h30c9 0 15 -9 14 -19zM284 138l17 140s-28 45 -80 45c-64 0 -102 -66 -102 -149c0 -56 27 -98 75 -98c50 0 86 54 90 62z" />
    <glyph glyph-name="acircumflex" unicode="&#xe2;" 
d="M163 539c-12 -8 -15 -5 -22 5l-14 20c-7 11 -1 20 5 24l126 98c7 5 16 5 22 0l98 -98c5 -5 9 -12 2 -21l-18 -22c-7 -8 -12 -11 -23 -2l-77 60zM407 381l-47 -362c-1 -10 -11 -19 -20 -19h-33c-7 0 -12 4 -13 14l-3 30c-7 -7 -57 -54 -123 -54c-84 0 -144 82 -144 183
c0 125 91 237 201 237c60 0 98 -39 106 -49l13 25c4 8 11 14 19 14h30c9 0 15 -9 14 -19zM284 138l17 140s-28 45 -80 45c-64 0 -102 -66 -102 -149c0 -56 27 -98 75 -98c50 0 86 54 90 62z" />
    <glyph glyph-name="atilde" unicode="&#xe3;" 
d="M155 568l-26 15c-8 6 -7 16 -4 23c8 18 44 84 98 84c52 0 60 -64 87 -64c21 0 33 24 42 40c6 11 16 15 25 9l19 -14c13 -10 9 -21 2 -32c-12 -22 -45 -75 -93 -75c-45 0 -64 65 -87 65c-21 0 -34 -28 -41 -41c-6 -11 -11 -17 -22 -10zM407 381l-47 -362
c-1 -10 -11 -19 -20 -19h-33c-7 0 -12 4 -13 14l-3 30c-7 -7 -57 -54 -123 -54c-84 0 -144 82 -144 183c0 125 91 237 201 237c60 0 98 -39 106 -49l13 25c4 8 11 14 19 14h30c9 0 15 -9 14 -19zM284 138l17 140s-28 45 -80 45c-64 0 -102 -66 -102 -149
c0 -56 27 -98 75 -98c50 0 86 54 90 62z" />
    <glyph glyph-name="adieresis" unicode="&#xe4;" 
d="M346 567c-28 0 -47 22 -47 49c0 36 30 64 62 64c28 0 48 -22 48 -50c0 -35 -30 -63 -63 -63zM167 567c-27 0 -47 22 -47 49c0 36 30 64 63 64c27 0 47 -22 47 -50c0 -35 -30 -63 -63 -63zM407 381l-47 -362c-1 -10 -11 -19 -20 -19h-33c-7 0 -12 4 -13 14l-3 30
c-7 -7 -57 -54 -123 -54c-84 0 -144 82 -144 183c0 125 91 237 201 237c60 0 98 -39 106 -49l13 25c4 8 11 14 19 14h30c9 0 15 -9 14 -19zM284 138l17 140s-28 45 -80 45c-64 0 -102 -66 -102 -149c0 -56 27 -98 75 -98c50 0 86 54 90 62z" />
    <glyph glyph-name="amacron" unicode="&#x101;" 
d="M142 576c-10 0 -16 8 -15 18l4 28c2 11 10 19 20 19h231c9 0 16 -8 14 -19l-4 -28c-1 -10 -10 -18 -20 -18h-230zM407 381l-47 -362c-1 -10 -11 -19 -20 -19h-33c-7 0 -12 4 -13 14l-3 30c-7 -7 -57 -54 -123 -54c-84 0 -144 82 -144 183c0 125 91 237 201 237
c60 0 98 -39 106 -49l13 25c4 8 11 14 19 14h30c9 0 15 -9 14 -19zM284 138l17 140s-28 45 -80 45c-64 0 -102 -66 -102 -149c0 -56 27 -98 75 -98c50 0 86 54 90 62z" />
    <glyph glyph-name="abreve" unicode="&#x103;" 
d="M258 529c-62 0 -109 50 -109 116c0 12 7 21 18 21h27c9 0 13 -7 14 -15c3 -35 25 -59 57 -59c30 0 57 27 70 59c4 9 9 15 18 15h33c11 0 16 -9 12 -21c-19 -66 -73 -116 -140 -116zM407 381l-47 -362c-1 -10 -11 -19 -20 -19h-33c-7 0 -12 4 -13 14l-3 30
c-7 -7 -57 -54 -123 -54c-84 0 -144 82 -144 183c0 125 91 237 201 237c60 0 98 -39 106 -49l13 25c4 8 11 14 19 14h30c9 0 15 -9 14 -19zM284 138l17 140s-28 45 -80 45c-64 0 -102 -66 -102 -149c0 -56 27 -98 75 -98c50 0 86 54 90 62z" />
    <glyph glyph-name="aring" unicode="&#xe5;" 
d="M245 488c-48 0 -86 43 -86 96c0 70 51 126 117 126c47 0 87 -43 87 -96c0 -70 -52 -126 -118 -126zM253 543c27 0 53 31 53 63c0 25 -15 46 -38 46c-27 0 -55 -27 -55 -60c0 -25 17 -49 40 -49zM407 381l-47 -362c-1 -10 -11 -19 -20 -19h-33c-7 0 -12 4 -13 14l-3 30
c-7 -7 -57 -54 -123 -54c-84 0 -144 82 -144 183c0 125 91 237 201 237c60 0 98 -39 106 -49l13 25c4 8 11 14 19 14h30c9 0 15 -9 14 -19zM284 138l17 140s-28 45 -80 45c-64 0 -102 -66 -102 -149c0 -56 27 -98 75 -98c50 0 86 54 90 62z" />
    <glyph glyph-name="aringacute" unicode="&#x1fb;" 
d="M242 430c-48 0 -86 43 -86 96c0 70 51 126 117 126c47 0 87 -43 87 -96c0 -70 -52 -126 -118 -126zM250 485c27 0 53 31 53 63c0 25 -15 46 -38 46c-27 0 -55 -27 -55 -60c0 -25 17 -49 40 -49zM214 663c-11 -5 -19 -4 -22 6l-11 31c-3 8 1 15 8 19l156 91
c6 4 20 6 25 -7l17 -44c4 -10 2 -19 -9 -24zM407 381l-47 -362c-1 -10 -11 -19 -20 -19h-33c-7 0 -12 4 -13 14l-3 30c-7 -7 -57 -54 -123 -54c-84 0 -144 82 -144 183c0 125 91 237 201 237c60 0 98 -39 106 -49l13 25c4 8 11 14 19 14h30c9 0 15 -9 14 -19zM284 138
l17 140s-28 45 -80 45c-64 0 -102 -66 -102 -149c0 -56 27 -98 75 -98c50 0 86 54 90 62z" />
    <glyph glyph-name="aogonek" unicode="&#x105;" 
d="M407 381l-47 -362c-1 -10 -11 -19 -20 -19h-2c-20 -18 -57 -57 -57 -107c0 -29 16 -51 50 -51c19 0 34 8 45 13c10 4 17 -3 15 -15l-4 -29c-1 -9 -8 -14 -15 -18c-5 -3 -34 -12 -62 -12c-53 0 -95 33 -95 89c0 79 65 130 79 140l-3 34c-7 -7 -57 -54 -123 -54
c-84 0 -144 82 -144 183c0 125 91 237 201 237c60 0 98 -39 106 -49l13 25c4 8 11 14 19 14h30c9 0 15 -9 14 -19zM284 138l17 140s-28 45 -80 45c-64 0 -102 -66 -102 -149c0 -56 27 -98 75 -98c50 0 86 54 90 62z" />
    <glyph glyph-name="ae" unicode="&#xe6;" horiz-adv-x="610" 
d="M8 103c0 88 63 150 158 150c40 0 72 -6 72 -6c7 63 3 85 -38 85s-85 -14 -106 -20c-9 -2 -18 5 -18 15l-1 42c0 10 8 17 17 20c0 0 67 21 126 21c58 0 80 -25 94 -55c34 33 81 55 134 55c75 0 134 -40 134 -114c0 -114 -160 -131 -265 -119c-5 -54 22 -103 78 -103
c30 0 62 15 81 28c11 7 17 10 24 1l27 -37c6 -8 7 -17 -5 -26c-31 -25 -81 -50 -141 -50c-54 0 -96 25 -123 64c-23 -28 -70 -64 -137 -64c-64 0 -111 45 -111 113zM330 244c56 -5 160 -11 160 47c0 26 -26 42 -54 42c-55 0 -94 -39 -106 -89zM96 116c0 -35 22 -53 48 -53
c40 0 68 34 75 46l10 75s-23 7 -60 7s-73 -28 -73 -75z" />
    <glyph glyph-name="aeacute" unicode="&#x1fd;" horiz-adv-x="610" 
d="M8 103c0 88 63 150 158 150c40 0 72 -6 72 -6c7 63 3 85 -38 85s-85 -14 -106 -20c-9 -2 -18 5 -18 15l-1 42c0 10 8 17 17 20c0 0 67 21 126 21c58 0 80 -25 94 -55c34 33 81 55 134 55c75 0 134 -40 134 -114c0 -114 -160 -131 -265 -119c-5 -54 22 -103 78 -103
c30 0 62 15 81 28c11 7 17 10 24 1l27 -37c6 -8 7 -17 -5 -26c-31 -25 -81 -50 -141 -50c-54 0 -96 25 -123 64c-23 -28 -70 -64 -137 -64c-64 0 -111 45 -111 113zM330 244c56 -5 160 -11 160 47c0 26 -26 42 -54 42c-55 0 -94 -39 -106 -89zM96 116c0 -35 22 -53 48 -53
c40 0 68 34 75 46l10 75s-23 7 -60 7s-73 -28 -73 -75zM322 543c-11 -5 -19 -4 -22 6l-11 31c-3 8 1 15 8 19l156 91c6 4 20 6 25 -7l17 -44c4 -10 2 -19 -9 -24z" />
    <glyph glyph-name="cacute" unicode="&#x107;" horiz-adv-x="403" 
d="M24 171c0 134 105 239 222 239c55 0 99 -30 122 -71c5 -9 2 -21 -7 -28l-36 -25c-12 -8 -18 -3 -23 4c-15 19 -35 33 -63 33c-60 0 -119 -68 -119 -146c0 -58 28 -101 76 -101c42 0 65 31 82 52c8 9 16 8 23 2l36 -28c9 -7 10 -18 2 -28c-37 -50 -89 -84 -152 -84
c-90 0 -163 78 -163 181zM205 543c-11 -5 -19 -4 -22 6l-11 31c-3 8 1 15 8 19l156 91c6 4 20 6 25 -7l17 -44c4 -10 2 -19 -9 -24z" />
    <glyph glyph-name="ccircumflex" unicode="&#x109;" horiz-adv-x="403" 
d="M24 171c0 134 105 239 222 239c55 0 99 -30 122 -71c5 -9 2 -21 -7 -28l-36 -25c-12 -8 -18 -3 -23 4c-15 19 -35 33 -63 33c-60 0 -119 -68 -119 -146c0 -58 28 -101 76 -101c42 0 65 31 82 52c8 9 16 8 23 2l36 -28c9 -7 10 -18 2 -28c-37 -50 -89 -84 -152 -84
c-90 0 -163 78 -163 181zM175 539c-12 -8 -15 -5 -22 5l-14 20c-7 11 -1 20 5 24l126 98c7 5 16 5 22 0l98 -98c5 -5 9 -12 2 -21l-18 -22c-7 -8 -12 -11 -23 -2l-77 60z" />
    <glyph glyph-name="ccaron" unicode="&#x10d;" horiz-adv-x="403" 
d="M24 171c0 134 105 239 222 239c55 0 99 -30 122 -71c5 -9 2 -21 -7 -28l-36 -25c-12 -8 -18 -3 -23 4c-15 19 -35 33 -63 33c-60 0 -119 -68 -119 -146c0 -58 28 -101 76 -101c42 0 65 31 82 52c8 9 16 8 23 2l36 -28c9 -7 10 -18 2 -28c-37 -50 -89 -84 -152 -84
c-90 0 -163 78 -163 181zM257 536l-98 98c-5 5 -9 12 -2 21l18 22c7 8 12 11 23 2l77 -60l99 64c12 8 15 5 22 -5l14 -20c7 -11 1 -20 -5 -24l-126 -98c-7 -5 -16 -5 -22 0z" />
    <glyph glyph-name="cdotaccent" unicode="&#x10b;" horiz-adv-x="403" 
d="M24 171c0 134 105 239 222 239c55 0 99 -30 122 -71c5 -9 2 -21 -7 -28l-36 -25c-12 -8 -18 -3 -23 4c-15 19 -35 33 -63 33c-60 0 -119 -68 -119 -146c0 -58 28 -101 76 -101c42 0 65 31 82 52c8 9 16 8 23 2l36 -28c9 -7 10 -18 2 -28c-37 -50 -89 -84 -152 -84
c-90 0 -163 78 -163 181zM266 551c-30 0 -52 26 -52 56c0 40 34 73 70 73c31 0 53 -25 53 -57c0 -39 -34 -72 -71 -72z" />
    <glyph glyph-name="ccedilla" unicode="&#xe7;" horiz-adv-x="403" 
d="M135 -1c-65 23 -111 90 -111 172c0 134 105 239 222 239c55 0 99 -30 122 -71c5 -9 2 -21 -7 -28l-36 -25c-12 -8 -18 -3 -23 4c-15 19 -35 33 -63 33c-60 0 -119 -68 -119 -146c0 -58 28 -101 76 -101c42 0 65 31 82 52c8 9 16 8 23 2l36 -28c9 -7 10 -18 2 -28
c-37 -50 -88 -83 -150 -84l-5 -45c46 -10 76 -40 76 -92c0 -60 -42 -113 -107 -113c-26 0 -54 16 -66 35c-6 9 -6 17 2 25l16 15c6 6 13 6 20 -1c8 -8 16 -14 31 -14c22 0 41 22 41 49c0 30 -23 44 -61 49c-13 3 -14 14 -13 19z" />
    <glyph glyph-name="dcaron" unicode="&#x10f;" horiz-adv-x="490" 
d="M168 -10c-84 0 -144 81 -144 178c0 137 97 242 213 242c39 0 69 -17 79 -23l41 294c2 13 14 19 24 19h57c9 0 16 -9 15 -19l-93 -662c-2 -10 -11 -19 -20 -19h-30c-7 0 -11 4 -13 14l-6 30c-7 -7 -57 -54 -123 -54zM194 76c50 0 86 54 90 62l21 162s-25 23 -71 23
c-63 0 -115 -65 -115 -144c0 -56 27 -103 75 -103zM534 427l-11 15c-5 6 -3 16 5 23c10 9 68 53 78 124c-1 -1 -11 -3 -22 -3c-29 0 -50 25 -50 54c0 38 32 70 70 70c27 0 59 -18 59 -77c0 -101 -76 -176 -107 -205c-9 -8 -16 -8 -22 -1z" />
    <glyph glyph-name="dcroat" unicode="&#x111;" 
d="M168 -10c-84 0 -144 81 -144 178c0 137 97 242 213 242c39 0 69 -17 79 -23l20 147h-114c-10 0 -17 8 -15 18l2 11c2 10 9 19 19 19h115l14 99c2 13 14 19 24 19h57c9 0 16 -9 15 -19l-14 -99h30c9 0 16 -9 14 -19l-2 -10c-2 -10 -10 -19 -19 -19h-30l-72 -515
c-2 -10 -11 -19 -20 -19h-30c-7 0 -11 4 -13 14l-6 30c-7 -7 -57 -54 -123 -54zM194 76c50 0 86 54 90 62l21 162s-25 23 -71 23c-63 0 -115 -65 -115 -144c0 -56 27 -103 75 -103z" />
    <glyph glyph-name="eth" unicode="&#xf0;" horiz-adv-x="497" 
d="M26 189c0 155 116 247 220 247c51 0 96 -28 107 -37c-6 62 -41 114 -80 152l-84 -51c-9 -5 -18 -2 -22 6l-4 9c-3 8 -2 19 10 26l63 40c-27 23 -49 35 -62 41c-14 6 -16 15 -10 27l24 43c5 10 14 14 24 10c26 -11 69 -34 115 -72l67 40c10 5 17 0 22 -8l5 -9
c6 -10 -1 -20 -10 -25l-51 -31c52 -57 96 -150 96 -266c0 -184 -92 -341 -257 -341c-96 0 -173 90 -173 199zM211 80c88 0 137 114 144 198c-4 18 -37 76 -104 76c-69 0 -134 -70 -134 -156c0 -64 39 -118 94 -118z" />
    <glyph glyph-name="egrave" unicode="&#xe8;" horiz-adv-x="412" 
d="M24 169c0 127 89 241 223 241c75 0 134 -40 134 -114c0 -114 -160 -131 -265 -119c-5 -54 22 -103 78 -103c30 0 62 15 81 28c11 7 17 10 24 1l27 -37c6 -8 7 -17 -5 -26c-31 -25 -81 -50 -141 -50c-97 0 -156 81 -156 179zM131 244c56 -5 160 -11 160 47
c0 26 -26 42 -54 42c-55 0 -94 -39 -106 -89zM329 546l-140 70c-12 6 -12 16 -6 26l26 41c6 9 15 9 24 3l131 -91c5 -3 8 -11 3 -19l-15 -26c-5 -8 -11 -10 -23 -4z" />
    <glyph glyph-name="eacute" unicode="&#xe9;" horiz-adv-x="412" 
d="M24 169c0 127 89 241 223 241c75 0 134 -40 134 -114c0 -114 -160 -131 -265 -119c-5 -54 22 -103 78 -103c30 0 62 15 81 28c11 7 17 10 24 1l27 -37c6 -8 7 -17 -5 -26c-31 -25 -81 -50 -141 -50c-97 0 -156 81 -156 179zM131 244c56 -5 160 -11 160 47
c0 26 -26 42 -54 42c-55 0 -94 -39 -106 -89zM205 543c-11 -5 -19 -4 -22 6l-11 31c-3 8 1 15 8 19l156 91c6 4 20 6 25 -7l17 -44c4 -10 2 -19 -9 -24z" />
    <glyph glyph-name="ecircumflex" unicode="&#xea;" horiz-adv-x="412" 
d="M24 169c0 127 89 241 223 241c75 0 134 -40 134 -114c0 -114 -160 -131 -265 -119c-5 -54 22 -103 78 -103c30 0 62 15 81 28c11 7 17 10 24 1l27 -37c6 -8 7 -17 -5 -26c-31 -25 -81 -50 -141 -50c-97 0 -156 81 -156 179zM131 244c56 -5 160 -11 160 47
c0 26 -26 42 -54 42c-55 0 -94 -39 -106 -89zM174 539c-12 -8 -15 -5 -22 5l-14 20c-7 11 -1 20 5 24l126 98c7 5 16 5 22 0l98 -98c5 -5 9 -12 2 -21l-18 -22c-7 -8 -12 -11 -23 -2l-77 60z" />
    <glyph glyph-name="ecaron" unicode="&#x11b;" horiz-adv-x="412" 
d="M24 169c0 127 89 241 223 241c75 0 134 -40 134 -114c0 -114 -160 -131 -265 -119c-5 -54 22 -103 78 -103c30 0 62 15 81 28c11 7 17 10 24 1l27 -37c6 -8 7 -17 -5 -26c-31 -25 -81 -50 -141 -50c-97 0 -156 81 -156 179zM131 244c56 -5 160 -11 160 47
c0 26 -26 42 -54 42c-55 0 -94 -39 -106 -89zM256 536l-98 98c-5 5 -9 12 -2 21l18 22c7 8 12 11 23 2l77 -60l99 64c12 8 15 5 22 -5l14 -20c7 -11 1 -20 -5 -24l-126 -98c-7 -5 -16 -5 -22 0z" />
    <glyph glyph-name="edieresis" unicode="&#xeb;" horiz-adv-x="412" 
d="M24 169c0 127 89 241 223 241c75 0 134 -40 134 -114c0 -114 -160 -131 -265 -119c-5 -54 22 -103 78 -103c30 0 62 15 81 28c11 7 17 10 24 1l27 -37c6 -8 7 -17 -5 -26c-31 -25 -81 -50 -141 -50c-97 0 -156 81 -156 179zM131 244c56 -5 160 -11 160 47
c0 26 -26 42 -54 42c-55 0 -94 -39 -106 -89zM358 567c-28 0 -47 22 -47 49c0 36 30 64 62 64c28 0 48 -22 48 -50c0 -35 -30 -63 -63 -63zM179 567c-27 0 -47 22 -47 49c0 36 30 64 63 64c27 0 47 -22 47 -50c0 -35 -30 -63 -63 -63z" />
    <glyph glyph-name="emacron" unicode="&#x113;" horiz-adv-x="412" 
d="M24 169c0 127 89 241 223 241c75 0 134 -40 134 -114c0 -114 -160 -131 -265 -119c-5 -54 22 -103 78 -103c30 0 62 15 81 28c11 7 17 10 24 1l27 -37c6 -8 7 -17 -5 -26c-31 -25 -81 -50 -141 -50c-97 0 -156 81 -156 179zM131 244c56 -5 160 -11 160 47
c0 26 -26 42 -54 42c-55 0 -94 -39 -106 -89zM154 576c-10 0 -16 8 -15 18l4 28c2 11 10 19 20 19h231c9 0 16 -8 14 -19l-4 -28c-1 -10 -10 -18 -20 -18h-230z" />
    <glyph glyph-name="ebreve" unicode="&#x115;" horiz-adv-x="412" 
d="M24 169c0 127 89 241 223 241c75 0 134 -40 134 -114c0 -114 -160 -131 -265 -119c-5 -54 22 -103 78 -103c30 0 62 15 81 28c11 7 17 10 24 1l27 -37c6 -8 7 -17 -5 -26c-31 -25 -81 -50 -141 -50c-97 0 -156 81 -156 179zM131 244c56 -5 160 -11 160 47
c0 26 -26 42 -54 42c-55 0 -94 -39 -106 -89zM269 529c-62 0 -109 50 -109 116c0 12 7 21 18 21h27c9 0 13 -7 14 -15c3 -35 25 -59 57 -59c30 0 57 27 70 59c4 9 9 15 18 15h33c11 0 16 -9 12 -21c-19 -66 -73 -116 -140 -116z" />
    <glyph glyph-name="edotaccent" unicode="&#x117;" horiz-adv-x="412" 
d="M24 169c0 127 89 241 223 241c75 0 134 -40 134 -114c0 -114 -160 -131 -265 -119c-5 -54 22 -103 78 -103c30 0 62 15 81 28c11 7 17 10 24 1l27 -37c6 -8 7 -17 -5 -26c-31 -25 -81 -50 -141 -50c-97 0 -156 81 -156 179zM131 244c56 -5 160 -11 160 47
c0 26 -26 42 -54 42c-55 0 -94 -39 -106 -89zM266 551c-30 0 -52 26 -52 56c0 40 34 73 70 73c31 0 53 -25 53 -57c0 -39 -34 -72 -71 -72z" />
    <glyph glyph-name="eogonek" unicode="&#x119;" horiz-adv-x="413" 
d="M153 -7c-80 13 -128 87 -128 176c0 127 89 241 223 241c75 0 134 -40 134 -114c0 -114 -160 -131 -265 -119c-5 -54 22 -104 78 -104c30 0 62 16 81 29c11 7 17 10 24 1l27 -37c6 -8 7 -17 -5 -26c-26 -21 -65 -42 -113 -48c-21 -21 -48 -56 -48 -99c0 -29 16 -51 50 -51
c19 0 34 8 45 13c10 4 17 -3 15 -15l-4 -29c-1 -9 -8 -14 -15 -18c-5 -3 -34 -12 -62 -12c-53 0 -95 33 -95 89c0 57 34 100 58 123zM132 244c56 -5 160 -11 160 47c0 26 -26 42 -54 42c-55 0 -94 -39 -106 -89z" />
    <glyph glyph-name="gcircumflex" unicode="&#x11d;" horiz-adv-x="460" 
d="M172 -10c-87 0 -149 86 -149 184c0 124 90 236 204 236c60 0 98 -39 106 -49l13 25c4 8 11 14 19 14h30c9 0 15 -9 14 -19l-57 -419c-23 -169 -103 -222 -195 -222c-98 0 -140 69 -145 78c-5 8 -11 21 3 33l32 29c6 5 15 9 25 -2s38 -50 82 -50c56 0 84 31 100 134l7 49
c-9 -6 -47 -21 -89 -21zM195 76c47 0 80 28 80 28l24 167c-2 8 -24 52 -73 52c-64 0 -111 -68 -111 -143c0 -57 32 -104 80 -104zM168 539c-12 -8 -15 -5 -22 5l-14 20c-7 11 -1 20 5 24l126 98c7 5 16 5 22 0l98 -98c5 -5 9 -12 2 -21l-18 -22c-7 -8 -12 -11 -23 -2l-77 60
z" />
    <glyph glyph-name="gbreve" unicode="&#x11f;" horiz-adv-x="460" 
d="M172 -10c-87 0 -149 86 -149 184c0 124 90 236 204 236c60 0 98 -39 106 -49l13 25c4 8 11 14 19 14h30c9 0 15 -9 14 -19l-57 -419c-23 -169 -103 -222 -195 -222c-98 0 -140 69 -145 78c-5 8 -11 21 3 33l32 29c6 5 15 9 25 -2s38 -50 82 -50c56 0 84 31 100 134l7 49
c-9 -6 -47 -21 -89 -21zM195 76c47 0 80 28 80 28l24 167c-2 8 -24 52 -73 52c-64 0 -111 -68 -111 -143c0 -57 32 -104 80 -104zM264 529c-62 0 -109 50 -109 116c0 12 7 21 18 21h27c9 0 13 -7 14 -15c3 -35 25 -59 57 -59c30 0 57 27 70 59c4 9 9 15 18 15h33
c11 0 16 -9 12 -21c-19 -66 -73 -116 -140 -116z" />
    <glyph glyph-name="gdotaccent" unicode="&#x121;" horiz-adv-x="460" 
d="M172 -10c-87 0 -149 86 -149 184c0 124 90 236 204 236c60 0 98 -39 106 -49l13 25c4 8 11 14 19 14h30c9 0 15 -9 14 -19l-57 -419c-23 -169 -103 -222 -195 -222c-98 0 -140 69 -145 78c-5 8 -11 21 3 33l32 29c6 5 15 9 25 -2s38 -50 82 -50c56 0 84 31 100 134l7 49
c-9 -6 -47 -21 -89 -21zM195 76c47 0 80 28 80 28l24 167c-2 8 -24 52 -73 52c-64 0 -111 -68 -111 -143c0 -57 32 -104 80 -104zM258 551c-30 0 -52 26 -52 56c0 40 34 73 70 73c31 0 53 -25 53 -57c0 -39 -34 -72 -71 -72z" />
    <glyph glyph-name="gcommaaccent" unicode="&#x123;" horiz-adv-x="460" 
d="M263 529c-27 0 -59 18 -59 77c0 101 76 176 107 205c9 8 16 8 22 1l11 -15c5 -6 3 -16 -5 -23c-10 -9 -68 -53 -78 -124c1 1 11 3 22 3c29 0 50 -25 50 -54c0 -38 -32 -70 -70 -70zM172 -10c-87 0 -149 86 -149 184c0 124 90 236 204 236c60 0 98 -39 106 -49l13 25
c4 8 11 14 19 14h30c9 0 15 -9 14 -19l-57 -419c-23 -169 -103 -222 -195 -222c-98 0 -140 69 -145 78c-5 8 -11 21 3 33l32 29c6 5 15 9 25 -2s38 -50 82 -50c56 0 84 31 100 134l7 49c-9 -6 -47 -21 -89 -21zM195 76c47 0 80 28 80 28l24 167c-2 8 -24 52 -73 52
c-64 0 -111 -68 -111 -143c0 -57 32 -104 80 -104z" />
    <glyph glyph-name="hcircumflex" unicode="&#x125;" horiz-adv-x="477" 
d="M28 19l93 662c1 10 10 19 19 19h63c9 0 16 -9 14 -19l-44 -314c14 11 58 43 109 43c104 0 143 -81 128 -190l-28 -201c-1 -10 -11 -19 -20 -19h-60c-10 0 -15 9 -14 19l28 201c9 65 -13 102 -58 102c-49 0 -90 -47 -100 -64l-34 -239c-2 -11 -8 -19 -21 -19h-61
c-9 0 -15 9 -14 19zM86 756c-12 -8 -15 -5 -22 5l-14 20c-7 11 -1 20 5 24l126 98c7 5 16 5 22 0l98 -98c5 -5 9 -12 2 -21l-18 -22c-7 -8 -12 -11 -23 -2l-77 60z" />
    <glyph glyph-name="hbar" unicode="&#x127;" horiz-adv-x="477" 
d="M28 19l72 515h-29c-9 0 -14 9 -13 19l1 10c2 10 10 19 19 19h29l14 99c1 10 10 19 19 19h63c9 0 16 -9 14 -19l-14 -99h116c9 0 15 -9 14 -19l-2 -11c-1 -10 -9 -18 -19 -18h-116l-23 -167c14 11 58 43 109 43c104 0 143 -81 128 -190l-28 -201c-1 -10 -11 -19 -20 -19
h-60c-10 0 -15 9 -14 19l28 201c9 65 -13 102 -58 102c-49 0 -90 -47 -100 -64l-34 -239c-2 -11 -8 -19 -21 -19h-61c-9 0 -15 9 -14 19z" />
    <glyph glyph-name="dotlessi" unicode="&#x131;" horiz-adv-x="224" 
d="M28 19l50 362c2 10 11 19 20 19h61c9 0 16 -9 15 -19l-51 -362c-1 -10 -11 -19 -20 -19h-61c-9 0 -16 9 -14 19z" />
    <glyph glyph-name="igrave" unicode="&#xec;" horiz-adv-x="224" 
d="M28 19l50 362c2 10 11 19 20 19h61c9 0 16 -9 15 -19l-51 -362c-1 -10 -11 -19 -20 -19h-61c-9 0 -16 9 -14 19zM212 546l-140 70c-12 6 -12 16 -6 26l26 41c6 9 15 9 24 3l131 -91c5 -3 8 -11 3 -19l-15 -26c-5 -8 -11 -10 -23 -4z" />
    <glyph glyph-name="iacute" unicode="&#xed;" horiz-adv-x="224" 
d="M87 543c-11 -5 -19 -4 -22 6l-11 31c-3 8 1 15 8 19l156 91c6 4 20 6 25 -7l17 -44c4 -10 2 -19 -9 -24zM28 19l50 362c2 10 11 19 20 19h61c9 0 16 -9 15 -19l-51 -362c-1 -10 -11 -19 -20 -19h-61c-9 0 -16 9 -14 19z" />
    <glyph glyph-name="ibreve" unicode="&#x12d;" horiz-adv-x="224" 
d="M153 529c-62 0 -109 50 -109 116c0 12 7 21 18 21h27c9 0 13 -7 14 -15c3 -35 25 -59 57 -59c30 0 57 27 70 59c4 9 9 15 18 15h33c11 0 16 -9 12 -21c-19 -66 -73 -116 -140 -116zM28 19l50 362c2 10 11 19 20 19h61c9 0 16 -9 15 -19l-51 -362c-1 -10 -11 -19 -20 -19
h-61c-9 0 -16 9 -14 19z" />
    <glyph glyph-name="icircumflex" unicode="&#xee;" horiz-adv-x="224" 
d="M28 19l50 362c2 10 11 19 20 19h61c9 0 16 -9 15 -19l-51 -362c-1 -10 -11 -19 -20 -19h-61c-9 0 -16 9 -14 19zM56 539c-12 -8 -15 -5 -22 5l-14 20c-7 11 -1 20 5 24l126 98c7 5 16 5 22 0l98 -98c5 -5 9 -12 2 -21l-18 -22c-7 -8 -12 -11 -23 -2l-77 60z" />
    <glyph glyph-name="itilde" unicode="&#x129;" horiz-adv-x="224" 
d="M48 568l-26 15c-8 6 -7 16 -4 23c8 18 44 84 98 84c52 0 60 -64 87 -64c21 0 33 24 42 40c6 11 16 15 25 9l19 -14c13 -10 9 -21 2 -32c-12 -22 -45 -75 -93 -75c-45 0 -64 65 -87 65c-21 0 -34 -28 -41 -41c-6 -11 -11 -17 -22 -10zM28 19l50 362c2 10 11 19 20 19h61
c9 0 16 -9 15 -19l-51 -362c-1 -10 -11 -19 -20 -19h-61c-9 0 -16 9 -14 19z" />
    <glyph glyph-name="idieresis" unicode="&#xef;" horiz-adv-x="224" 
d="M241 567c-28 0 -47 22 -47 49c0 36 30 64 62 64c28 0 48 -22 48 -50c0 -35 -30 -63 -63 -63zM62 567c-27 0 -47 22 -47 49c0 36 30 64 63 64c27 0 47 -22 47 -50c0 -35 -30 -63 -63 -63zM28 19l50 362c2 10 11 19 20 19h61c9 0 16 -9 15 -19l-51 -362
c-1 -10 -11 -19 -20 -19h-61c-9 0 -16 9 -14 19z" />
    <glyph glyph-name="imacron" unicode="&#x12b;" horiz-adv-x="224" 
d="M35 576c-10 0 -16 8 -15 18l4 28c2 11 10 19 20 19h231c9 0 16 -8 14 -19l-4 -28c-1 -10 -10 -18 -20 -18h-230zM28 19l50 362c2 10 11 19 20 19h61c9 0 16 -9 15 -19l-51 -362c-1 -10 -11 -19 -20 -19h-61c-9 0 -16 9 -14 19z" />
    <glyph glyph-name="iogonek" unicode="&#x12f;" horiz-adv-x="224" 
d="M150 563c-28 0 -47 23 -47 51c0 36 30 66 64 66c29 0 50 -23 50 -52c0 -36 -32 -65 -67 -65zM28 19l50 362c1 10 11 19 20 19h62c9 0 15 -9 14 -19l-51 -362c-1 -10 -11 -19 -20 -19h-15c-20 -18 -57 -57 -57 -107c0 -29 16 -51 50 -51c19 0 34 8 45 13
c10 4 17 -3 15 -15l-4 -29c-1 -9 -8 -14 -15 -18c-5 -3 -34 -12 -62 -12c-53 0 -95 33 -95 89c0 67 46 114 70 132c-5 3 -8 10 -7 17z" />
    <glyph glyph-name="dotlessj" unicode="&#x237;" horiz-adv-x="225" 
d="M8 -124l71 505c1 11 11 19 20 19h62c9 0 16 -8 15 -19l-71 -505c-17 -124 -87 -186 -182 -186c-51 0 -88 24 -103 40c-5 5 -5 16 0 23l25 37c6 9 17 11 25 5c10 -8 32 -18 56 -18c40 0 72 31 82 99z" />
    <glyph glyph-name="jcircumflex" unicode="&#x135;" horiz-adv-x="225" 
d="M8 -124l71 505c1 11 11 19 20 19h62c9 0 16 -8 15 -19l-71 -505c-17 -124 -87 -186 -182 -186c-51 0 -88 24 -103 40c-5 5 -5 16 0 23l25 37c6 9 17 11 25 5c10 -8 32 -18 56 -18c40 0 72 31 82 99zM61 539c-12 -8 -15 -5 -22 5l-14 20c-7 11 -1 20 5 24l126 98
c7 5 16 5 22 0l98 -98c5 -5 9 -12 2 -21l-18 -22c-7 -8 -12 -11 -23 -2l-77 60z" />
    <glyph glyph-name="kcommaaccent" unicode="&#x137;" horiz-adv-x="440" 
d="M28 19l93 662c1 10 10 19 19 19h63c9 0 15 -9 14 -19l-60 -433l145 140c7 6 16 12 26 12h79c15 0 16 -18 7 -27l-169 -158l145 -189c7 -9 1 -26 -14 -26h-77c-8 0 -12 4 -15 8l-135 186l-25 -175c-1 -10 -10 -19 -19 -19h-63c-9 0 -15 9 -14 19zM120 -162
c0 38 32 70 70 70c27 0 59 -18 59 -77c0 -101 -76 -176 -107 -205c-9 -8 -16 -8 -22 -1l-11 15c-5 6 -3 16 5 23c10 9 68 53 78 124c-1 -1 -11 -3 -22 -3c-29 0 -50 25 -50 54z" />
    <glyph glyph-name="kgreenlandic" unicode="&#x138;" horiz-adv-x="432" 
d="M27 19l51 362c1 10 11 19 20 19h62c9 0 15 -9 14 -19l-23 -163l155 170c7 7 15 12 25 12h75c15 0 15 -19 6 -27l-177 -182l142 -165c7 -9 1 -26 -14 -26h-76c-6 0 -11 4 -14 8l-130 156l-20 -145c-1 -10 -11 -19 -20 -19h-62c-9 0 -15 9 -14 19z" />
    <glyph glyph-name="lacute" unicode="&#x13a;" horiz-adv-x="223" 
d="M28 19l93 662c1 10 11 19 20 19h61c9 0 15 -9 14 -19l-93 -662c-1 -10 -10 -19 -19 -19h-62c-9 0 -15 9 -14 19zM116 760c-11 -5 -19 -4 -22 6l-11 31c-3 8 1 15 8 19l156 91c6 4 20 6 25 -7l17 -44c4 -10 2 -19 -9 -24z" />
    <glyph glyph-name="lcaron" unicode="&#x13e;" horiz-adv-x="253" 
d="M28 19l93 662c1 10 11 19 20 19h61c9 0 15 -9 14 -19l-93 -662c-1 -10 -10 -19 -19 -19h-62c-9 0 -15 9 -14 19zM298 427l-11 15c-5 6 -3 16 5 23c10 9 68 53 78 124c-1 -1 -11 -3 -22 -3c-29 0 -50 25 -50 54c0 38 32 70 70 70c27 0 59 -18 59 -77
c0 -101 -76 -176 -107 -205c-9 -8 -16 -8 -22 -1z" />
    <glyph glyph-name="lcommaaccent" unicode="&#x13c;" horiz-adv-x="223" 
d="M27 19l93 662c1 10 11 19 20 19h61c9 0 15 -9 14 -19l-93 -662c-1 -10 -10 -19 -19 -19h-62c-9 0 -15 9 -14 19zM-19 -162c0 38 32 70 70 70c27 0 59 -18 59 -77c0 -101 -76 -176 -107 -205c-9 -8 -16 -8 -22 -1l-11 15c-5 6 -3 16 5 23c10 9 68 53 78 124
c-1 -1 -11 -3 -22 -3c-29 0 -50 25 -50 54z" />
    <glyph glyph-name="lslash" unicode="&#x142;" horiz-adv-x="240" 
d="M40 19l42 297l-39 -24c-8 -5 -18 -2 -22 7l-4 9c-4 10 0 21 9 26l63 37l44 310c1 10 11 19 20 19h61c9 0 16 -9 14 -19l-35 -254l69 45c9 6 20 1 23 -7l4 -10c3 -8 -1 -19 -10 -25l-94 -58l-50 -353c-1 -10 -10 -19 -19 -19h-62c-9 0 -16 9 -14 19z" />
    <glyph glyph-name="ldot" unicode="&#x140;" horiz-adv-x="361" 
d="M28 19l93 662c1 10 11 19 20 19h61c9 0 15 -9 14 -19l-93 -662c-1 -10 -10 -19 -19 -19h-62c-9 0 -15 9 -14 19zM294 295c-30 0 -52 26 -52 56c0 40 34 73 70 73c31 0 53 -25 53 -57c0 -39 -34 -72 -71 -72z" />
    <glyph glyph-name="nacute" unicode="&#x144;" horiz-adv-x="477" 
d="M28 19l50 362c1 10 9 19 20 19h30c7 0 12 -5 13 -12l7 -34c10 9 63 56 134 56c112 0 142 -86 128 -190l-28 -201c-1 -10 -11 -19 -20 -19h-61c-10 0 -15 9 -14 19l28 204c9 64 -11 100 -56 100c-52 0 -94 -46 -102 -58l-35 -246c-2 -13 -7 -19 -25 -19h-55
c-9 0 -16 9 -14 19zM224 543c-11 -5 -19 -4 -22 6l-11 31c-3 8 1 15 8 19l156 91c6 4 20 6 25 -7l17 -44c4 -10 2 -19 -9 -24z" />
    <glyph glyph-name="ncaron" unicode="&#x148;" horiz-adv-x="477" 
d="M28 19l50 362c1 10 9 19 20 19h30c7 0 12 -5 13 -12l7 -34c10 9 63 56 134 56c112 0 142 -86 128 -190l-28 -201c-1 -10 -11 -19 -20 -19h-61c-10 0 -15 9 -14 19l28 204c9 64 -11 100 -56 100c-52 0 -94 -46 -102 -58l-35 -246c-2 -13 -7 -19 -25 -19h-55
c-9 0 -16 9 -14 19zM275 536l-98 98c-5 5 -9 12 -2 21l18 22c7 8 12 11 23 2l77 -60l99 64c12 8 15 5 22 -5l14 -20c7 -11 1 -20 -5 -24l-126 -98c-7 -5 -16 -5 -22 0z" />
    <glyph glyph-name="ntilde" unicode="&#xf1;" horiz-adv-x="477" 
d="M28 19l50 362c1 10 9 19 20 19h30c7 0 12 -5 13 -12l7 -34c10 9 63 56 134 56c112 0 142 -86 128 -190l-28 -201c-1 -10 -11 -19 -20 -19h-61c-10 0 -15 9 -14 19l28 204c9 64 -11 100 -56 100c-52 0 -94 -46 -102 -58l-35 -246c-2 -13 -7 -19 -25 -19h-55
c-9 0 -16 9 -14 19zM184 568l-26 15c-8 6 -7 16 -4 23c8 18 44 84 98 84c52 0 60 -64 87 -64c21 0 33 24 42 40c6 11 16 15 25 9l19 -14c13 -10 9 -21 2 -32c-12 -22 -45 -75 -93 -75c-45 0 -64 65 -87 65c-21 0 -34 -28 -41 -41c-6 -11 -11 -17 -22 -10z" />
    <glyph glyph-name="ncommaaccent" unicode="&#x146;" horiz-adv-x="478" 
d="M28 19l50 362c1 10 9 19 20 19h30c7 0 12 -5 13 -12l7 -34c10 9 63 56 134 56c112 0 142 -86 128 -190l-28 -201c-1 -10 -11 -19 -20 -19h-61c-10 0 -15 9 -14 19l28 204c9 64 -11 100 -56 100c-52 0 -94 -46 -102 -58l-35 -246c-2 -13 -7 -19 -25 -19h-55
c-9 0 -16 9 -14 19zM122 -162c0 38 32 70 70 70c27 0 59 -18 59 -77c0 -101 -76 -176 -107 -205c-9 -8 -16 -8 -22 -1l-11 15c-5 6 -3 16 5 23c10 9 68 53 78 124c-1 -1 -11 -3 -22 -3c-29 0 -50 25 -50 54z" />
    <glyph glyph-name="napostrophe" unicode="&#x149;" horiz-adv-x="477" 
d="M27 19l50 362c1 10 9 19 20 19h30c7 0 12 -5 13 -12l7 -34c10 9 63 56 134 56c112 0 142 -86 128 -190l-28 -201c-1 -10 -11 -19 -20 -19h-61c-10 0 -15 9 -14 19l28 204c9 64 -11 100 -56 100c-52 0 -94 -46 -102 -58l-35 -246c-2 -13 -7 -19 -25 -19h-55
c-9 0 -16 9 -14 19zM-99 640c0 38 32 70 70 70c27 0 59 -18 59 -77c0 -101 -76 -176 -107 -205c-9 -8 -16 -8 -22 -1l-11 15c-5 6 -3 16 5 23c10 9 68 53 78 124c-1 -1 -11 -3 -22 -3c-29 0 -50 25 -50 54z" />
    <glyph glyph-name="ograve" unicode="&#xf2;" horiz-adv-x="441" 
d="M24 173c0 128 94 237 215 237c90 0 156 -84 156 -181c0 -129 -93 -239 -215 -239c-87 0 -156 83 -156 183zM192 76c59 0 113 65 113 143c0 57 -31 104 -78 104c-59 0 -113 -64 -113 -142c0 -57 31 -105 78 -105zM323 546l-140 70c-12 6 -12 16 -6 26l26 41c6 9 15 9 24 3
l131 -91c5 -3 8 -11 3 -19l-15 -26c-5 -8 -11 -10 -23 -4z" />
    <glyph glyph-name="oacute" unicode="&#xf3;" horiz-adv-x="441" 
d="M24 173c0 128 94 237 215 237c90 0 156 -84 156 -181c0 -129 -93 -239 -215 -239c-87 0 -156 83 -156 183zM192 76c59 0 113 65 113 143c0 57 -31 104 -78 104c-59 0 -113 -64 -113 -142c0 -57 31 -105 78 -105zM198 543c-11 -5 -19 -4 -22 6l-11 31c-3 8 1 15 8 19
l156 91c6 4 20 6 25 -7l17 -44c4 -10 2 -19 -9 -24z" />
    <glyph glyph-name="ocircumflex" unicode="&#xf4;" horiz-adv-x="441" 
d="M24 173c0 128 94 237 215 237c90 0 156 -84 156 -181c0 -129 -93 -239 -215 -239c-87 0 -156 83 -156 183zM192 76c59 0 113 65 113 143c0 57 -31 104 -78 104c-59 0 -113 -64 -113 -142c0 -57 31 -105 78 -105zM168 539c-12 -8 -15 -5 -22 5l-14 20c-7 11 -1 20 5 24
l126 98c7 5 16 5 22 0l98 -98c5 -5 9 -12 2 -21l-18 -22c-7 -8 -12 -11 -23 -2l-77 60z" />
    <glyph glyph-name="otilde" unicode="&#xf5;" horiz-adv-x="441" 
d="M24 173c0 128 94 237 215 237c90 0 156 -84 156 -181c0 -129 -93 -239 -215 -239c-87 0 -156 83 -156 183zM192 76c59 0 113 65 113 143c0 57 -31 104 -78 104c-59 0 -113 -64 -113 -142c0 -57 31 -105 78 -105zM159 568l-26 15c-8 6 -7 16 -4 23c8 18 44 84 98 84
c52 0 60 -64 87 -64c21 0 33 24 42 40c6 11 16 15 25 9l19 -14c13 -10 9 -21 2 -32c-12 -22 -45 -75 -93 -75c-45 0 -64 65 -87 65c-21 0 -34 -28 -41 -41c-6 -11 -11 -17 -22 -10z" />
    <glyph glyph-name="odieresis" unicode="&#xf6;" horiz-adv-x="441" 
d="M24 173c0 128 94 237 215 237c90 0 156 -84 156 -181c0 -129 -93 -239 -215 -239c-87 0 -156 83 -156 183zM192 76c59 0 113 65 113 143c0 57 -31 104 -78 104c-59 0 -113 -64 -113 -142c0 -57 31 -105 78 -105zM351 567c-28 0 -47 22 -47 49c0 36 30 64 62 64
c28 0 48 -22 48 -50c0 -35 -30 -63 -63 -63zM172 567c-27 0 -47 22 -47 49c0 36 30 64 63 64c27 0 47 -22 47 -50c0 -35 -30 -63 -63 -63z" />
    <glyph glyph-name="omacron" unicode="&#x14d;" horiz-adv-x="441" 
d="M24 173c0 128 94 237 215 237c90 0 156 -84 156 -181c0 -129 -93 -239 -215 -239c-87 0 -156 83 -156 183zM192 76c59 0 113 65 113 143c0 57 -31 104 -78 104c-59 0 -113 -64 -113 -142c0 -57 31 -105 78 -105zM148 576c-10 0 -16 8 -15 18l4 28c2 11 10 19 20 19h231
c9 0 16 -8 14 -19l-4 -28c-1 -10 -10 -18 -20 -18h-230z" />
    <glyph glyph-name="obreve" unicode="&#x14f;" horiz-adv-x="441" 
d="M24 173c0 128 94 237 215 237c90 0 156 -84 156 -181c0 -129 -93 -239 -215 -239c-87 0 -156 83 -156 183zM192 76c59 0 113 65 113 143c0 57 -31 104 -78 104c-59 0 -113 -64 -113 -142c0 -57 31 -105 78 -105zM259 529c-62 0 -109 50 -109 116c0 12 7 21 18 21h27
c9 0 13 -7 14 -15c3 -35 25 -59 57 -59c30 0 57 27 70 59c4 9 9 15 18 15h33c11 0 16 -9 12 -21c-19 -66 -73 -116 -140 -116z" />
    <glyph glyph-name="ohungarumlaut" unicode="&#x151;" horiz-adv-x="441" 
d="M24 173c0 128 94 237 215 237c90 0 156 -84 156 -181c0 -129 -93 -239 -215 -239c-87 0 -156 83 -156 183zM192 76c59 0 113 65 113 143c0 57 -31 104 -78 104c-59 0 -113 -64 -113 -142c0 -57 31 -105 78 -105zM319 521c-13 0 -18 9 -14 19l57 141c4 10 11 19 20 19h58
c17 0 21 -12 13 -25l-90 -139c-5 -8 -11 -15 -19 -15h-25zM170 521c-13 0 -18 9 -14 19l57 141c4 10 11 19 20 19h58c17 0 21 -12 13 -25l-90 -139c-5 -8 -11 -15 -19 -15h-25z" />
    <glyph glyph-name="oslash" unicode="&#xf8;" horiz-adv-x="441" 
d="M28 19l-5 7c-7 7 -5 19 2 26l23 22c-15 29 -24 63 -24 99c0 128 94 237 215 237c43 0 80 -19 108 -50l25 25c7 8 18 8 23 0l7 -7c7 -7 5 -19 -3 -26l-28 -27c15 -28 24 -61 24 -96c0 -129 -93 -239 -215 -239c-42 0 -79 18 -107 49l-21 -21c-7 -7 -18 -6 -24 1zM119 142
l161 155c-13 16 -32 26 -53 26c-59 0 -113 -64 -113 -142c0 -14 1 -27 5 -39zM139 102c13 -16 31 -26 53 -26c59 0 113 65 113 143c0 13 -2 26 -5 38z" />
    <glyph glyph-name="oslashacute" unicode="&#x1ff;" horiz-adv-x="441" 
d="M196 543c-11 -5 -19 -4 -22 6l-11 31c-3 8 1 15 8 19l156 91c6 4 20 6 25 -7l17 -44c4 -10 2 -19 -9 -24zM28 19l-5 7c-7 7 -5 19 2 26l23 22c-15 29 -24 63 -24 99c0 128 94 237 215 237c43 0 80 -19 108 -50l25 25c7 8 18 8 23 0l7 -7c7 -7 5 -19 -3 -26l-28 -27
c15 -28 24 -61 24 -96c0 -129 -93 -239 -215 -239c-42 0 -79 18 -107 49l-21 -21c-7 -7 -18 -6 -24 1zM119 142l161 155c-13 16 -32 26 -53 26c-59 0 -113 -64 -113 -142c0 -14 1 -27 5 -39zM139 102c13 -16 31 -26 53 -26c59 0 113 65 113 143c0 13 -2 26 -5 38z" />
    <glyph glyph-name="oe" unicode="&#x153;" horiz-adv-x="683" 
d="M24 174c0 128 99 236 215 236c52 0 94 -31 120 -75c39 42 95 75 160 75c75 0 134 -40 134 -114c0 -114 -160 -131 -265 -119c-5 -54 22 -103 78 -103c30 0 62 15 81 28c11 7 17 10 24 1l27 -37c6 -8 7 -17 -5 -26c-31 -25 -81 -50 -141 -50c-57 0 -102 28 -128 72
c-39 -44 -92 -72 -144 -72c-88 0 -156 84 -156 184zM403 244c56 -5 160 -11 160 47c0 26 -26 42 -54 42c-55 0 -94 -39 -106 -89zM192 76c59 0 113 67 113 145c0 56 -32 102 -78 102c-61 0 -115 -63 -115 -141c0 -58 32 -106 80 -106z" />
    <glyph glyph-name="racute" unicode="&#x155;" horiz-adv-x="316" 
d="M28 19l50 362c1 10 8 19 19 19h30c6 0 12 -6 14 -14l7 -34c10 10 50 58 112 58c23 0 44 -4 57 -13c8 -5 8 -14 2 -23l-28 -49c-7 -10 -16 -11 -23 -9c-4 1 -19 5 -33 5c-42 0 -71 -41 -77 -48l-36 -254c-2 -17 -14 -19 -30 -19h-50c-9 0 -15 9 -14 19zM136 543
c-11 -5 -19 -4 -22 6l-11 31c-3 8 1 15 8 19l156 91c6 4 20 6 25 -7l17 -44c4 -10 2 -19 -9 -24z" />
    <glyph glyph-name="rcaron" unicode="&#x159;" horiz-adv-x="316" 
d="M28 19l50 362c1 10 8 19 19 19h30c6 0 12 -6 14 -14l7 -34c10 10 50 58 112 58c23 0 44 -4 57 -13c8 -5 8 -14 2 -23l-28 -49c-7 -10 -16 -11 -23 -9c-4 1 -19 5 -33 5c-42 0 -71 -41 -77 -48l-36 -254c-2 -17 -14 -19 -30 -19h-50c-9 0 -15 9 -14 19zM177 536l-98 98
c-5 5 -9 12 -2 21l18 22c7 8 12 11 23 2l77 -60l99 64c12 8 15 5 22 -5l14 -20c7 -11 1 -20 -5 -24l-126 -98c-7 -5 -16 -5 -22 0z" />
    <glyph glyph-name="rcommaaccent" unicode="&#x157;" horiz-adv-x="316" 
d="M27 19l50 362c1 10 8 19 19 19h30c6 0 12 -6 14 -14l7 -34c10 10 50 58 112 58c23 0 44 -4 57 -13c8 -5 8 -14 2 -23l-28 -49c-7 -10 -16 -11 -23 -9c-4 1 -19 5 -33 5c-42 0 -71 -41 -77 -48l-36 -254c-2 -17 -14 -19 -30 -19h-50c-9 0 -15 9 -14 19zM-11 -162
c0 38 32 70 70 70c27 0 59 -18 59 -77c0 -101 -76 -176 -107 -205c-9 -8 -16 -8 -22 -1l-11 15c-5 6 -3 16 5 23c10 9 68 53 78 124c-1 -1 -11 -3 -22 -3c-29 0 -50 25 -50 54z" />
    <glyph glyph-name="sacute" unicode="&#x15b;" horiz-adv-x="339" 
d="M14 31c-5 4 -8 13 -2 21l23 38c5 7 13 11 22 5c11 -7 34 -24 78 -24c25 0 49 14 49 40c0 22 -16 36 -55 59c-49 29 -88 62 -88 117c0 58 41 123 145 123c52 0 88 -18 105 -31c10 -8 11 -19 4 -29l-19 -34c-6 -9 -17 -12 -24 -8c-8 4 -34 19 -73 19c-31 0 -45 -16 -45 -34
c0 -22 18 -34 47 -51c57 -33 102 -60 102 -122c0 -72 -53 -130 -153 -130c-57 0 -98 25 -116 41zM150 543c-11 -5 -19 -4 -22 6l-11 31c-3 8 1 15 8 19l156 91c6 4 20 6 25 -7l17 -44c4 -10 2 -19 -9 -24z" />
    <glyph glyph-name="scircumflex" unicode="&#x15d;" horiz-adv-x="339" 
d="M14 31c-5 4 -8 13 -2 21l23 38c5 7 13 11 22 5c11 -7 34 -24 78 -24c25 0 49 14 49 40c0 22 -16 36 -55 59c-49 29 -88 62 -88 117c0 58 41 123 145 123c52 0 88 -18 105 -31c10 -8 11 -19 4 -29l-19 -34c-6 -9 -17 -12 -24 -8c-8 4 -34 19 -73 19c-31 0 -45 -16 -45 -34
c0 -22 18 -34 47 -51c57 -33 102 -60 102 -122c0 -72 -53 -130 -153 -130c-57 0 -98 25 -116 41zM119 539c-12 -8 -15 -5 -22 5l-14 20c-7 11 -1 20 5 24l126 98c7 5 16 5 22 0l98 -98c5 -5 9 -12 2 -21l-18 -22c-7 -8 -12 -11 -23 -2l-77 60z" />
    <glyph glyph-name="scaron" unicode="&#x161;" horiz-adv-x="339" 
d="M14 31c-5 4 -8 13 -2 21l23 38c5 7 13 11 22 5c11 -7 34 -24 78 -24c25 0 49 14 49 40c0 22 -16 36 -55 59c-49 29 -88 62 -88 117c0 58 41 123 145 123c52 0 88 -18 105 -31c10 -8 11 -19 4 -29l-19 -34c-6 -9 -17 -12 -24 -8c-8 4 -34 19 -73 19c-31 0 -45 -16 -45 -34
c0 -22 18 -34 47 -51c57 -33 102 -60 102 -122c0 -72 -53 -130 -153 -130c-57 0 -98 25 -116 41zM200 536l-98 98c-5 5 -9 12 -2 21l18 22c7 8 12 11 23 2l77 -60l99 64c12 8 15 5 22 -5l14 -20c7 -11 1 -20 -5 -24l-126 -98c-7 -5 -16 -5 -22 0z" />
    <glyph glyph-name="scedilla" unicode="&#x15f;" horiz-adv-x="340" 
d="M14 31c-5 4 -8 13 -2 21l23 38c5 7 13 11 22 5c11 -7 34 -24 78 -24c25 0 49 14 49 40c0 22 -16 36 -55 59c-49 29 -88 62 -88 117c0 58 41 123 145 123c52 0 88 -18 105 -31c10 -8 11 -19 4 -29l-19 -34c-6 -9 -17 -12 -24 -8c-8 4 -34 19 -73 19c-31 0 -45 -16 -45 -34
c0 -22 18 -34 47 -51c57 -33 102 -60 102 -122c0 -71 -51 -128 -148 -130l-5 -45c46 -10 76 -40 76 -92c0 -60 -42 -113 -107 -113c-26 0 -54 16 -66 35c-6 9 -6 17 2 25l16 15c6 6 13 6 20 -1c8 -8 16 -14 31 -14c22 0 41 22 41 49c0 30 -23 44 -61 49c-13 3 -14 14 -13 19
l11 80c-31 8 -54 23 -66 34z" />
    <glyph glyph-name="scommaaccent" unicode="&#x219;" horiz-adv-x="340" 
d="M14 31c-5 4 -8 13 -2 21l23 38c5 7 13 11 22 5c11 -7 34 -24 78 -24c25 0 49 14 49 40c0 22 -16 36 -55 59c-49 29 -88 62 -88 117c0 58 41 123 145 123c52 0 88 -18 105 -31c10 -8 11 -19 4 -29l-19 -34c-6 -9 -17 -12 -24 -8c-8 4 -34 19 -73 19c-31 0 -45 -16 -45 -34
c0 -22 18 -34 47 -51c57 -33 102 -60 102 -122c0 -72 -53 -130 -153 -130c-57 0 -98 25 -116 41zM51 -162c0 38 32 70 70 70c27 0 59 -18 59 -77c0 -101 -76 -176 -107 -205c-9 -8 -16 -8 -22 -1l-11 15c-5 6 -3 16 5 23c10 9 68 53 78 124c-1 -1 -11 -3 -22 -3
c-29 0 -50 25 -50 54z" />
    <glyph glyph-name="germandbls" unicode="&#xdf;" horiz-adv-x="484" 
d="M196 7c0 2 0 4 1 7l7 46c1 7 5 17 17 16c11 -1 20 -2 37 -2c41 0 75 35 75 92c0 70 -80 113 -80 171c0 72 110 155 110 228c0 38 -24 60 -56 60c-62 0 -107 -63 -128 -215l-97 -691c-1 -10 -11 -19 -20 -19h-62c-10 0 -15 9 -14 19l97 692c28 199 106 299 243 299
c69 0 136 -42 136 -129c0 -123 -106 -182 -106 -233c0 -30 75 -89 75 -178c0 -100 -60 -180 -184 -180c-26 0 -51 -1 -51 17z" />
    <glyph glyph-name="tcaron" unicode="&#x165;" horiz-adv-x="327" 
d="M65 109l29 208h-44c-10 0 -17 9 -15 19l7 45c2 11 9 19 19 19h45l15 111c1 10 11 19 20 19l61 1c9 0 15 -9 14 -19l-16 -112h86c10 0 17 -8 15 -19l-7 -45c-2 -10 -9 -19 -19 -19h-87l-27 -197c-5 -34 7 -40 23 -40c17 0 41 12 52 18c12 6 17 0 19 -9l11 -45
c3 -11 -3 -18 -12 -24c-8 -5 -67 -30 -110 -30c-71 0 -89 48 -79 119zM378 427l-11 15c-5 6 -3 16 5 23c10 9 68 53 78 124c-1 -1 -11 -3 -22 -3c-29 0 -50 25 -50 54c0 38 32 70 70 70c27 0 59 -18 59 -77c0 -101 -76 -176 -107 -205c-9 -8 -16 -8 -22 -1z" />
    <glyph glyph-name="tcommaaccent" unicode="&#x163;" horiz-adv-x="328" 
d="M65 109l29 208h-44c-10 0 -17 9 -15 19l7 45c2 11 9 19 19 19h45l15 111c1 10 11 19 20 19l61 1c9 0 15 -9 14 -19l-16 -112h86c10 0 17 -8 15 -19l-7 -45c-2 -10 -9 -19 -19 -19h-87l-27 -197c-5 -34 7 -40 23 -40c17 0 41 12 52 18c12 6 17 0 19 -9l11 -45
c3 -11 -3 -18 -12 -24c-8 -5 -67 -30 -110 -30c-71 0 -89 48 -79 119zM65 -162c0 38 32 70 70 70c27 0 59 -18 59 -77c0 -101 -76 -176 -107 -205c-9 -8 -16 -8 -22 -1l-11 15c-5 6 -3 16 5 23c10 9 68 53 78 124c-1 -1 -11 -3 -22 -3c-29 0 -50 25 -50 54z" />
    <glyph glyph-name="uni021B" unicode="&#x21b;" horiz-adv-x="328" 
d="M65 109l29 208h-44c-10 0 -17 9 -15 19l7 45c2 11 9 19 19 19h45l15 111c1 10 11 19 20 19l61 1c9 0 15 -9 14 -19l-16 -112h86c10 0 17 -8 15 -19l-7 -45c-2 -10 -9 -19 -19 -19h-87l-27 -197c-5 -34 7 -40 23 -40c17 0 41 12 52 18c12 6 17 0 19 -9l11 -45
c3 -11 -3 -18 -12 -24c-8 -5 -67 -30 -110 -30c-71 0 -89 48 -79 119zM65 -162c0 38 32 70 70 70c27 0 59 -18 59 -77c0 -101 -76 -176 -107 -205c-9 -8 -16 -8 -22 -1l-11 15c-5 6 -3 16 5 23c10 9 68 53 78 124c-1 -1 -11 -3 -22 -3c-29 0 -50 25 -50 54z" />
    <glyph glyph-name="tbar" unicode="&#x167;" horiz-adv-x="327" 
d="M65 109l8 62h-30c-9 0 -16 9 -14 19l2 10c2 10 10 19 19 19h30l14 98h-44c-10 0 -17 9 -15 19l7 45c2 11 9 19 19 19h45l15 111c1 10 11 19 20 19l61 1c9 0 15 -9 14 -19l-16 -112h86c10 0 17 -8 15 -19l-7 -45c-2 -10 -9 -19 -19 -19h-87l-14 -98h77c10 0 17 -9 15 -19
l-2 -11c-2 -10 -9 -18 -19 -18h-77l-7 -51c-5 -34 7 -40 23 -40c17 0 41 12 52 18c12 6 17 0 19 -9l11 -45c3 -11 -3 -18 -12 -24c-8 -5 -67 -30 -110 -30c-71 0 -89 48 -79 119z" />
    <glyph glyph-name="thorn" unicode="&#xfe;" 
d="M125 17l-42 -299c-1 -10 -11 -19 -20 -19h-62c-9 0 -16 9 -15 19l136 963c1 10 10 19 19 19h63c9 0 16 -9 14 -19l-42 -305c11 8 41 33 93 33c85 0 146 -81 146 -179c0 -135 -86 -240 -212 -240c-38 0 -68 20 -78 27zM138 110c6 -7 31 -34 68 -34c64 0 115 65 115 145
c0 55 -27 102 -77 102c-52 0 -79 -37 -83 -44z" />
    <glyph glyph-name="ugrave" unicode="&#xf9;" horiz-adv-x="465" 
d="M168 -10c-110 0 -136 85 -122 189l28 202c2 10 11 19 20 19h61c9 0 16 -9 15 -19l-29 -204c-9 -65 13 -101 57 -101c46 0 87 52 91 63l33 242c2 16 9 19 23 19h55c9 0 16 -9 15 -19l-51 -362c-1 -10 -10 -19 -20 -19h-29c-9 0 -12 7 -14 16l-6 29
c-10 -10 -55 -55 -127 -55zM333 546l-140 70c-12 6 -12 16 -6 26l26 41c6 9 15 9 24 3l131 -91c5 -3 8 -11 3 -19l-15 -26c-5 -8 -11 -10 -23 -4z" />
    <glyph glyph-name="uacute" unicode="&#xfa;" horiz-adv-x="465" 
d="M168 -10c-110 0 -136 85 -122 189l28 202c2 10 11 19 20 19h61c9 0 16 -9 15 -19l-29 -204c-9 -65 13 -101 57 -101c46 0 87 52 91 63l33 242c2 16 9 19 23 19h55c9 0 16 -9 15 -19l-51 -362c-1 -10 -10 -19 -20 -19h-29c-9 0 -12 7 -14 16l-6 29
c-10 -10 -55 -55 -127 -55zM209 543c-11 -5 -19 -4 -22 6l-11 31c-3 8 1 15 8 19l156 91c6 4 20 6 25 -7l17 -44c4 -10 2 -19 -9 -24z" />
    <glyph glyph-name="ucircumflex" unicode="&#xfb;" horiz-adv-x="465" 
d="M168 -10c-110 0 -136 85 -122 189l28 202c2 10 11 19 20 19h61c9 0 16 -9 15 -19l-29 -204c-9 -65 13 -101 57 -101c46 0 87 52 91 63l33 242c2 16 9 19 23 19h55c9 0 16 -9 15 -19l-51 -362c-1 -10 -10 -19 -20 -19h-29c-9 0 -12 7 -14 16l-6 29
c-10 -10 -55 -55 -127 -55zM178 539c-12 -8 -15 -5 -22 5l-14 20c-7 11 -1 20 5 24l126 98c7 5 16 5 22 0l98 -98c5 -5 9 -12 2 -21l-18 -22c-7 -8 -12 -11 -23 -2l-77 60z" />
    <glyph glyph-name="utilde" unicode="&#x169;" horiz-adv-x="465" 
d="M168 -10c-110 0 -136 85 -122 189l28 202c2 10 11 19 20 19h61c9 0 16 -9 15 -19l-29 -204c-9 -65 13 -101 57 -101c46 0 87 52 91 63l33 242c2 16 9 19 23 19h55c9 0 16 -9 15 -19l-51 -362c-1 -10 -10 -19 -20 -19h-29c-9 0 -12 7 -14 16l-6 29
c-10 -10 -55 -55 -127 -55zM169 568l-26 15c-8 6 -7 16 -4 23c8 18 44 84 98 84c52 0 60 -64 87 -64c21 0 33 24 42 40c6 11 16 15 25 9l19 -14c13 -10 9 -21 2 -32c-12 -22 -45 -75 -93 -75c-45 0 -64 65 -87 65c-21 0 -34 -28 -41 -41c-6 -11 -11 -17 -22 -10z" />
    <glyph glyph-name="udieresis" unicode="&#xfc;" horiz-adv-x="465" 
d="M168 -10c-110 0 -136 85 -122 189l28 202c2 10 11 19 20 19h61c9 0 16 -9 15 -19l-29 -204c-9 -65 13 -101 57 -101c46 0 87 52 91 63l33 242c2 16 9 19 23 19h55c9 0 16 -9 15 -19l-51 -362c-1 -10 -10 -19 -20 -19h-29c-9 0 -12 7 -14 16l-6 29
c-10 -10 -55 -55 -127 -55zM362 567c-28 0 -47 22 -47 49c0 36 30 64 62 64c28 0 48 -22 48 -50c0 -35 -30 -63 -63 -63zM183 567c-27 0 -47 22 -47 49c0 36 30 64 63 64c27 0 47 -22 47 -50c0 -35 -30 -63 -63 -63z" />
    <glyph glyph-name="umacron" unicode="&#x16b;" horiz-adv-x="465" 
d="M168 -10c-110 0 -136 85 -122 189l28 202c2 10 11 19 20 19h61c9 0 16 -9 15 -19l-29 -204c-9 -65 13 -101 57 -101c46 0 87 52 91 63l33 242c2 16 9 19 23 19h55c9 0 16 -9 15 -19l-51 -362c-1 -10 -10 -19 -20 -19h-29c-9 0 -12 7 -14 16l-6 29
c-10 -10 -55 -55 -127 -55zM157 576c-10 0 -16 8 -15 18l4 28c2 11 10 19 20 19h231c9 0 16 -8 14 -19l-4 -28c-1 -10 -10 -18 -20 -18h-230z" />
    <glyph glyph-name="ubreve" unicode="&#x16d;" horiz-adv-x="465" 
d="M168 -10c-110 0 -136 85 -122 189l28 202c2 10 11 19 20 19h61c9 0 16 -9 15 -19l-29 -204c-9 -65 13 -101 57 -101c46 0 87 52 91 63l33 242c2 16 9 19 23 19h55c9 0 16 -9 15 -19l-51 -362c-1 -10 -10 -19 -20 -19h-29c-9 0 -12 7 -14 16l-6 29
c-10 -10 -55 -55 -127 -55zM273 529c-62 0 -109 50 -109 116c0 12 7 21 18 21h27c9 0 13 -7 14 -15c3 -35 25 -59 57 -59c30 0 57 27 70 59c4 9 9 15 18 15h33c11 0 16 -9 12 -21c-19 -66 -73 -116 -140 -116z" />
    <glyph glyph-name="uring" unicode="&#x16f;" horiz-adv-x="465" 
d="M168 -10c-110 0 -136 85 -122 189l28 202c2 10 11 19 20 19h61c9 0 16 -9 15 -19l-29 -204c-9 -65 13 -101 57 -101c46 0 87 52 91 63l33 242c2 16 9 19 23 19h55c9 0 16 -9 15 -19l-51 -362c-1 -10 -10 -19 -20 -19h-29c-9 0 -12 7 -14 16l-6 29
c-10 -10 -55 -55 -127 -55zM260 488c-48 0 -86 43 -86 96c0 70 51 126 117 126c47 0 87 -43 87 -96c0 -70 -52 -126 -118 -126zM268 543c27 0 53 31 53 63c0 25 -15 46 -38 46c-27 0 -55 -27 -55 -60c0 -25 17 -49 40 -49z" />
    <glyph glyph-name="uhungarumlaut" unicode="&#x171;" horiz-adv-x="465" 
d="M168 -10c-110 0 -136 85 -122 189l28 202c2 10 11 19 20 19h61c9 0 16 -9 15 -19l-29 -204c-9 -65 13 -101 57 -101c46 0 87 52 91 63l33 242c2 16 9 19 23 19h55c9 0 16 -9 15 -19l-51 -362c-1 -10 -10 -19 -20 -19h-29c-9 0 -12 7 -14 16l-6 29
c-10 -10 -55 -55 -127 -55zM333 521c-13 0 -18 9 -14 19l57 141c4 10 11 19 20 19h58c17 0 21 -12 13 -25l-90 -139c-5 -8 -11 -15 -19 -15h-25zM184 521c-13 0 -18 9 -14 19l57 141c4 10 11 19 20 19h58c17 0 21 -12 13 -25l-90 -139c-5 -8 -11 -15 -19 -15h-25z" />
    <glyph glyph-name="uogonek" unicode="&#x173;" horiz-adv-x="464" 
d="M167 -10c-110 0 -136 85 -122 189l28 202c2 10 11 19 20 19h61c9 0 16 -9 15 -19l-29 -204c-9 -65 13 -101 57 -101c46 0 87 52 91 63l33 242c2 16 9 19 23 19h55c9 0 16 -9 15 -19l-51 -362c-1 -10 -10 -19 -20 -19h-2c-20 -18 -57 -57 -57 -107c0 -29 16 -51 50 -51
c19 0 34 8 45 13c10 4 17 -3 15 -15l-4 -29c-1 -9 -8 -14 -15 -18c-5 -3 -34 -12 -62 -12c-53 0 -95 33 -95 89c0 89 83 142 83 142l-7 33c-10 -10 -55 -55 -127 -55z" />
    <glyph glyph-name="wacute" unicode="&#x1e83;" horiz-adv-x="566" 
d="M99 0l-58 377c-2 13 6 23 18 23h49c7 0 13 -5 14 -12l30 -211h1l131 223c3 5 8 10 16 10h6c8 0 13 -5 14 -10l61 -224h1l87 212c4 9 11 12 22 12h51c12 0 16 -10 10 -24l-160 -376c-3 -6 -8 -10 -18 -10h-4c-8 0 -13 4 -14 9l-72 257h-1l-150 -257c-3 -5 -9 -9 -16 -9h-4
c-9 0 -13 4 -14 10zM263 543c-11 -5 -19 -4 -22 6l-11 31c-3 8 1 15 8 19l156 91c6 4 20 6 25 -7l17 -44c4 -10 2 -19 -9 -24z" />
    <glyph glyph-name="wcircumflex" unicode="&#x175;" horiz-adv-x="566" 
d="M99 0l-58 377c-2 13 6 23 18 23h49c7 0 13 -5 14 -12l30 -211h1l131 223c3 5 8 10 16 10h6c8 0 13 -5 14 -10l61 -224h1l87 212c4 9 11 12 22 12h51c12 0 16 -10 10 -24l-160 -376c-3 -6 -8 -10 -18 -10h-4c-8 0 -13 4 -14 9l-72 257h-1l-150 -257c-3 -5 -9 -9 -16 -9h-4
c-9 0 -13 4 -14 10zM232 539c-12 -8 -15 -5 -22 5l-14 20c-7 11 -1 20 5 24l126 98c7 5 16 5 22 0l98 -98c5 -5 9 -12 2 -21l-18 -22c-7 -8 -12 -11 -23 -2l-77 60z" />
    <glyph glyph-name="wdieresis" unicode="&#x1e85;" horiz-adv-x="566" 
d="M99 0l-58 377c-2 13 6 23 18 23h49c7 0 13 -5 14 -12l30 -211h1l131 223c3 5 8 10 16 10h6c8 0 13 -5 14 -10l61 -224h1l87 212c4 9 11 12 22 12h51c12 0 16 -10 10 -24l-160 -376c-3 -6 -8 -10 -18 -10h-4c-8 0 -13 4 -14 9l-72 257h-1l-150 -257c-3 -5 -9 -9 -16 -9h-4
c-9 0 -13 4 -14 10zM415 567c-28 0 -47 22 -47 49c0 36 30 64 62 64c28 0 48 -22 48 -50c0 -35 -30 -63 -63 -63zM236 567c-27 0 -47 22 -47 49c0 36 30 64 63 64c27 0 47 -22 47 -50c0 -35 -30 -63 -63 -63z" />
    <glyph glyph-name="wgrave" unicode="&#x1e81;" horiz-adv-x="566" 
d="M99 0l-58 377c-2 13 6 23 18 23h49c7 0 13 -5 14 -12l30 -211h1l131 223c3 5 8 10 16 10h6c8 0 13 -5 14 -10l61 -224h1l87 212c4 9 11 12 22 12h51c12 0 16 -10 10 -24l-160 -376c-3 -6 -8 -10 -18 -10h-4c-8 0 -13 4 -14 9l-72 257h-1l-150 -257c-3 -5 -9 -9 -16 -9h-4
c-9 0 -13 4 -14 10zM388 546l-140 70c-12 6 -12 16 -6 26l26 41c6 9 15 9 24 3l131 -91c5 -3 8 -11 3 -19l-15 -26c-5 -8 -11 -10 -23 -4z" />
    <glyph glyph-name="yacute" unicode="&#xfd;" horiz-adv-x="425" 
d="M125 21l-102 355c-4 13 3 24 17 24h58c7 0 12 -5 14 -11l73 -268h1l144 268c5 9 13 11 22 11h58c15 0 20 -13 12 -26l-367 -662c-3 -6 -9 -12 -17 -12h-63c-14 0 -19 11 -11 25zM184 543c-11 -5 -19 -4 -22 6l-11 31c-3 8 1 15 8 19l156 91c6 4 20 6 25 -7l17 -44
c4 -10 2 -19 -9 -24z" />
    <glyph glyph-name="ycircumflex" unicode="&#x177;" horiz-adv-x="425" 
d="M125 21l-102 355c-4 13 3 24 17 24h58c7 0 12 -5 14 -11l73 -268h1l144 268c5 9 13 11 22 11h58c15 0 20 -13 12 -26l-367 -662c-3 -6 -9 -12 -17 -12h-63c-14 0 -19 11 -11 25zM154 539c-12 -8 -15 -5 -22 5l-14 20c-7 11 -1 20 5 24l126 98c7 5 16 5 22 0l98 -98
c5 -5 9 -12 2 -21l-18 -22c-7 -8 -12 -11 -23 -2l-77 60z" />
    <glyph glyph-name="ydieresis" unicode="&#xff;" horiz-adv-x="425" 
d="M125 21l-102 355c-4 13 3 24 17 24h58c7 0 12 -5 14 -11l73 -268h1l144 268c5 9 13 11 22 11h58c15 0 20 -13 12 -26l-367 -662c-3 -6 -9 -12 -17 -12h-63c-14 0 -19 11 -11 25zM337 567c-28 0 -47 22 -47 49c0 36 30 64 62 64c28 0 48 -22 48 -50c0 -35 -30 -63 -63 -63
zM158 567c-27 0 -47 22 -47 49c0 36 30 64 63 64c27 0 47 -22 47 -50c0 -35 -30 -63 -63 -63z" />
    <glyph glyph-name="ygrave" unicode="&#x1ef3;" horiz-adv-x="425" 
d="M125 21l-102 355c-4 13 3 24 17 24h58c7 0 12 -5 14 -11l73 -268h1l144 268c5 9 13 11 22 11h58c15 0 20 -13 12 -26l-367 -662c-3 -6 -9 -12 -17 -12h-63c-14 0 -19 11 -11 25zM309 546l-140 70c-12 6 -12 16 -6 26l26 41c6 9 15 9 24 3l131 -91c5 -3 8 -11 3 -19
l-15 -26c-5 -8 -11 -10 -23 -4z" />
    <glyph glyph-name="zacute" unicode="&#x17a;" horiz-adv-x="338" 
d="M11 0c-9 0 -15 9 -14 19l1 10l184 283v3h-119c-9 0 -14 9 -13 19l6 47c1 11 10 19 19 19h233c14 0 21 -14 12 -27l-185 -286v-3h113c10 0 15 -8 14 -19l-6 -46c-1 -10 -10 -19 -20 -19h-225zM140 543c-11 -5 -19 -4 -22 6l-11 31c-3 8 1 15 8 19l156 91c6 4 20 6 25 -7
l17 -44c4 -10 2 -19 -9 -24z" />
    <glyph glyph-name="zcaron" unicode="&#x17e;" horiz-adv-x="338" 
d="M11 0c-9 0 -15 9 -14 19l1 10l184 283v3h-119c-9 0 -14 9 -13 19l6 47c1 11 10 19 19 19h233c14 0 21 -14 12 -27l-185 -286v-3h113c10 0 15 -8 14 -19l-6 -46c-1 -10 -10 -19 -20 -19h-225zM194 536l-98 98c-5 5 -9 12 -2 21l18 22c7 8 12 11 23 2l77 -60l99 64
c12 8 15 5 22 -5l14 -20c7 -11 1 -20 -5 -24l-126 -98c-7 -5 -16 -5 -22 0z" />
    <glyph glyph-name="zdotaccent" unicode="&#x17c;" horiz-adv-x="338" 
d="M11 0c-9 0 -15 9 -14 19l1 10l184 283v3h-119c-9 0 -14 9 -13 19l6 47c1 11 10 19 19 19h233c14 0 21 -14 12 -27l-185 -286v-3h113c10 0 15 -8 14 -19l-6 -46c-1 -10 -10 -19 -20 -19h-225zM208 551c-30 0 -52 26 -52 56c0 40 34 73 70 73c31 0 53 -25 53 -57
c0 -39 -34 -72 -71 -72z" />
    <glyph glyph-name="IJ" unicode="&#x132;" horiz-adv-x="683" 
d="M58 19l93 662c1 10 10 19 19 19h70c9 0 16 -9 14 -19l-93 -662c-1 -10 -10 -19 -19 -19h-70c-9 0 -16 9 -14 19zM252 63c-4 8 -1 18 6 25l32 31c13 13 20 8 28 -2c12 -15 38 -35 73 -35c40 0 89 38 101 126l66 473c1 10 10 19 20 19h70c10 0 16 -9 14 -19l-66 -472
c-19 -139 -85 -219 -209 -219c-78 0 -124 52 -135 73z" />
    <glyph glyph-name="ij" unicode="&#x133;" horiz-adv-x="451" 
d="M150 563c-28 0 -47 23 -47 51c0 36 30 66 64 66c29 0 50 -23 50 -52c0 -36 -32 -65 -67 -65zM28 19l50 362c1 10 11 19 20 19h62c9 0 15 -9 14 -19l-51 -362c-1 -10 -11 -19 -20 -19h-61c-9 0 -15 9 -14 19zM378 563c-29 0 -48 23 -48 51c0 36 30 66 64 66
c29 0 50 -23 50 -52c0 -36 -31 -65 -66 -65zM234 -124l71 505c1 11 11 19 20 19h62c9 0 16 -8 15 -19l-71 -505c-17 -124 -87 -186 -182 -186c-51 0 -88 24 -103 40c-5 5 -5 16 0 23l25 37c6 9 17 11 25 5c10 -8 32 -18 56 -18c40 0 72 31 82 99z" />
    <glyph glyph-name="grave.cap" horiz-adv-x="272" 
d="M231 777l-140 70c-12 6 -12 16 -6 26l26 41c6 9 15 9 24 3l131 -91c5 -3 8 -11 3 -19l-15 -26c-5 -8 -11 -10 -23 -4z" />
    <glyph glyph-name="acute" unicode="&#xb4;" horiz-adv-x="272" 
d="M100 543c-11 -5 -19 -4 -22 6l-11 31c-3 8 1 15 8 19l156 91c6 4 20 6 25 -7l17 -44c4 -10 2 -19 -9 -24z" />
    <glyph glyph-name="acute.cap" horiz-adv-x="272" 
d="M107 773c-11 -5 -19 -4 -22 6l-11 31c-3 8 1 15 8 19l156 91c6 4 20 6 25 -7l17 -44c4 -10 2 -19 -9 -24z" />
    <glyph glyph-name="circumflex" unicode="&#x2c6;" horiz-adv-x="336" 
d="M95 539c-12 -8 -15 -5 -22 5l-14 20c-7 11 -1 20 5 24l126 98c7 5 16 5 22 0l98 -98c5 -5 9 -12 2 -21l-18 -22c-7 -8 -12 -11 -23 -2l-77 60z" />
    <glyph glyph-name="circumflex.cap" horiz-adv-x="336" 
d="M105 772c-12 -8 -15 -5 -22 5l-14 20c-7 11 -1 20 5 24l126 98c7 5 16 5 22 0l98 -98c5 -5 9 -12 2 -21l-18 -22c-7 -8 -12 -11 -23 -2l-77 60z" />
    <glyph glyph-name="caron" unicode="&#x2c7;" horiz-adv-x="336" 
d="M170 536l-98 98c-5 5 -9 12 -2 21l18 22c7 8 12 11 23 2l77 -60l99 64c12 8 15 5 22 -5l14 -20c7 -11 1 -20 -5 -24l-126 -98c-7 -5 -16 -5 -22 0z" />
    <glyph glyph-name="caron.cap" horiz-adv-x="336" 
d="M184 769l-98 98c-5 5 -9 12 -2 21l18 22c7 8 12 11 23 2l77 -60l99 64c12 8 15 5 22 -5l14 -20c7 -11 1 -20 -5 -24l-126 -98c-7 -5 -16 -5 -22 0z" />
    <glyph glyph-name="caron.alt" horiz-adv-x="336" 
d="M125 641c0 38 32 70 70 70c27 0 59 -18 59 -77c0 -101 -76 -176 -107 -205c-9 -8 -16 -8 -22 -1l-11 15c-5 6 -3 16 5 23c10 9 68 53 78 124c-1 -1 -11 -3 -22 -3c-29 0 -50 25 -50 54z" />
    <glyph glyph-name="tilde" unicode="&#x2dc;" horiz-adv-x="342" 
d="M88 568l-26 15c-8 6 -7 16 -4 23c8 18 44 84 98 84c52 0 60 -64 87 -64c21 0 33 24 42 40c6 11 16 15 25 9l19 -14c13 -10 9 -21 2 -32c-12 -22 -45 -75 -93 -75c-45 0 -64 65 -87 65c-21 0 -34 -28 -41 -41c-6 -11 -11 -17 -22 -10z" />
    <glyph glyph-name="tilde.cap" horiz-adv-x="342" 
d="M97 791l-26 15c-8 6 -7 16 -4 23c8 18 44 84 98 84c52 0 60 -64 87 -64c21 0 33 24 42 40c6 11 16 15 25 9l19 -14c13 -10 9 -21 2 -32c-12 -22 -45 -75 -93 -75c-45 0 -64 65 -87 65c-21 0 -34 -28 -41 -41c-6 -11 -11 -17 -22 -10z" />
    <glyph glyph-name="dieresis" unicode="&#xa8;" horiz-adv-x="373" 
d="M303 567c-28 0 -47 22 -47 49c0 36 30 64 62 64c28 0 48 -22 48 -50c0 -35 -30 -63 -63 -63zM124 567c-27 0 -47 22 -47 49c0 36 30 64 63 64c27 0 47 -22 47 -50c0 -35 -30 -63 -63 -63z" />
    <glyph glyph-name="dieresis.cap" horiz-adv-x="427" 
d="M349 782c-27 0 -46 23 -46 50c0 35 30 63 62 63c27 0 48 -22 48 -49c0 -35 -32 -64 -64 -64zM136 782c-27 0 -46 23 -46 50c0 35 30 63 62 63c27 0 48 -22 48 -49c0 -35 -32 -64 -64 -64z" />
    <glyph glyph-name="macron" unicode="&#xaf;" horiz-adv-x="373" 
d="M53 576c-10 0 -16 8 -15 18l4 28c2 11 10 19 20 19h231c9 0 16 -8 14 -19l-4 -28c-1 -10 -10 -18 -20 -18h-230z" />
    <glyph glyph-name="macron.cap" horiz-adv-x="373" 
d="M106 814c-10 0 -16 8 -15 18l4 28c2 11 10 19 20 19h230c10 0 16 -8 15 -19l-4 -28c-1 -10 -10 -18 -20 -18h-230z" />
    <glyph glyph-name="uni02C9" unicode="&#x2c9;" horiz-adv-x="373" 
d="M92 576c-10 0 -16 8 -15 18l4 28c2 11 10 19 20 19h231c9 0 16 -8 14 -19l-4 -28c-1 -10 -10 -18 -20 -18h-230z" />
    <glyph glyph-name="breve" unicode="&#x2d8;" horiz-adv-x="311" 
d="M170 529c-62 0 -109 50 -109 116c0 12 7 21 18 21h27c9 0 13 -7 14 -15c3 -35 25 -59 57 -59c30 0 57 27 70 59c4 9 9 15 18 15h33c11 0 16 -9 12 -21c-19 -66 -73 -116 -140 -116z" />
    <glyph glyph-name="breve.cap" horiz-adv-x="311" 
d="M184 768c-62 0 -109 50 -109 116c0 12 7 21 18 21h27c9 0 13 -7 14 -15c3 -35 25 -59 57 -59c30 0 57 27 70 59c4 9 9 15 18 15h33c11 0 16 -9 12 -21c-19 -66 -73 -116 -140 -116z" />
    <glyph glyph-name="ring" unicode="&#x2da;" horiz-adv-x="261" 
d="M139 488c-48 0 -86 43 -86 96c0 70 51 126 117 126c47 0 87 -43 87 -96c0 -70 -52 -126 -118 -126zM147 543c27 0 53 31 53 63c0 25 -15 46 -38 46c-27 0 -55 -27 -55 -60c0 -25 17 -49 40 -49z" />
    <glyph glyph-name="ring.cap" horiz-adv-x="261" 
d="M154 756c-48 0 -86 43 -86 96c0 70 51 126 117 126c47 0 87 -43 87 -96c0 -70 -52 -126 -118 -126zM162 811c27 0 53 31 53 63c0 25 -15 46 -38 46c-27 0 -55 -27 -55 -60c0 -25 17 -49 40 -49z" />
    <glyph glyph-name="hungarumlaut" unicode="&#x2dd;" horiz-adv-x="353" 
d="M218 521c-13 0 -18 9 -14 19l57 141c4 10 11 19 20 19h58c17 0 21 -12 13 -25l-90 -139c-5 -8 -11 -15 -19 -15h-25zM69 521c-13 0 -18 9 -14 19l57 141c4 10 11 19 20 19h58c17 0 21 -12 13 -25l-90 -139c-5 -8 -11 -15 -19 -15h-25z" />
    <glyph glyph-name="hungarumlaut.cap" horiz-adv-x="353" 
d="M229 768c-13 0 -18 9 -14 19l57 141c4 10 11 19 20 19h58c17 0 21 -12 13 -25l-90 -139c-5 -8 -11 -15 -19 -15h-25zM80 768c-13 0 -18 9 -14 19l57 141c4 10 11 19 20 19h58c17 0 21 -12 13 -25l-90 -139c-5 -8 -11 -15 -19 -15h-25z" />
    <glyph glyph-name="dotaccent" unicode="&#x2d9;" horiz-adv-x="197" 
d="M115 551c-30 0 -52 26 -52 56c0 40 34 73 70 73c31 0 53 -25 53 -57c0 -39 -34 -72 -71 -72z" />
    <glyph glyph-name="dotaccent.cap" horiz-adv-x="197" 
d="M128 788c-30 0 -52 25 -52 57c0 40 34 72 70 72c31 0 53 -25 53 -56c0 -40 -34 -73 -71 -73z" />
    <glyph glyph-name="cedilla" unicode="&#xb8;" horiz-adv-x="223" 
d="M75 0h56l-7 -55c46 -10 76 -40 76 -92c0 -60 -42 -113 -107 -113c-26 0 -54 16 -66 35c-6 9 -6 17 2 25l16 15c6 6 13 6 20 -1c8 -8 16 -14 31 -14c22 0 41 22 41 49c0 30 -23 44 -61 49c-13 3 -14 14 -13 19z" />
    <glyph glyph-name="cedilla.cap" horiz-adv-x="223" 
d="M75 0h56l-7 -55c46 -10 76 -40 76 -92c0 -60 -42 -113 -107 -113c-26 0 -54 16 -66 35c-6 9 -6 17 2 25l16 15c6 6 13 6 20 -1c8 -8 16 -14 31 -14c22 0 41 22 41 49c0 30 -23 44 -61 49c-13 3 -14 14 -13 19z" />
    <glyph glyph-name="ogonek" unicode="&#x2db;" horiz-adv-x="249" 
d="M124 12h55s-72 -51 -72 -119c0 -29 16 -51 50 -51c19 0 34 8 45 13c10 4 17 -3 15 -15l-4 -29c-1 -9 -8 -14 -15 -18c-5 -3 -34 -12 -62 -12c-53 0 -95 33 -95 89c0 89 83 142 83 142z" />
    <glyph glyph-name="ogonek.cap" horiz-adv-x="249" 
d="M124 12h55s-72 -51 -72 -119c0 -29 16 -51 50 -51c19 0 34 8 45 13c10 4 17 -3 15 -15l-4 -29c-1 -9 -8 -14 -15 -18c-5 -3 -34 -12 -62 -12c-53 0 -95 33 -95 89c0 89 83 142 83 142z" />
    <glyph glyph-name="commaaccent" horiz-adv-x="262" 
d="M110 -162c0 38 32 70 70 70c27 0 59 -18 59 -77c0 -101 -76 -176 -107 -205c-9 -8 -16 -8 -22 -1l-11 15c-5 6 -3 16 5 23c10 9 68 53 78 124c-1 -1 -11 -3 -22 -3c-29 0 -50 25 -50 54z" />
    <glyph glyph-name="commaaccent.alt" horiz-adv-x="262" 
d="M110 -162c0 38 32 70 70 70c27 0 59 -18 59 -77c0 -101 -76 -176 -107 -205c-9 -8 -16 -8 -22 -1l-11 15c-5 6 -3 16 5 23c10 9 68 53 78 124c-1 -1 -11 -3 -22 -3c-29 0 -50 25 -50 54z" />
    <glyph glyph-name="commaaccent.cap" horiz-adv-x="262" 
d="M110 -162c0 38 32 70 70 70c27 0 59 -18 59 -77c0 -101 -76 -176 -107 -205c-9 -8 -16 -8 -22 -1l-11 15c-5 6 -3 16 5 23c10 9 68 53 78 124c-1 -1 -11 -3 -22 -3c-29 0 -50 25 -50 54z" />
    <glyph glyph-name="ellipsis" unicode="&#x2026;" horiz-adv-x="590" 
d="M390 46c0 40 34 73 71 73c31 0 52 -25 52 -56c0 -40 -33 -73 -70 -73c-31 0 -53 26 -53 56zM202 46c0 40 34 73 70 73c31 0 53 -25 53 -57c0 -39 -34 -72 -71 -72c-30 0 -52 26 -52 56zM13 46c0 40 34 73 70 73c31 0 53 -25 53 -57c0 -39 -34 -72 -71 -72
c-30 0 -52 26 -52 56z" />
    <glyph glyph-name="uni00AD" unicode="&#xad;" horiz-adv-x="314" 
d="M86 206c-10 0 -16 8 -15 18l6 43c2 11 10 19 20 19h197c10 0 17 -8 15 -19l-6 -43c-1 -10 -10 -18 -20 -18h-197z" />
    <glyph glyph-name="exclamdown" unicode="&#xa1;" horiz-adv-x="227" 
d="M113 271c-34 0 -59 27 -59 61c0 43 38 78 79 78c32 0 58 -27 58 -61c0 -43 -39 -78 -78 -78zM61 112c2 8 11 16 19 16h24c8 0 15 -8 15 -16l-10 -279l-16 -114c-1 -10 -10 -19 -19 -19h-84c-9 0 -16 9 -15 19l16 112z" />
    <glyph glyph-name="questiondown" unicode="&#xbf;" horiz-adv-x="252" 
d="M134 271c-35 0 -59 27 -59 61c0 43 37 78 78 78c34 0 58 -27 58 -61c0 -43 -37 -78 -77 -78zM-3 0c34 23 56 42 60 71l5 37c2 13 10 20 21 20h60c9 0 15 -8 14 -19l-5 -42c-9 -65 -56 -101 -105 -135c-37 -26 -64 -49 -64 -91c0 -36 29 -62 63 -62c51 0 99 45 119 68
c7 9 17 7 24 0l34 -32c10 -9 8 -20 1 -28c-5 -6 -75 -97 -190 -97c-85 0 -148 66 -148 143c0 89 60 132 111 167z" />
    <glyph glyph-name="quoteleft" unicode="&#x2018;" horiz-adv-x="194" 
d="M122 420c-27 0 -59 18 -59 77c0 101 76 176 107 205c9 8 16 8 22 1l11 -15c5 -6 3 -16 -5 -23c-10 -9 -68 -53 -78 -124c1 1 11 3 22 3c29 0 50 -25 50 -54c0 -38 -32 -70 -70 -70z" />
    <glyph glyph-name="quoteright" unicode="&#x2019;" horiz-adv-x="192" 
d="M81 427l-11 15c-5 6 -3 16 5 23c10 9 68 53 78 124c-1 -1 -11 -3 -22 -3c-29 0 -50 25 -50 54c0 38 32 70 70 70c27 0 59 -18 59 -77c0 -101 -76 -176 -107 -205c-9 -8 -16 -8 -22 -1z" />
    <glyph glyph-name="quotedblleft" unicode="&#x201c;" horiz-adv-x="365" 
d="M293 420c-27 0 -59 18 -59 77c0 101 76 176 107 205c9 8 16 8 22 1l11 -15c5 -6 3 -16 -5 -23c-10 -9 -68 -53 -78 -124c1 1 11 3 22 3c29 0 50 -25 50 -54c0 -38 -32 -70 -70 -70zM122 420c-27 0 -59 18 -59 77c0 101 76 176 107 205c9 8 16 8 22 1l11 -15
c5 -6 3 -16 -5 -23c-10 -9 -68 -53 -78 -124c1 1 11 3 22 3c29 0 50 -25 50 -54c0 -38 -32 -70 -70 -70z" />
    <glyph glyph-name="quotedblright" unicode="&#x201d;" horiz-adv-x="362" 
d="M252 427l-11 15c-5 6 -3 16 5 23c10 9 68 53 78 124c-1 -1 -11 -3 -22 -3c-29 0 -50 25 -50 54c0 38 32 70 70 70c27 0 59 -18 59 -77c0 -101 -76 -176 -107 -205c-9 -8 -16 -8 -22 -1zM81 427l-11 15c-5 6 -3 16 5 23c10 9 68 53 78 124c-1 -1 -11 -3 -22 -3
c-29 0 -50 25 -50 54c0 38 32 70 70 70c27 0 59 -18 59 -77c0 -101 -76 -176 -107 -205c-9 -8 -16 -8 -22 -1z" />
    <glyph glyph-name="quotesinglbase" unicode="&#x201a;" horiz-adv-x="222" 
d="M15 44c0 38 32 70 70 70c27 0 59 -18 59 -77c0 -101 -76 -176 -107 -205c-9 -8 -16 -8 -22 -1l-11 15c-5 6 -3 16 5 23c10 9 68 53 78 124c-1 -1 -11 -3 -22 -3c-29 0 -50 25 -50 54z" />
    <glyph glyph-name="quotedblbase" unicode="&#x201e;" horiz-adv-x="391" 
d="M184 44c0 38 32 70 70 70c27 0 59 -18 59 -77c0 -101 -76 -176 -107 -205c-9 -8 -16 -8 -22 -1l-11 15c-5 6 -3 16 5 23c10 9 68 53 78 124c-1 -1 -11 -3 -22 -3c-29 0 -50 25 -50 54zM15 44c0 38 32 70 70 70c27 0 59 -18 59 -77c0 -101 -76 -176 -107 -205
c-9 -8 -16 -8 -22 -1l-11 15c-5 6 -3 16 5 23c10 9 68 53 78 124c-1 -1 -11 -3 -22 -3c-29 0 -50 25 -50 54z" />
    <glyph glyph-name="guilsinglleft" unicode="&#x2039;" horiz-adv-x="251" 
d="M96 39l-72 155c-4 8 -2 17 3 24l116 148c4 5 11 12 20 12h44c15 0 18 -15 9 -31l-85 -147l36 -139c4 -16 -2 -30 -18 -30h-41c-6 0 -10 4 -12 8z" />
    <glyph glyph-name="guilsinglright" unicode="&#x203a;" horiz-adv-x="252" 
d="M24 31c-15 0 -18 15 -9 31l85 147l-36 139c-4 16 2 30 18 30h41c6 0 10 -4 12 -8l72 -155c4 -8 2 -17 -3 -24l-116 -148c-4 -5 -11 -12 -20 -12h-44z" />
    <glyph glyph-name="guillemotleft" unicode="&#xab;" horiz-adv-x="421" 
d="M266 39l-72 155c-4 8 -2 17 3 24l116 148c4 5 11 12 20 12h44c15 0 18 -15 9 -31l-85 -147l36 -139c4 -16 -2 -30 -18 -30h-41c-6 0 -10 4 -12 8zM96 39l-72 155c-4 8 -2 17 3 24l116 148c4 5 11 12 20 12h44c15 0 18 -15 9 -31l-85 -147l36 -139c4 -16 -2 -30 -18 -30
h-41c-6 0 -10 4 -12 8z" />
    <glyph glyph-name="guillemotright" unicode="&#xbb;" horiz-adv-x="422" 
d="M185 62l85 147l-36 139c-4 16 2 30 18 30h41c6 0 10 -4 12 -8l72 -155c4 -8 2 -17 -3 -24l-116 -148c-4 -5 -11 -12 -20 -12h-44c-15 0 -18 15 -9 31zM24 31c-15 0 -18 15 -9 31l85 147l-36 139c-4 16 2 30 18 30h41c6 0 10 -4 12 -8l72 -155c4 -8 2 -17 -3 -24
l-116 -148c-4 -5 -11 -12 -20 -12h-44z" />
    <glyph glyph-name="endash" unicode="&#x2013;" horiz-adv-x="515" 
d="M81 216c-10 0 -17 8 -15 18l4 24c2 11 10 19 19 19h349c10 0 17 -8 15 -19l-4 -24c-2 -10 -9 -18 -19 -18h-349z" />
    <glyph glyph-name="emdash" unicode="&#x2014;" horiz-adv-x="713" 
d="M81 216c-10 0 -17 8 -15 18l4 24c2 11 10 19 19 19h547c10 0 17 -8 15 -19l-4 -24c-2 -10 -9 -18 -19 -18h-547z" />
    <glyph glyph-name="bullet" unicode="&#x2022;" horiz-adv-x="341" 
d="M152 107c-54 0 -94 47 -94 103c0 73 63 135 128 135c57 0 98 -48 98 -106c0 -72 -63 -132 -132 -132z" />
    <glyph glyph-name="periodcentered" unicode="&#xb7;" horiz-adv-x="235" 
d="M111 185c-36 0 -62 30 -62 65c0 46 40 83 83 83c37 0 63 -29 63 -66c0 -44 -40 -82 -84 -82z" />
    <glyph glyph-name="uni2219" unicode="&#x2219;" horiz-adv-x="340" 
d="M204 185c-36 0 -62 30 -62 65c0 46 40 83 83 83c37 0 63 -29 63 -66c0 -44 -40 -82 -84 -82z" />
    <glyph glyph-name="dagger" unicode="&#x2020;" horiz-adv-x="556" 
d="M67 310c-9 0 -17 9 -15 19l8 52c2 10 10 19 19 19h159l40 281c1 10 10 19 19 19h75c9 0 16 -9 14 -19l-39 -281h165c9 0 16 -9 14 -19l-8 -52c-2 -10 -9 -19 -18 -19h-170l-109 -594c-1 -8 -11 -16 -20 -16h-14c-8 0 -16 8 -15 16l59 594h-164z" />
    <glyph glyph-name="daggerdbl" unicode="&#x2021;" horiz-adv-x="556" 
d="M36 19l7 52c1 10 11 19 20 19h143l32 308v1h-159c-9 0 -15 9 -14 19l7 52c1 10 11 19 20 19h159l27 192c1 10 10 19 19 19h75c9 0 16 -9 14 -19l-27 -192h166c9 0 14 -9 13 -19l-7 -52c-1 -10 -10 -19 -19 -19h-165l-56 -309h151c9 0 14 -9 13 -19l-7 -52
c-1 -10 -10 -19 -19 -19h-156l-52 -284c-1 -8 -11 -16 -20 -16h-14c-8 0 -16 8 -15 16l27 284h-149c-9 0 -15 9 -14 19z" />
    <glyph glyph-name="section" unicode="&#xa7;" horiz-adv-x="479" 
d="M13 -103c8 11 20 15 32 5c5 -4 66 -63 130 -63c41 0 87 26 99 78c14 61 -23 102 -101 144c-72 37 -135 94 -135 178c0 88 65 139 87 153c-13 11 -48 53 -48 120c0 87 61 198 212 198c95 0 155 -50 166 -58c7 -7 11 -17 2 -32l-28 -37c-9 -12 -18 -14 -31 -5
c-9 6 -63 44 -118 44c-67 0 -103 -52 -103 -93c0 -44 32 -77 92 -107c83 -42 160 -92 160 -185c0 -87 -69 -146 -90 -160c13 -10 49 -55 49 -125c0 -115 -92 -202 -224 -202c-97 0 -164 64 -177 78c-8 8 -13 17 0 34zM136 253c0 -60 55 -83 130 -131c0 0 56 31 56 100
c0 48 -43 77 -115 116c-6 4 -13 8 -20 11c-5 -3 -51 -31 -51 -96z" />
    <glyph glyph-name="paragraph" unicode="&#xb6;" horiz-adv-x="636" 
d="M171 -281l79 562h-39c-92 0 -161 80 -161 182c0 127 99 237 207 237h407c9 0 15 -9 14 -19l-5 -33c-1 -11 -10 -19 -19 -19h-78l-128 -910c-2 -10 -10 -19 -20 -19h-41c-9 0 -16 9 -14 19l128 909h-128l-128 -909c-1 -10 -11 -19 -20 -19h-40c-9 0 -15 9 -14 19z" />
    <glyph glyph-name="brokenbar.case" horiz-adv-x="333" 
d="M200 512c-9 0 -16 8 -15 18l47 331c1 11 11 19 20 19h10c9 0 15 -8 13 -19l-46 -331c-2 -10 -11 -18 -20 -18h-9zM135 169c1 11 10 19 19 19h11c9 0 15 -8 13 -19l-46 -331c-2 -10 -11 -18 -20 -18h-9c-9 0 -16 8 -15 18z" />
    <glyph glyph-name="copyright" unicode="&#xa9;" horiz-adv-x="739" 
d="M53 303c0 222 173 407 378 407c154 0 277 -141 277 -313c0 -223 -172 -406 -378 -406c-155 0 -277 140 -277 312zM120 311c0 -138 91 -251 220 -251c156 0 301 149 301 329c0 139 -91 251 -220 251c-156 0 -301 -147 -301 -329zM218 323c0 118 85 213 197 213
c36 0 72 -12 98 -38c7 -8 6 -20 -3 -29l-27 -28c-8 -9 -16 -8 -23 -2c-15 13 -37 17 -56 17c-57 0 -105 -55 -105 -122c0 -51 29 -93 75 -93c18 0 40 10 58 23c9 6 17 6 23 -2l23 -31c6 -8 4 -20 -5 -28c-35 -32 -72 -42 -111 -42c-79 0 -144 73 -144 162z" />
    <glyph glyph-name="registered" unicode="&#xae;" horiz-adv-x="739" 
d="M53 303c0 222 173 407 378 407c154 0 277 -141 277 -313c0 -223 -172 -406 -378 -406c-155 0 -277 140 -277 312zM120 311c0 -138 91 -251 220 -251c156 0 301 149 301 329c0 139 -91 251 -220 251c-156 0 -301 -147 -301 -329zM240 187l46 328c1 10 10 19 20 19h135
c51 0 96 -42 96 -101c0 -82 -51 -111 -85 -124c10 -37 22 -78 31 -114c4 -13 -7 -27 -19 -27h-40c-7 0 -13 7 -14 14l-27 118h-56l-16 -113c-1 -10 -9 -19 -19 -19h-38c-10 0 -16 9 -14 19zM334 366h77c27 0 49 26 49 57c0 24 -14 41 -35 41h-77z" />
    <glyph glyph-name="trademark" unicode="&#x2122;" horiz-adv-x="649" 
d="M319 391c-12 0 -18 11 -14 23l85 276c3 8 8 15 20 15h3c8 0 13 -6 14 -11l49 -199l107 199c3 5 7 11 17 11h3c9 0 15 -7 15 -15l9 -277c0 -12 -9 -22 -20 -22h-29c-10 0 -15 8 -15 17l-2 145l-82 -156c-3 -5 -9 -9 -16 -9h-5c-7 0 -13 4 -14 10l-35 155l-45 -146
c-2 -8 -9 -16 -20 -16h-25zM149 391c-10 0 -16 9 -14 19l32 228h-59c-9 0 -17 8 -15 19l4 24c2 10 9 19 19 19h181c10 0 17 -9 15 -19l-4 -24c-2 -11 -10 -19 -19 -19h-60l-32 -228c-1 -10 -10 -19 -19 -19h-29z" />
    <glyph glyph-name="currency" unicode="&#xa4;" horiz-adv-x="437" 
d="M85 167l-29 32c-6 6 -4 20 4 27l48 44c-12 40 -2 87 20 126l-34 45c-5 7 -4 21 4 27l33 27c8 6 19 7 24 0l35 -44c35 21 76 23 106 1l47 45c7 7 18 6 24 -1l28 -32c6 -7 5 -19 -3 -26l-47 -44c12 -39 4 -86 -18 -126l34 -44c5 -7 4 -19 -4 -26l-33 -28
c-7 -7 -18 -8 -23 -1l-36 45c-36 -21 -78 -24 -109 -2l-47 -45c-7 -7 -18 -6 -24 0zM216 269c28 0 52 28 57 63c3 35 -14 63 -42 63c-29 0 -52 -28 -56 -63s12 -63 41 -63z" />
    <glyph glyph-name="Euro" unicode="&#x20ac;" horiz-adv-x="672" 
d="M46 251c-9 0 -15 9 -13 19l2 10c2 10 9 19 18 19h36c-1 16 2 57 7 72h-33c-9 0 -15 9 -13 19l2 10c2 10 9 19 18 19h38c47 167 189 291 360 291c91 0 152 -34 205 -93c7 -8 6 -21 -3 -28l-47 -40c-9 -8 -19 -9 -26 0c-35 41 -88 62 -141 62c-101 0 -194 -83 -234 -192
h222c10 0 17 -9 15 -19l-2 -11c-2 -10 -10 -18 -20 -18h-229c-5 -18 -8 -57 -6 -72h189c10 0 17 -9 15 -19l-2 -11c-2 -10 -10 -18 -20 -18h-176c18 -92 85 -159 176 -159c60 0 107 32 154 69c8 7 17 6 21 1l45 -48c6 -7 2 -20 -5 -27c-70 -66 -152 -97 -232 -97
c-149 0 -258 109 -275 261h-46z" />
    <glyph glyph-name="cent" unicode="&#xa2;" horiz-adv-x="381" 
d="M106 6c-55 28 -94 90 -94 165c0 134 105 239 222 239c9 0 18 -1 26 -3l16 42c4 10 14 16 23 13l10 -3c8 -2 12 -12 8 -23l-17 -43c24 -12 43 -32 56 -54c5 -9 2 -21 -7 -28l-36 -25c-12 -8 -18 -3 -23 4c-6 8 -13 15 -21 20l-90 -234h5c42 0 65 31 82 52c8 9 16 8 23 2
l36 -28c9 -7 10 -18 2 -28c-37 -50 -89 -84 -152 -84c-10 0 -19 1 -28 3l-37 -97c-4 -10 -14 -16 -23 -13l-9 3c-8 3 -13 12 -9 22zM139 92l89 231h-1c-60 0 -119 -68 -119 -146c0 -37 11 -68 31 -85z" />
    <glyph glyph-name="sterling" unicode="&#xa3;" horiz-adv-x="460" 
d="M39 19l3 18c58 94 72 180 70 255h-40c-11 0 -16 9 -14 19l2 12c2 10 10 17 19 17h29c-3 25 -9 75 -9 117c0 164 96 253 217 253c77 0 127 -50 148 -71c7 -7 6 -18 -2 -26l-38 -38c-11 -11 -18 -9 -25 -2c-11 12 -45 47 -90 47c-61 0 -111 -54 -111 -150
c0 -47 11 -101 13 -130h117c10 0 17 -8 15 -18l-2 -13c-2 -10 -10 -17 -20 -17h-108c0 -50 -14 -140 -43 -205h190c9 0 15 -8 14 -19l-7 -49c-2 -10 -10 -19 -19 -19h-294c-9 0 -16 9 -15 19z" />
    <glyph glyph-name="florin" unicode="&#x192;" horiz-adv-x="326" 
d="M42 -124l62 442h-64c-10 0 -16 9 -15 19l6 44c2 11 10 19 20 19h64l18 124c17 123 86 186 189 186c51 0 81 -25 95 -40c6 -6 5 -17 0 -24l-30 -40c-7 -9 -16 -10 -23 -3c-10 9 -29 19 -54 19c-35 0 -69 -29 -79 -98l-18 -124h94c10 0 16 -8 15 -19l-6 -44
c-2 -10 -10 -19 -20 -19h-94l-62 -443c-18 -123 -85 -185 -190 -185c-51 0 -80 24 -94 40c-5 6 -5 16 -1 23l31 40c7 9 16 10 23 3s26 -19 53 -19c35 0 70 29 80 99z" />
    <glyph glyph-name="yen" unicode="&#xa5;" horiz-adv-x="572" 
d="M108 121c-9 0 -15 9 -14 19l1 10c2 10 10 19 19 19h104l10 72h-104c-9 0 -14 9 -13 19l1 10c2 10 10 19 19 19h104l7 48l-162 337c-5 13 3 26 17 26h71c11 0 14 -4 17 -11l117 -254h2l192 254c5 6 10 11 20 11h79c15 0 18 -13 9 -26l-258 -336l-7 -49h103
c10 0 16 -9 15 -19l-2 -11c-1 -10 -10 -18 -19 -18h-104l-10 -72h103c10 0 16 -9 15 -19l-2 -11c-1 -10 -9 -18 -19 -18h-104l-14 -102c-1 -10 -11 -19 -20 -19h-69c-10 0 -16 9 -15 19l14 102h-103z" />
    <glyph glyph-name="ordfeminine" unicode="&#xaa;" horiz-adv-x="289" 
d="M131 401c-49 0 -80 39 -71 99c7 54 51 95 118 95c28 0 45 -9 45 -9c7 46 9 66 -25 66c-31 0 -60 -11 -76 -15c-7 -2 -11 3 -12 13l-2 25c-1 9 3 14 10 17c5 3 46 18 94 18c82 0 84 -56 74 -131l-22 -156c-1 -8 -8 -14 -15 -14h-22c-7 0 -9 3 -11 10c-1 7 -3 14 -3 21
c-18 -16 -40 -39 -82 -39zM152 456c26 0 46 20 57 37l6 44c-6 5 -25 12 -41 12c-28 0 -48 -20 -52 -48c-4 -25 9 -45 30 -45z" />
    <glyph glyph-name="ordmasculine" unicode="&#xba;" horiz-adv-x="293" 
d="M162 394c-61 0 -95 47 -95 122c0 116 51 193 139 193c58 0 95 -47 95 -122c0 -117 -51 -193 -139 -193zM170 455c37 0 62 50 62 126c0 41 -12 67 -35 67c-37 0 -60 -54 -60 -129c0 -39 12 -64 33 -64z" />
    <glyph glyph-name="onesuperior" unicode="&#xb9;" horiz-adv-x="188" 
d="M119 504c-6 0 -9 4 -8 9l28 201l-43 -7c-5 -1 -7 1 -7 6v27c0 5 2 8 7 11l73 49h41c4 0 8 -4 7 -9l-40 -278c0 -5 -4 -9 -9 -9h-49z" />
    <glyph glyph-name="twosuperior" unicode="&#xb2;" horiz-adv-x="269" 
d="M81 504c-6 0 -9 2 -8 9l2 15l121 130c23 23 33 40 33 58s-12 36 -36 36c-17 0 -36 -13 -47 -25c-5 -5 -10 -3 -13 1l-18 30c-3 6 -3 10 5 18c4 4 38 34 86 34c53 0 90 -36 90 -78c0 -38 -19 -68 -50 -101l-65 -73h82c6 0 8 -4 7 -10l-5 -35c-1 -5 -3 -9 -9 -9h-175z" />
    <glyph glyph-name="threesuperior" unicode="&#xb3;" horiz-adv-x="260" 
d="M157 494c-46 0 -74 28 -82 37c-4 5 -4 9 1 14l19 24c5 5 10 4 14 0c6 -6 23 -20 49 -20s48 17 48 43c0 19 -14 36 -44 36h-26c-9 0 -12 3 -11 11l3 28c1 8 7 12 15 12h27c30 0 50 18 50 42c0 20 -16 33 -35 33c-17 0 -33 -12 -43 -20c-4 -3 -8 -5 -13 1l-19 28
c-3 4 -3 11 3 15c11 8 37 32 81 32c54 0 93 -32 93 -76c0 -42 -33 -67 -57 -77v-2c17 -8 44 -31 44 -66c0 -57 -47 -95 -117 -95z" />
    <glyph glyph-name="fraction" unicode="&#x2044;" horiz-adv-x="107" 
d="M-68 10c-2 -4 -9 -10 -16 -10h-39c-13 0 -19 14 -11 27l402 663c4 6 9 10 16 10h41c13 0 19 -14 11 -27z" />
    <glyph glyph-name="uni2215" unicode="&#x2215;" horiz-adv-x="556" 
d="M15 0c-13 0 -19 14 -11 27l402 663c4 6 9 10 16 10h41c13 0 19 -14 11 -27l-404 -663c-2 -4 -9 -10 -16 -10h-39z" />
    <glyph glyph-name="onehalf" unicode="&#xbd;" horiz-adv-x="602" 
d="M51 27l402 663c4 6 9 10 16 10h41c13 0 19 -14 11 -27l-404 -663c-2 -4 -9 -10 -16 -10h-39c-13 0 -19 14 -11 27zM110 404c-6 0 -9 4 -8 9l28 201l-43 -7c-5 -1 -7 1 -7 6v27c0 5 2 8 7 11l73 49h41c4 0 8 -4 7 -9l-40 -278c0 -5 -4 -9 -9 -9h-49zM313 9l2 15l121 130
c23 23 33 40 33 58s-12 36 -36 36c-17 0 -36 -13 -47 -25c-5 -5 -10 -3 -13 1l-18 30c-3 6 -3 10 5 18c4 4 38 34 86 34c53 0 90 -36 90 -78c0 -38 -19 -68 -50 -101l-65 -73h82c6 0 8 -4 7 -10l-5 -35c-1 -5 -3 -9 -9 -9h-175c-6 0 -9 2 -8 9z" />
    <glyph glyph-name="onethird" unicode="&#x2153;" horiz-adv-x="601" 
d="M65 27l402 663c4 6 9 10 16 10h41c13 0 19 -14 11 -27l-404 -663c-2 -4 -9 -10 -16 -10h-39c-13 0 -19 14 -11 27zM124 404c-6 0 -9 4 -8 9l28 201l-43 -7c-5 -1 -7 1 -7 6v27c0 5 2 8 7 11l73 49h41c4 0 8 -4 7 -9l-40 -278c0 -5 -4 -9 -9 -9h-49zM341 27
c-4 5 -4 9 1 14l19 24c5 5 10 4 14 0c6 -6 23 -20 49 -20s48 17 48 43c0 19 -14 36 -44 36h-26c-9 0 -12 3 -11 11l3 28c1 8 7 12 15 12h27c30 0 48 18 48 42c0 20 -14 33 -33 33c-17 0 -33 -12 -43 -20c-4 -3 -8 -5 -13 1l-19 28c-3 4 -3 11 3 15c0 0 27 32 85 32
c47 0 89 -28 89 -72c0 -42 -33 -71 -57 -81v-2c17 -8 44 -31 44 -66c0 -57 -47 -95 -117 -95c-46 0 -74 28 -82 37z" />
    <glyph glyph-name="onequarter" unicode="&#xbc;" horiz-adv-x="623" 
d="M51 27l402 663c4 6 9 10 16 10h41c13 0 19 -14 11 -27l-404 -663c-2 -4 -9 -10 -16 -10h-39c-13 0 -19 14 -11 27zM110 404c-6 0 -9 4 -8 9l28 201l-43 -7c-5 -1 -7 1 -7 6v27c0 5 2 8 7 11l73 49h41c4 0 8 -4 7 -9l-40 -278c0 -5 -4 -9 -9 -9h-49zM306 66l6 40l175 187
c2 2 5 3 7 3h32c4 0 8 -4 8 -9l-25 -178h35c5 0 8 -4 7 -8l-5 -34c-1 -5 -4 -9 -9 -9h-36l-6 -49c-1 -5 -6 -9 -11 -9h-44c-4 0 -8 4 -8 9l7 49h-126c-4 0 -8 4 -7 8zM381 109h67l14 93z" />
    <glyph glyph-name="oneeighth" unicode="&#x215b;" horiz-adv-x="601" 
d="M65 27l402 663c4 6 9 10 16 10h41c13 0 19 -14 11 -27l-404 -663c-2 -4 -9 -10 -16 -10h-39c-13 0 -19 14 -11 27zM124 404c-6 0 -9 4 -8 9l28 201l-43 -7c-5 -1 -7 1 -7 6v27c0 5 2 8 7 11l73 49h41c4 0 8 -4 7 -9l-40 -278c0 -5 -4 -9 -9 -9h-49zM354 66
c0 50 53 81 64 86v1c-15 8 -36 30 -36 61c0 55 48 92 110 92c51 0 89 -30 89 -73s-36 -70 -57 -80v-1c18 -8 43 -31 43 -67c0 -53 -45 -95 -120 -95c-58 0 -93 33 -93 76zM448 212c0 -16 9 -28 27 -32c23 4 37 21 37 41c0 17 -11 31 -28 31c-18 0 -36 -18 -36 -40zM424 75
c0 -19 15 -31 32 -31c22 0 42 16 42 41c0 17 -10 33 -31 37c-25 -4 -43 -26 -43 -47z" />
    <glyph glyph-name="twothirds" unicode="&#x2154;" horiz-adv-x="601" 
d="M14 404c-6 0 -9 2 -8 9l2 15l121 130c23 23 33 40 33 58s-12 36 -36 36c-17 0 -36 -13 -47 -25c-5 -5 -10 -3 -13 1l-18 30c-3 6 -3 10 5 18c4 4 38 34 86 34c53 0 90 -36 90 -78c0 -38 -19 -68 -50 -101l-65 -73h82c6 0 8 -4 7 -10l-5 -35c-1 -5 -3 -9 -9 -9h-175z
M65 27l402 663c4 6 9 10 16 10h41c13 0 19 -14 11 -27l-404 -663c-2 -4 -9 -10 -16 -10h-39c-13 0 -19 14 -11 27zM341 27c-4 5 -4 9 1 14l19 24c5 5 10 4 14 0c6 -6 23 -20 49 -20s48 17 48 43c0 19 -14 36 -44 36h-26c-9 0 -12 3 -11 11l3 28c1 8 7 12 15 12h27
c30 0 50 18 50 42c0 20 -16 33 -35 33c-17 0 -33 -12 -43 -20c-4 -3 -8 -5 -13 1l-19 28c-3 4 -3 11 3 15c11 8 37 32 81 32c54 0 93 -32 93 -76c0 -42 -33 -67 -57 -77v-2c17 -8 44 -31 44 -66c0 -57 -47 -95 -117 -95c-46 0 -74 28 -82 37z" />
    <glyph glyph-name="threequarters" unicode="&#xbe;" horiz-adv-x="673" 
d="M141 394c-46 0 -74 28 -82 37c-4 5 -4 9 1 14l19 24c5 5 10 4 14 0c6 -6 23 -20 49 -20s48 17 48 43c0 19 -14 36 -44 36h-26c-9 0 -12 3 -11 11l3 28c1 8 7 12 15 12h27c30 0 50 18 50 42c0 20 -16 33 -35 33c-17 0 -33 -12 -43 -20c-4 -3 -8 -5 -13 1l-19 28
c-3 4 -3 11 3 15c11 8 37 32 81 32c54 0 93 -32 93 -76c0 -42 -33 -67 -57 -77v-2c17 -8 44 -31 44 -66c0 -57 -47 -95 -117 -95zM101 27l402 663c4 6 9 10 16 10h41c13 0 19 -14 11 -27l-404 -663c-2 -4 -9 -10 -16 -10h-39c-13 0 -19 14 -11 27zM356 66l6 40l175 187
c2 2 5 3 7 3h32c4 0 8 -4 8 -9l-25 -178h35c5 0 8 -4 7 -8l-5 -34c-1 -5 -4 -9 -9 -9h-36l-6 -49c-1 -5 -6 -9 -11 -9h-44c-4 0 -8 4 -8 9l7 49h-126c-4 0 -8 4 -7 8zM431 109h67l14 93z" />
    <glyph glyph-name="threeeighths" unicode="&#x215c;" horiz-adv-x="601" 
d="M105 394c-46 0 -74 28 -82 37c-4 5 -4 9 1 14l19 24c5 5 10 4 14 0c6 -6 23 -20 49 -20s48 17 48 43c0 19 -14 36 -44 36h-26c-9 0 -12 3 -11 11l3 28c1 8 7 12 15 12h27c30 0 50 18 50 42c0 20 -16 33 -35 33c-17 0 -33 -12 -43 -20c-4 -3 -8 -5 -13 1l-19 28
c-3 4 -3 11 3 15c11 8 37 32 81 32c54 0 93 -32 93 -76c0 -42 -33 -67 -57 -77v-2c17 -8 44 -31 44 -66c0 -57 -47 -95 -117 -95zM65 27l402 663c4 6 9 10 16 10h41c13 0 19 -14 11 -27l-404 -663c-2 -4 -9 -10 -16 -10h-39c-13 0 -19 14 -11 27zM354 66c0 50 53 81 64 86v1
c-15 8 -36 30 -36 61c0 55 48 92 110 92c51 0 89 -30 89 -73s-36 -70 -57 -80v-1c18 -8 43 -31 43 -67c0 -53 -45 -95 -120 -95c-58 0 -93 33 -93 76zM448 212c0 -16 9 -28 27 -32c23 4 37 21 37 41c0 17 -11 31 -28 31c-18 0 -36 -18 -36 -40zM424 75c0 -19 15 -31 32 -31
c22 0 42 16 42 41c0 17 -10 33 -31 37c-25 -4 -43 -26 -43 -47z" />
    <glyph glyph-name="fiveeighths" unicode="&#x215d;" horiz-adv-x="601" 
d="M65 27l402 663c4 6 9 10 16 10h41c13 0 19 -14 11 -27l-404 -663c-2 -4 -9 -10 -16 -10h-39c-13 0 -19 14 -11 27zM99 394c-43 0 -72 24 -82 38c-3 6 -4 9 1 15l23 23c5 5 8 6 13 1c7 -7 24 -21 54 -21c28 0 54 25 54 55c0 22 -15 38 -42 38h-68c-9 0 -13 8 -12 16
l19 132c1 5 5 9 9 9h143c5 0 8 -4 7 -9l-5 -36c-1 -4 -5 -8 -9 -8h-97l-7 -50h36c58 0 90 -36 90 -86c0 -68 -48 -117 -127 -117zM354 66c0 50 53 81 64 86v1c-15 8 -36 30 -36 61c0 55 48 92 110 92c51 0 89 -30 89 -73s-36 -70 -57 -80v-1c18 -8 43 -31 43 -67
c0 -53 -45 -95 -120 -95c-58 0 -93 33 -93 76zM448 212c0 -16 9 -28 27 -32c23 4 37 21 37 41c0 17 -11 31 -28 31c-18 0 -36 -18 -36 -40zM424 75c0 -19 15 -31 32 -31c22 0 42 16 42 41c0 17 -10 33 -31 37c-25 -4 -43 -26 -43 -47z" />
    <glyph glyph-name="seveneighths" unicode="&#x215e;" horiz-adv-x="601" 
d="M65 27l402 663c4 6 9 10 16 10h41c13 0 19 -14 11 -27l-404 -663c-2 -4 -9 -10 -16 -10h-39c-13 0 -19 14 -11 27zM62 404c-5 0 -9 1 -8 7l1 7l140 227h-106c-5 0 -8 4 -7 9l5 37c1 5 5 9 9 9h180c4 0 8 -4 7 -9l-2 -13l-158 -265c-5 -7 -9 -9 -15 -9h-46zM354 66
c0 50 53 81 64 86v1c-15 8 -36 30 -36 61c0 55 48 92 110 92c51 0 89 -30 89 -73s-36 -70 -57 -80v-1c18 -8 43 -31 43 -67c0 -53 -45 -95 -120 -95c-58 0 -93 33 -93 76zM448 212c0 -16 9 -28 27 -32c23 4 37 21 37 41c0 17 -11 31 -28 31c-18 0 -36 -18 -36 -40zM424 75
c0 -19 15 -31 32 -31c22 0 42 16 42 41c0 17 -10 33 -31 37c-25 -4 -43 -26 -43 -47z" />
    <glyph glyph-name="perthousand" unicode="&#x2030;" horiz-adv-x="887" 
d="M185 440c-58 0 -105 52 -105 117c0 84 62 153 141 153c58 0 105 -52 105 -117c0 -85 -63 -153 -141 -153zM79 27l402 663c4 6 9 10 16 10h41c13 0 19 -14 11 -27l-404 -663c-2 -4 -9 -10 -16 -10h-39c-13 0 -19 14 -11 27zM194 511c31 0 59 33 59 73c0 28 -16 53 -41 53
c-31 0 -59 -33 -59 -72c0 -30 16 -54 41 -54zM584 107c0 84 62 153 141 153c58 0 105 -52 105 -117c0 -85 -63 -153 -141 -153c-58 0 -105 52 -105 117zM309 107c0 84 62 153 141 153c58 0 105 -52 105 -117c0 -85 -63 -153 -141 -153c-58 0 -105 52 -105 117zM657 115
c0 -30 16 -54 41 -54c31 0 59 33 59 73c0 28 -16 53 -41 53c-31 0 -59 -33 -59 -72zM382 115c0 -30 16 -54 41 -54c31 0 59 33 59 73c0 28 -16 53 -41 53c-31 0 -59 -33 -59 -72z" />
    <glyph glyph-name="minus" unicode="&#x2212;" horiz-adv-x="475" 
d="M66 307c-9 0 -15 9 -14 19l6 42c1 10 10 19 19 19h351c9 0 15 -9 14 -19l-6 -42c-1 -10 -10 -19 -19 -19h-351z" />
    <glyph glyph-name="plusminus" unicode="&#xb1;" horiz-adv-x="532" 
d="M238 245c-9 0 -16 8 -15 18l16 110h-132c-9 0 -16 9 -15 19l6 42c1 10 11 19 20 19h132l21 148c1 10 10 18 19 18h51c9 0 15 -8 14 -18l-21 -148h134c9 0 15 -9 14 -19l-6 -42c-1 -10 -10 -19 -19 -19h-134l-15 -110c-1 -10 -11 -18 -20 -18h-50zM62 52
c-9 0 -15 9 -14 19l5 42c1 10 11 19 20 19h351c9 0 14 -9 13 -19l-6 -42c-1 -10 -9 -19 -18 -19h-351z" />
    <glyph glyph-name="multiply" unicode="&#xd7;" horiz-adv-x="443" 
d="M89 180l-30 34c-6 6 -3 19 4 26l114 110l-80 107c-5 7 -3 20 4 27l30 26c8 7 19 7 25 0l80 -107l113 112c7 7 17 5 23 -1l30 -34c6 -6 4 -19 -3 -26l-115 -113l81 -105c6 -7 4 -21 -4 -27l-31 -25c-8 -7 -19 -8 -24 -1l-81 106l-113 -109c-7 -7 -17 -6 -23 0z" />
    <glyph glyph-name="divide" unicode="&#xf7;" horiz-adv-x="478" 
d="M263 471c-29 0 -50 26 -50 55c0 39 34 71 68 71c30 0 51 -25 51 -55c0 -38 -33 -71 -69 -71zM68 306c-9 0 -15 9 -14 19l6 42c1 10 10 19 19 19h351c9 0 15 -9 14 -19l-6 -42c-1 -10 -10 -19 -19 -19h-351zM161 157c0 39 32 71 68 71c30 0 51 -25 51 -55
c0 -38 -33 -71 -68 -71c-30 0 -51 25 -51 55z" />
    <glyph glyph-name="notequal" unicode="&#x2260;" horiz-adv-x="410" 
d="M117 54c-7 4 -10 15 -5 24l31 55h-62c-10 0 -17 9 -15 19l7 44c2 10 9 19 19 19h99l69 129h-150c-9 0 -15 9 -14 19l6 43c1 10 10 19 20 19h186l42 76c5 10 14 15 24 9l8 -5c8 -5 11 -14 5 -24l-31 -56h52c10 0 15 -9 14 -19l-6 -43c-1 -10 -10 -19 -20 -19h-88l-68 -129
h138c10 0 17 -9 15 -19l-7 -44c-1 -10 -9 -19 -19 -19h-175l-42 -75c-5 -10 -17 -13 -24 -9z" />
    <glyph glyph-name="approxequal" unicode="&#x2248;" horiz-adv-x="410" 
d="M106 323l-28 22c-7 6 -6 15 0 22c-2 -4 52 82 119 82c33 0 52 -20 66 -33c13 -11 23 -29 43 -29c28 0 49 27 59 42c7 10 15 12 24 5l26 -22c5 -4 4 -14 -2 -21c1 2 -44 -80 -113 -80c-54 0 -67 62 -110 62c-30 0 -51 -28 -62 -44c-6 -9 -14 -13 -22 -6zM90 132l-28 22
c-7 6 -6 15 0 22c-2 -4 52 82 119 82c33 0 52 -20 66 -33c13 -11 23 -29 43 -29c28 0 49 27 59 42c7 10 15 12 24 5l26 -22c5 -4 4 -14 -2 -21c1 2 -44 -80 -113 -80c-54 0 -67 62 -110 62c-30 0 -51 -28 -62 -44c-6 -9 -14 -13 -22 -6z" />
    <glyph glyph-name="lessequal" unicode="&#x2264;" horiz-adv-x="453" 
d="M51 383c-5 3 -8 7 -7 17l1 10c1 7 5 10 12 14l381 190c10 6 19 0 17 -13l-8 -63c-1 -6 -5 -12 -10 -15l-266 -123l232 -121c4 -3 6 -9 5 -15l-8 -53c-2 -14 -13 -19 -21 -13zM13 52c-9 0 -15 9 -14 19l5 42c1 10 11 19 20 19h349c9 0 14 -9 13 -19l-6 -42
c-1 -10 -9 -19 -18 -19h-349z" />
    <glyph glyph-name="greaterequal" unicode="&#x2265;" horiz-adv-x="453" 
d="M35 198c-10 -6 -19 -1 -17 13l8 63c1 8 4 13 9 15l266 121l-232 123c-4 2 -5 9 -4 15l8 53c2 13 11 19 21 13l327 -190c6 -3 7 -7 6 -14l-1 -10c-1 -10 -4 -14 -11 -17zM12 52c-9 0 -14 9 -13 19l5 42c1 10 10 19 19 19h349c9 0 15 -9 14 -19l-6 -42
c-1 -10 -10 -19 -19 -19h-349z" />
    <glyph glyph-name="logicalnot" unicode="&#xac;" horiz-adv-x="469" 
d="M48 307c-9 0 -15 9 -14 19l6 42c1 10 10 19 19 19h350c10 0 16 -10 15 -19l-31 -215c-1 -10 -10 -18 -19 -18h-43c-9 0 -16 8 -15 18l22 154h-290z" />
    <glyph glyph-name="Delta" unicode="&#x2206;" horiz-adv-x="694" 
d="M-10 0c-23 0 -27 15 -13 41l364 662c3 5 10 9 15 9h5c6 0 10 -3 12 -9l177 -664c4 -18 0 -39 -23 -39h-537zM117 95l312 1l-96 409h-2z" />
    <glyph glyph-name="uni0394" unicode="&#x394;" horiz-adv-x="694" 
d="M-10 0c-23 0 -27 15 -13 41l364 662c3 5 10 9 15 9h5c6 0 10 -3 12 -9l177 -664c4 -18 0 -39 -23 -39h-537zM117 95l312 1l-96 409h-2z" />
    <glyph glyph-name="Omega" unicode="&#x2126;" horiz-adv-x="781" 
d="M1 0c-7 0 -12 7 -12 14v2l9 64c1 9 8 16 16 16h97c-54 42 -91 125 -91 213c0 221 178 401 378 401c163 0 282 -141 282 -306c0 -118 -72 -256 -153 -308h86c7 0 12 -6 12 -14v-2l-9 -64c-1 -8 -8 -16 -16 -16h-238c-9 0 -14 8 -13 16l4 41c2 19 11 25 24 30
c117 49 198 177 198 304c0 122 -75 219 -189 219c-142 0 -263 -146 -263 -305c0 -95 44 -181 125 -218c9 -5 16 -9 14 -23l-6 -48c-1 -8 -9 -16 -17 -16h-238z" />
    <glyph glyph-name="uni03A9" unicode="&#x3a9;" horiz-adv-x="781" 
d="M1 0c-7 0 -12 7 -12 14v2l9 64c1 9 8 16 16 16h97c-54 42 -91 125 -91 213c0 221 178 401 378 401c163 0 282 -141 282 -306c0 -118 -72 -256 -153 -308h86c7 0 12 -6 12 -14v-2l-9 -64c-1 -8 -8 -16 -16 -16h-238c-9 0 -14 8 -13 16l4 41c2 19 11 25 24 30
c117 49 198 177 198 304c0 122 -75 219 -189 219c-142 0 -263 -146 -263 -305c0 -95 44 -181 125 -218c9 -5 16 -9 14 -23l-6 -48c-1 -8 -9 -16 -17 -16h-238z" />
    <glyph glyph-name="mu" unicode="&#xb5;" horiz-adv-x="479" 
d="M119 -2l-38 -279c-1 -10 -11 -19 -20 -19h-59c-9 0 -16 9 -14 19l90 662c2 10 11 19 20 19h61c9 0 16 -9 15 -19l-29 -204c-9 -65 13 -101 57 -101c46 0 87 52 91 63l33 242c2 16 9 19 23 19h55c9 0 16 -9 15 -19l-51 -362c-1 -10 -10 -19 -20 -19h-29c-9 0 -12 7 -14 16
l-6 29c-10 -10 -55 -55 -127 -55c-20 0 -38 3 -53 8z" />
    <glyph glyph-name="uni03BC" unicode="&#x3bc;" horiz-adv-x="479" 
d="M119 -2l-38 -279c-1 -10 -11 -19 -20 -19h-59c-9 0 -16 9 -14 19l90 662c2 10 11 19 20 19h61c9 0 16 -9 15 -19l-29 -204c-9 -65 13 -101 57 -101c46 0 87 52 91 63l33 242c2 16 9 19 23 19h55c9 0 16 -9 15 -19l-51 -362c-1 -10 -10 -19 -20 -19h-29c-9 0 -12 7 -14 16
l-6 29c-10 -10 -55 -55 -127 -55c-20 0 -38 3 -53 8z" />
    <glyph glyph-name="pi" unicode="&#x3c0;" horiz-adv-x="655" 
d="M117 16l42 301h-77c-9 0 -13 8 -12 16l7 51c1 9 9 16 17 16h511c9 0 12 -7 11 -16l-7 -51c-1 -9 -7 -16 -16 -16h-80l-42 -301c-2 -9 -10 -16 -18 -16h-68c-8 0 -12 8 -11 16l42 301h-159l-42 -301c-2 -9 -11 -16 -19 -16h-67c-8 0 -13 8 -12 16z" />
    <glyph glyph-name="degree" unicode="&#xb0;" horiz-adv-x="297" 
d="M171 440c-58 0 -105 52 -105 117c0 84 62 153 141 153c58 0 105 -52 105 -117c0 -85 -63 -153 -141 -153zM180 511c31 0 59 33 59 73c0 28 -16 53 -41 53c-31 0 -59 -33 -59 -72c0 -30 16 -54 41 -54z" />
    <glyph glyph-name="afii61289" unicode="&#x2113;" horiz-adv-x="505" 
d="M150 -10c-86 0 -116 78 -103 161c3 22 9 43 14 64c-15 -5 -34 -10 -44 -12c-9 -1 -14 2 -14 10l1 29c1 10 2 18 15 20c21 4 43 10 63 17c9 30 18 58 27 89c69 218 132 342 232 342c68 0 92 -63 82 -134c-25 -175 -159 -290 -298 -345c-9 -26 -16 -49 -20 -78
c-8 -53 -2 -104 53 -104c64 0 115 27 142 44c13 8 19 6 22 -3l7 -19c4 -12 6 -15 -5 -24c-9 -7 -83 -57 -174 -57zM144 297c113 51 200 143 220 279c7 47 0 76 -31 76c-61 0 -112 -112 -169 -294z" />
    <glyph glyph-name="estimated" unicode="&#x212e;" horiz-adv-x="823" 
d="M110 162c36 -73 113 -116 200 -116c65 0 136 31 198 84c8 7 17 12 24 1l11 -18c5 -9 3 -15 -7 -25c-72 -65 -154 -98 -234 -98c-183 0 -305 157 -277 359c29 203 195 361 378 361c181 0 303 -159 276 -362c-3 -20 -10 -27 -24 -27h-523zM140 375h432l23 160
c-39 73 -109 118 -200 118c-93 0 -173 -42 -232 -116z" />
    <glyph glyph-name="eng" unicode="&#x14b;" horiz-adv-x="478" 
d="M28 19l50 362c1 10 9 19 20 19h30c7 0 12 -5 13 -12l7 -34c10 9 63 56 134 56c112 0 142 -86 128 -190l-49 -344c-17 -124 -87 -186 -182 -186c-51 0 -88 24 -103 40c-5 5 -5 16 0 23l25 37c6 9 17 11 25 5c10 -8 32 -18 56 -18c40 0 75 31 85 99l48 347
c9 64 -11 100 -56 100c-52 0 -94 -46 -102 -58l-35 -246c-2 -13 -7 -19 -25 -19h-55c-9 0 -16 9 -14 19z" />
    <glyph glyph-name="Eng" unicode="&#x14a;" horiz-adv-x="717" 
d="M58 19l95 673c1 10 11 18 20 18h25l313 -499h2l63 470c1 10 9 19 19 19h69c9 0 16 -9 15 -19l-114 -805c-17 -124 -87 -186 -182 -186c-51 0 -88 24 -103 40c-5 5 -5 16 0 23l25 37c6 9 17 11 25 5c10 -8 32 -18 56 -18c40 0 70 31 80 99l25 182l-268 439h-1l-62 -478
c-1 -10 -10 -19 -20 -19h-67c-9 0 -16 9 -15 19z" />
    <glyph glyph-name="infinity" unicode="&#x221e;" horiz-adv-x="600" 
d="M180 157c-65 0 -116 62 -106 139c11 78 71 140 145 140c41 0 74 -29 88 -62c24 37 66 62 112 62c63 0 116 -62 105 -140c-10 -77 -68 -139 -144 -139c-39 0 -75 27 -89 61c-26 -35 -66 -61 -111 -61zM335 296c-5 -38 18 -68 52 -68s65 30 70 68c6 38 -17 68 -51 68
s-65 -30 -71 -68zM193 228c33 0 65 30 70 68c6 38 -18 68 -51 68c-34 0 -66 -30 -72 -68c-5 -38 19 -68 53 -68z" />
    <glyph glyph-name="partialdiff" unicode="&#x2202;" horiz-adv-x="570" 
d="M57 184c0 160 113 252 221 252c60 0 102 -32 109 -37c-13 123 -138 207 -177 221c-12 4 -16 10 -16 18c0 3 1 7 3 11l22 41c5 8 10 13 17 13c2 0 4 0 6 -1c71 -32 242 -133 242 -362c0 -144 -61 -350 -256 -350c-97 0 -171 85 -171 194zM151 191c0 -62 32 -111 91 -111
c98 0 137 114 142 198c-4 18 -32 76 -104 76c-73 0 -129 -76 -129 -163z" />
    <glyph glyph-name="integral" unicode="&#x222b;" horiz-adv-x="354" 
d="M95 -124l91 648c17 123 86 186 189 186c51 0 81 -25 95 -40c6 -6 5 -17 0 -24l-30 -40c-7 -9 -16 -10 -23 -3c-10 9 -29 19 -54 19c-35 0 -69 -29 -79 -98l-91 -649c-18 -123 -85 -185 -190 -185c-51 0 -80 24 -94 40c-5 6 -5 16 -1 23l31 40c7 9 16 10 23 3
s26 -19 53 -19c35 0 70 29 80 99z" />
    <glyph glyph-name="radical" unicode="&#x221a;" horiz-adv-x="677" 
d="M186 0l-101 380c-3 11 3 20 13 20h69c7 0 12 -5 12 -9l45 -204h3l267 503c3 5 7 10 14 10h163c9 0 14 -7 13 -16l-7 -54c-1 -8 -9 -16 -18 -16h-102l-339 -614c-3 -5 -7 -10 -14 -10h-7c-6 0 -10 5 -11 10z" />
    <glyph glyph-name="summation" unicode="&#x2211;" horiz-adv-x="538" 
d="M24 16l4 30l308 317l-222 295l3 26c2 8 9 16 17 16h368c8 0 13 -8 11 -16l-9 -65c-1 -9 -8 -16 -16 -16h-222l150 -194c5 -6 12 -16 10 -31l-5 -36c-2 -18 -14 -27 -20 -34l-208 -211h224c8 0 13 -8 12 -17l-9 -64c-2 -8 -9 -16 -17 -16h-368c-8 0 -13 8 -11 16z" />
    <glyph glyph-name="product" unicode="&#x220f;" horiz-adv-x="671" 
d="M31 16l93 668c2 8 10 16 17 16h487c8 0 13 -8 11 -16l-93 -668c-2 -8 -9 -16 -17 -16h-75c-9 0 -14 8 -12 16l82 587h-308l-82 -587c-2 -8 -8 -16 -17 -16h-75c-7 0 -13 8 -11 16z" />
    <glyph glyph-name="lozenge" unicode="&#x25ca;" horiz-adv-x="694" 
d="M282 9l-166 300c-9 17 -10 35 -8 48c2 16 9 30 24 48l247 298c4 5 10 9 15 9h6c5 0 8 -4 11 -9l164 -297c11 -22 13 -33 11 -50c-4 -23 -11 -32 -26 -51l-246 -296c-4 -5 -10 -9 -15 -9h-6c-5 0 -8 4 -11 9zM311 142h2l176 214l-113 215h-2l-176 -215z" />
    <glyph glyph-name="uniF8FF" unicode="&#xf8ff;" horiz-adv-x="599" 
d="M50 30v640c0 21 9 30 30 30h439c21 0 30 -9 30 -30v-640c0 -21 -9 -30 -30 -30h-439c-21 0 -30 9 -30 30zM262 314c0 -7 7 -12 14 -12h36c9 0 15 4 15 13v26c0 48 105 63 105 150c0 65 -54 111 -125 111c-87 0 -130 -61 -130 -61c-4 -6 -6 -13 0 -18l22 -22
c6 -4 11 -4 17 0c13 12 36 41 84 41c40 0 61 -25 61 -52c0 -63 -99 -72 -99 -147v-29zM245 156c0 -26 22 -48 48 -48c27 0 49 22 49 48s-22 48 -49 48c-26 0 -48 -22 -48 -48z" />
    <glyph glyph-name="zero.tf" horiz-adv-x="604" 
d="M264 -10c-120 0 -183 114 -183 265c0 262 102 436 282 436c118 0 182 -111 182 -264c0 -262 -105 -437 -281 -437zM277 82c102 0 165 142 165 341c0 107 -32 176 -92 176c-104 0 -167 -142 -167 -341c0 -108 33 -176 94 -176z" />
    <glyph glyph-name="one.tf" horiz-adv-x="604" 
d="M96 0c-10 0 -16 8 -15 18l6 43c2 11 10 19 20 19h128l64 446l-91 -47c-9 -4 -17 -1 -18 7l-3 40c-1 8 0 15 6 20l156 134h53c9 0 15 -9 14 -19l-83 -581h111c10 0 17 -8 15 -19l-6 -43c-1 -10 -10 -18 -20 -18h-337z" />
    <glyph glyph-name="two.tf" horiz-adv-x="604" 
d="M71 19l3 26l275 302c54 59 80 112 80 158c0 45 -24 93 -89 93c-47 0 -97 -46 -117 -69c-7 -9 -20 -7 -27 0l-32 36c-9 10 -8 20 -1 28c5 6 79 97 189 97c112 0 175 -79 175 -169c0 -91 -38 -149 -103 -222l-190 -213h214c9 0 15 -9 14 -19l-6 -48c-1 -10 -11 -19 -20 -19
h-351c-10 0 -15 9 -14 19z" />
    <glyph glyph-name="three.tf" horiz-adv-x="604" 
d="M77 79c-4 7 -2 18 5 24l41 33c9 8 18 6 25 -3c11 -15 54 -56 113 -56c60 0 119 45 119 120c0 53 -38 103 -119 103h-50c-10 0 -16 7 -14 21l6 43c2 15 8 21 20 21h51c88 0 137 57 137 125c0 57 -36 88 -82 88c-49 0 -89 -39 -107 -56c-8 -8 -18 -9 -25 -1l-32 38
c-9 10 -5 21 1 29c11 13 82 82 177 82c96 0 171 -64 171 -160c0 -93 -69 -157 -117 -180v-3c36 -18 87 -73 87 -147c0 -116 -88 -210 -226 -210c-104 0 -165 63 -181 89z" />
    <glyph glyph-name="four.tf" horiz-adv-x="604" 
d="M64 149c-10 0 -16 9 -14 19l8 60l394 457c3 3 7 6 14 6h40c9 0 16 -8 14 -19l-62 -442h73c10 0 16 -8 14 -18l-6 -42c-1 -10 -9 -19 -19 -19h-73l-17 -132c-2 -10 -11 -19 -20 -19h-63c-9 0 -16 9 -14 19l18 130h-287zM166 232h200l40 277h-2z" />
    <glyph glyph-name="five.tf" horiz-adv-x="604" 
d="M88 79c-4 7 -2 18 5 24l41 33c9 8 18 6 25 -3c11 -15 55 -54 114 -54c83 0 136 79 136 160c0 58 -33 107 -102 107h-134c-22 0 -29 19 -27 35l40 280c1 10 9 19 19 19h281c10 0 16 -9 15 -19l-7 -49c-1 -10 -10 -19 -20 -19h-208l-22 -159h85c110 0 180 -75 180 -191
c0 -138 -97 -253 -240 -253c-112 0 -165 63 -181 89z" />
    <glyph glyph-name="six.tf" horiz-adv-x="604" 
d="M99 215c0 314 260 454 367 487c12 4 19 -1 22 -12l12 -44c3 -12 -1 -21 -19 -28c-44 -18 -198 -94 -247 -208c11 6 58 26 110 26c94 0 173 -65 173 -187c0 -146 -97 -259 -230 -259c-116 0 -188 103 -188 225zM292 76c78 0 132 73 132 156c0 69 -37 121 -99 121
c-72 0 -118 -53 -128 -71c-20 -88 9 -206 95 -206z" />
    <glyph glyph-name="seven.tf" horiz-adv-x="604" 
d="M88 15l2 16l327 561h-263c-9 0 -15 9 -14 19l7 50c1 10 11 19 20 19h370c9 0 16 -9 15 -19l-2 -16l-360 -627c-7 -13 -14 -18 -26 -18h-60c-10 0 -17 7 -16 15z" />
    <glyph glyph-name="eight.tf" horiz-adv-x="604" 
d="M83 157c0 105 100 175 135 193v3c-31 20 -73 68 -73 135c0 119 94 202 219 202c97 0 173 -64 173 -159c0 -93 -71 -155 -116 -179l-1 -4c35 -19 87 -73 87 -147c0 -116 -87 -211 -238 -211c-108 0 -186 73 -186 167zM325 396c68 15 111 63 111 122c0 52 -34 87 -83 87
c-55 0 -109 -48 -109 -111c0 -52 27 -87 81 -98zM188 165c0 -56 42 -93 91 -93c64 0 124 47 124 121c0 47 -32 96 -91 107c-75 -13 -124 -75 -124 -135z" />
    <glyph glyph-name="nine.tf" horiz-adv-x="604" 
d="M125 40c-3 12 1 21 19 28c44 18 198 94 247 208c-11 -6 -58 -26 -110 -26c-94 0 -173 65 -173 187c0 146 97 259 230 259c116 0 188 -103 188 -225c0 -314 -260 -454 -367 -487c-12 -4 -19 1 -22 12zM300 333c72 0 118 53 128 71c20 88 -9 206 -95 206
c-78 0 -132 -73 -132 -156c0 -69 37 -121 99 -121z" />
    <glyph glyph-name="zerosuperior" unicode="&#x2070;" horiz-adv-x="318" 
d="M228 494c-61 0 -95 47 -95 122c0 116 51 193 139 193c58 0 95 -47 95 -122c0 -117 -51 -193 -139 -193zM236 555c37 0 62 50 62 126c0 41 -12 67 -35 67c-37 0 -60 -54 -60 -129c0 -39 12 -64 33 -64z" />
    <glyph glyph-name="foursuperior" unicode="&#x2074;" horiz-adv-x="331" 
d="M258 504c-4 0 -8 4 -8 9l7 49h-126c-4 0 -8 4 -7 8l6 40l175 187c2 2 5 3 7 3h32c4 0 8 -4 8 -9l-25 -178h35c5 0 8 -4 7 -8l-5 -34c-1 -5 -4 -9 -9 -9h-36l-6 -49c-1 -5 -6 -9 -11 -9h-44zM199 613h67l14 93z" />
    <glyph glyph-name="fivesuperior" unicode="&#x2075;" horiz-adv-x="292" 
d="M205 494c-43 0 -72 24 -82 38c-3 6 -4 9 1 15l23 23c5 5 8 6 13 1c7 -7 24 -21 54 -21c28 0 54 25 54 55c0 22 -15 38 -42 38h-68c-9 0 -13 8 -12 16l19 132c1 5 5 9 9 9h143c5 0 8 -4 7 -9l-5 -36c-1 -4 -5 -8 -9 -8h-97l-7 -50h36c58 0 90 -36 90 -86
c0 -68 -48 -117 -127 -117z" />
    <glyph glyph-name="sixsuperior" unicode="&#x2076;" horiz-adv-x="298" 
d="M220 494c-57 0 -90 48 -90 101c0 148 138 209 175 221c8 3 13 -1 14 -7l8 -30c1 -6 -1 -12 -10 -15c-23 -7 -88 -37 -108 -84c2 2 25 15 53 15c39 0 76 -28 76 -82c0 -66 -53 -119 -118 -119zM228 552c25 0 48 24 48 54c0 23 -15 41 -35 41c-22 0 -44 -20 -50 -32
c-3 -28 9 -63 37 -63z" />
    <glyph glyph-name="sevensuperior" unicode="&#x2077;" horiz-adv-x="289" 
d="M133 504c-5 0 -9 1 -8 7l1 7l140 227h-106c-5 0 -8 4 -7 9l5 37c1 5 5 9 9 9h180c4 0 8 -4 7 -9l-2 -13l-158 -265c-5 -7 -9 -9 -15 -9h-46z" />
    <glyph glyph-name="eightsuperior" unicode="&#x2078;" horiz-adv-x="302" 
d="M218 494c-58 0 -93 33 -93 76c0 50 53 81 64 86v1c-15 8 -36 30 -36 61c0 55 48 92 110 92c51 0 89 -30 89 -73s-36 -70 -57 -80v-1c18 -8 43 -31 43 -67c0 -53 -45 -95 -120 -95zM246 684c23 4 37 21 37 41c0 17 -11 31 -28 31c-18 0 -36 -18 -36 -40
c0 -16 9 -28 27 -32zM227 548c22 0 42 16 42 41c0 17 -10 33 -31 37c-25 -4 -43 -26 -43 -47c0 -19 15 -31 32 -31z" />
    <glyph glyph-name="ninesuperior" unicode="&#x2079;" horiz-adv-x="299" 
d="M173 488c-8 -3 -13 1 -14 7l-8 30c-1 6 1 12 10 15c23 7 88 37 108 84c-2 -2 -25 -15 -53 -15c-39 0 -76 28 -76 82c0 66 53 119 118 119c57 0 90 -48 90 -101c0 -148 -138 -209 -175 -221zM237 657c22 0 44 20 50 32c3 28 -9 63 -37 63c-25 0 -48 -24 -48 -54
c0 -23 15 -41 35 -41z" />
    <glyph glyph-name="zeroinferior" unicode="&#x2080;" horiz-adv-x="318" 
d="M33 -38c0 116 51 193 139 193c58 0 95 -47 95 -122c0 -117 -51 -193 -139 -193c-61 0 -95 47 -95 122zM103 -35c0 -39 12 -64 33 -64c37 0 62 50 62 126c0 41 -12 67 -35 67c-37 0 -60 -54 -60 -129z" />
    <glyph glyph-name="oneinferior" unicode="&#x2081;" horiz-adv-x="210" 
d="M47 59v27c0 5 2 8 7 11l73 49h41c4 0 8 -4 7 -9l-40 -278c0 -5 -4 -9 -9 -9h-49c-6 0 -9 4 -8 9l28 201l-43 -7c-5 -1 -7 1 -7 6z" />
    <glyph glyph-name="twoinferior" unicode="&#x2082;" horiz-adv-x="283" 
d="M76 74l-18 30c-3 6 -3 10 5 18c4 4 38 34 86 34c53 0 90 -36 90 -78c0 -38 -19 -68 -50 -101l-65 -73h82c6 0 8 -4 7 -10l-5 -35c-1 -5 -3 -9 -9 -9h-175c-6 0 -9 2 -8 9l2 15l121 130c23 23 33 40 33 58s-12 36 -36 36c-17 0 -36 -13 -47 -25c-5 -5 -10 -3 -13 1z" />
    <glyph glyph-name="threeinferior" unicode="&#x2083;" horiz-adv-x="286" 
d="M73 -15l3 28c1 8 7 12 15 12h27c30 0 50 18 50 42c0 20 -16 33 -35 33c-17 0 -33 -12 -43 -20c-4 -3 -8 -5 -13 1l-19 28c-3 4 -3 11 3 15c11 8 37 32 81 32c54 0 93 -32 93 -76c0 -42 -33 -67 -57 -77v-2c17 -8 44 -31 44 -66c0 -57 -47 -95 -117 -95
c-46 0 -74 28 -82 37c-4 5 -4 9 1 14l19 24c5 5 10 4 14 0c6 -6 23 -20 49 -20s48 17 48 43c0 19 -14 36 -44 36h-26c-9 0 -12 3 -11 11z" />
    <glyph glyph-name="fourinferior" unicode="&#x2084;" horiz-adv-x="331" 
d="M30 -44l175 187c2 2 5 3 7 3h32c4 0 8 -4 8 -9l-25 -178h35c5 0 8 -4 7 -8l-5 -34c-1 -5 -4 -9 -9 -9h-36l-6 -49c-1 -5 -6 -9 -11 -9h-44c-4 0 -8 4 -8 9l7 49h-126c-4 0 -8 4 -7 8zM99 -41h67l14 93z" />
    <glyph glyph-name="fiveinferior" unicode="&#x2085;" horiz-adv-x="292" 
d="M46 5l19 132c1 5 5 9 9 9h143c5 0 8 -4 7 -9l-5 -36c-1 -4 -5 -8 -9 -8h-97l-7 -50h36c58 0 90 -36 90 -86c0 -68 -48 -117 -127 -117c-43 0 -72 24 -82 38c-3 6 -4 9 1 15l23 23c5 5 8 6 13 1c7 -7 24 -21 54 -21c28 0 54 25 54 55c0 22 -15 38 -42 38h-68
c-9 0 -13 8 -12 16z" />
    <glyph glyph-name="sixinferior" unicode="&#x2086;" horiz-adv-x="298" 
d="M30 -59c0 148 138 209 175 221c8 3 13 -1 14 -7l8 -30c1 -6 -1 -12 -10 -15c-23 -7 -88 -37 -108 -84c2 2 25 15 53 15c39 0 76 -28 76 -82c0 -66 -53 -119 -118 -119c-57 0 -90 48 -90 101zM91 -39c-3 -28 9 -63 37 -63c25 0 48 24 48 54c0 23 -15 41 -35 41
c-22 0 -44 -20 -50 -32z" />
    <glyph glyph-name="seveninferior" unicode="&#x2087;" horiz-adv-x="289" 
d="M60 91c-5 0 -8 4 -7 9l5 37c1 5 5 9 9 9h180c4 0 8 -4 7 -9l-2 -13l-158 -265c-5 -7 -9 -9 -15 -9h-46c-5 0 -9 1 -8 7l1 7l140 227h-106z" />
    <glyph glyph-name="eightinferior" unicode="&#x2088;" horiz-adv-x="302" 
d="M53 64c0 55 48 92 110 92c51 0 89 -30 89 -73s-36 -70 -57 -80v-1c18 -8 43 -31 43 -67c0 -53 -45 -95 -120 -95c-58 0 -93 33 -93 76c0 50 53 81 64 86v1c-15 8 -36 30 -36 61zM119 62c0 -16 9 -28 27 -32c23 4 37 21 37 41c0 17 -11 31 -28 31c-18 0 -36 -18 -36 -40z
M95 -75c0 -19 15 -31 32 -31c22 0 42 16 42 41c0 17 -10 33 -31 37c-25 -4 -43 -26 -43 -47z" />
    <glyph glyph-name="nineinferior" unicode="&#x2089;" horiz-adv-x="299" 
d="M40 37c0 66 53 119 118 119c57 0 90 -48 90 -101c0 -148 -138 -209 -175 -221c-8 -3 -13 1 -14 7l-8 30c-1 6 1 12 10 15c23 7 88 37 108 84c-2 -2 -25 -15 -53 -15c-39 0 -76 28 -76 82zM102 44c0 -23 15 -41 35 -41c22 0 44 20 50 32c3 28 -9 63 -37 63
c-25 0 -48 -24 -48 -54z" />
    <glyph glyph-name="zero.denom" horiz-adv-x="318" 
d="M63 112c0 116 51 193 139 193c58 0 95 -47 95 -122c0 -117 -51 -193 -139 -193c-61 0 -95 47 -95 122zM166 51c37 0 62 50 62 126c0 41 -12 67 -35 67c-37 0 -60 -54 -60 -129c0 -39 12 -64 33 -64z" />
    <glyph glyph-name="one.denom" horiz-adv-x="210" 
d="M99 9l28 201l-43 -7c-5 -1 -7 1 -7 6v27c0 5 2 8 7 11l73 49h41c4 0 8 -4 7 -9l-40 -278c0 -5 -4 -9 -9 -9h-49c-6 0 -9 4 -8 9z" />
    <glyph glyph-name="two.denom" horiz-adv-x="283" 
d="M46 9l2 15l121 130c23 23 33 40 33 58s-12 36 -36 36c-17 0 -36 -13 -47 -25c-5 -5 -10 -3 -13 1l-18 30c-3 6 -3 10 5 18c4 4 38 34 86 34c53 0 90 -36 90 -78c0 -38 -19 -68 -50 -101l-65 -73h82c6 0 8 -4 7 -10l-5 -35c-1 -5 -3 -9 -9 -9h-175c-6 0 -9 2 -8 9z" />
    <glyph glyph-name="three.denom" horiz-adv-x="286" 
d="M53 27c-4 5 -4 9 1 14l19 24c5 5 10 4 14 0c6 -6 23 -20 49 -20s48 17 48 43c0 19 -14 36 -44 36h-26c-9 0 -12 3 -11 11l3 28c1 8 7 12 15 12h27c30 0 50 18 50 42c0 20 -16 33 -35 33c-17 0 -33 -12 -43 -20c-4 -3 -8 -5 -13 1l-19 28c-3 4 -3 11 3 15
c11 8 37 32 81 32c54 0 93 -32 93 -76c0 -42 -33 -67 -57 -77v-2c17 -8 44 -31 44 -66c0 -57 -47 -95 -117 -95c-46 0 -74 28 -82 37z" />
    <glyph glyph-name="four.denom" horiz-adv-x="331" 
d="M61 58c-4 0 -8 4 -7 8l6 40l175 187c2 2 5 3 7 3h32c4 0 8 -4 8 -9l-25 -178h35c5 0 8 -4 7 -8l-5 -34c-1 -5 -4 -9 -9 -9h-36l-6 -49c-1 -5 -6 -9 -11 -9h-44c-4 0 -8 4 -8 9l7 49h-126zM129 109h67l14 93z" />
    <glyph glyph-name="five.denom" horiz-adv-x="292" 
d="M53 28c-3 6 -4 9 1 15l23 23c5 5 8 6 13 1c7 -7 24 -21 54 -21c28 0 54 25 54 55c0 22 -15 38 -42 38h-68c-9 0 -13 8 -12 16l19 132c1 5 5 9 9 9h143c5 0 8 -4 7 -9l-5 -36c-1 -4 -5 -8 -9 -8h-97l-7 -50h36c58 0 90 -36 90 -86c0 -68 -48 -117 -127 -117
c-43 0 -72 24 -82 38z" />
    <glyph glyph-name="six.denom" horiz-adv-x="298" 
d="M60 91c0 148 138 209 175 221c8 3 13 -1 14 -7l8 -30c1 -6 -1 -12 -10 -15c-23 -7 -88 -37 -108 -84c2 2 25 15 53 15c39 0 76 -28 76 -82c0 -66 -53 -119 -118 -119c-57 0 -90 48 -90 101zM121 111c-3 -28 9 -63 37 -63c25 0 48 24 48 54c0 23 -15 41 -35 41
c-22 0 -44 -20 -50 -32z" />
    <glyph glyph-name="seven.denom" horiz-adv-x="289" 
d="M55 7l1 7l140 227h-106c-5 0 -8 4 -7 9l5 37c1 5 5 9 9 9h180c4 0 8 -4 7 -9l-2 -13l-158 -265c-5 -7 -9 -9 -15 -9h-46c-5 0 -9 1 -8 7z" />
    <glyph glyph-name="eight.denom" horiz-adv-x="302" 
d="M55 66c0 50 53 81 64 86v1c-15 8 -36 30 -36 61c0 55 48 92 110 92c51 0 89 -30 89 -73s-36 -70 -57 -80v-1c18 -8 43 -31 43 -67c0 -53 -45 -95 -120 -95c-58 0 -93 33 -93 76zM176 180c23 4 37 21 37 41c0 17 -11 31 -28 31c-18 0 -36 -18 -36 -40c0 -16 9 -28 27 -32z
M125 75c0 -19 15 -31 32 -31c22 0 42 16 42 41c0 17 -10 33 -31 37c-25 -4 -43 -26 -43 -47z" />
    <glyph glyph-name="nine.denom" horiz-adv-x="299" 
d="M81 21c-1 6 1 12 10 15c23 7 88 37 108 84c-2 -2 -25 -15 -53 -15c-39 0 -76 28 -76 82c0 66 53 119 118 119c57 0 90 -48 90 -101c0 -148 -138 -209 -175 -221c-8 -3 -13 1 -14 7zM167 153c22 0 44 20 50 32c3 28 -9 63 -37 63c-25 0 -48 -24 -48 -54
c0 -23 15 -41 35 -41z" />
    <glyph glyph-name="zero.num" horiz-adv-x="318" 
d="M208 394c-61 0 -95 47 -95 122c0 116 51 193 139 193c58 0 95 -47 95 -122c0 -117 -51 -193 -139 -193zM216 455c37 0 62 50 62 126c0 41 -12 67 -35 67c-37 0 -60 -54 -60 -129c0 -39 12 -64 33 -64z" />
    <glyph glyph-name="one.num" horiz-adv-x="210" 
d="M157 404c-6 0 -9 4 -8 9l28 201l-43 -7c-5 -1 -7 1 -7 6v27c0 5 2 8 7 11l73 49h41c4 0 8 -4 7 -9l-40 -278c0 -5 -4 -9 -9 -9h-49z" />
    <glyph glyph-name="two.num" horiz-adv-x="283" 
d="M104 404c-6 0 -9 2 -8 9l2 15l121 130c23 23 33 40 33 58s-12 36 -36 36c-17 0 -36 -13 -47 -25c-5 -5 -10 -3 -13 1l-18 30c-3 6 -3 10 5 18c4 4 38 34 86 34c53 0 90 -36 90 -78c0 -38 -19 -68 -50 -101l-65 -73h82c6 0 8 -4 7 -10l-5 -35c-1 -5 -3 -9 -9 -9h-175z" />
    <glyph glyph-name="three.num" horiz-adv-x="286" 
d="M185 394c-46 0 -74 28 -82 37c-4 5 -4 9 1 14l19 24c5 5 10 4 14 0c6 -6 23 -20 49 -20s48 17 48 43c0 19 -14 36 -44 36h-26c-9 0 -12 3 -11 11l3 28c1 8 7 12 15 12h27c30 0 50 18 50 42c0 20 -16 33 -35 33c-17 0 -33 -12 -43 -20c-4 -3 -8 -5 -13 1l-19 28
c-3 4 -3 11 3 15c11 8 37 32 81 32c54 0 93 -32 93 -76c0 -42 -33 -67 -57 -77v-2c17 -8 44 -31 44 -66c0 -57 -47 -95 -117 -95z" />
    <glyph glyph-name="four.num" horiz-adv-x="331" 
d="M238 404c-4 0 -8 4 -8 9l7 49h-126c-4 0 -8 4 -7 8l6 40l175 187c2 2 5 3 7 3h32c4 0 8 -4 8 -9l-25 -178h35c5 0 8 -4 7 -8l-5 -34c-1 -5 -4 -9 -9 -9h-36l-6 -49c-1 -5 -6 -9 -11 -9h-44zM179 513h67l14 93z" />
    <glyph glyph-name="five.num" horiz-adv-x="292" 
d="M185 394c-43 0 -72 24 -82 38c-3 6 -4 9 1 15l23 23c5 5 8 6 13 1c7 -7 24 -21 54 -21c28 0 54 25 54 55c0 22 -15 38 -42 38h-68c-9 0 -13 8 -12 16l19 132c1 5 5 9 9 9h143c5 0 8 -4 7 -9l-5 -36c-1 -4 -5 -8 -9 -8h-97l-7 -50h36c58 0 90 -36 90 -86
c0 -68 -48 -117 -127 -117z" />
    <glyph glyph-name="six.num" horiz-adv-x="298" 
d="M200 394c-57 0 -90 48 -90 101c0 148 138 209 175 221c8 3 13 -1 14 -7l8 -30c1 -6 -1 -12 -10 -15c-23 -7 -88 -37 -108 -84c2 2 25 15 53 15c39 0 76 -28 76 -82c0 -66 -53 -119 -118 -119zM208 452c25 0 48 24 48 54c0 23 -15 41 -35 41c-22 0 -44 -20 -50 -32
c-3 -28 9 -63 37 -63z" />
    <glyph glyph-name="seven.num" horiz-adv-x="289" 
d="M113 404c-5 0 -9 1 -8 7l1 7l140 227h-106c-5 0 -8 4 -7 9l5 37c1 5 5 9 9 9h180c4 0 8 -4 7 -9l-2 -13l-158 -265c-5 -7 -9 -9 -15 -9h-46z" />
    <glyph glyph-name="eight.num" horiz-adv-x="302" 
d="M198 394c-58 0 -93 33 -93 76c0 50 53 81 64 86v1c-15 8 -36 30 -36 61c0 55 48 92 110 92c51 0 89 -30 89 -73s-36 -70 -57 -80v-1c18 -8 43 -31 43 -67c0 -53 -45 -95 -120 -95zM226 584c23 4 37 21 37 41c0 17 -11 31 -28 31c-18 0 -36 -18 -36 -40
c0 -16 9 -28 27 -32zM207 448c22 0 42 16 42 41c0 17 -10 33 -31 37c-25 -4 -43 -26 -43 -47c0 -19 15 -31 32 -31z" />
    <glyph glyph-name="nine.num" horiz-adv-x="299" 
d="M153 388c-8 -3 -13 1 -14 7l-8 30c-1 6 1 12 10 15c23 7 88 37 108 84c-2 -2 -25 -15 -53 -15c-39 0 -76 28 -76 82c0 66 53 119 118 119c57 0 90 -48 90 -101c0 -148 -138 -209 -175 -221zM217 557c22 0 44 20 50 32c3 28 -9 63 -37 63c-25 0 -48 -24 -48 -54
c0 -23 15 -41 35 -41z" />
    <glyph glyph-name="parenleft.case" horiz-adv-x="324" 
d="M72 237c0 384 154 496 285 503c10 1 16 -4 15 -13l-4 -47c-1 -12 -7 -17 -13 -18c-168 -39 -186 -270 -186 -426c0 -111 29 -188 97 -209c6 -2 10 -9 8 -18l-9 -44c-2 -9 -9 -14 -19 -13c-77 4 -174 86 -174 285z" />
    <glyph glyph-name="parenright.case" horiz-adv-x="325" 
d="M20 29c161 40 187 248 187 421c0 111 -30 194 -98 213c-6 1 -10 8 -8 18l10 46c2 9 8 14 18 13c78 -6 174 -74 174 -287c0 -384 -149 -500 -285 -501c-10 0 -15 4 -14 16l3 44c1 8 6 15 13 17z" />
    <glyph glyph-name="hyphen.case" horiz-adv-x="367" 
d="M94 296c-10 0 -16 8 -15 18l6 43c2 11 10 19 20 19h197c10 0 17 -8 15 -19l-6 -43c-1 -10 -10 -18 -20 -18h-197z" />
    <glyph glyph-name="bracketleft.case" horiz-adv-x="319" 
d="M112 -99h119c9 0 16 -8 15 -18l-6 -44c-1 -10 -11 -19 -20 -19h-193c-9 0 -16 9 -15 19l136 962c1 10 10 19 19 19h194c9 0 15 -9 14 -19l-6 -44c-2 -11 -11 -19 -20 -19h-119z" />
    <glyph glyph-name="bracketright.case" horiz-adv-x="320" 
d="M-11 -99h118l118 837h-118c-9 0 -16 8 -14 19l6 44c1 10 10 19 19 19h194c9 0 15 -9 14 -19l-135 -962c-2 -10 -11 -19 -20 -19h-193c-9 0 -17 9 -15 19l7 44c2 10 10 18 19 18z" />
    <glyph glyph-name="braceleft.case" horiz-adv-x="361" 
d="M70 66l20 142c6 45 -31 68 -52 73c-9 2 -12 8 -11 18l6 40c2 11 8 14 14 16c12 4 68 29 74 73l20 144c30 212 165 254 258 258c10 0 17 -5 16 -17l-4 -41c-1 -11 -8 -17 -14 -18c-77 -15 -144 -77 -159 -182l-17 -119c-13 -93 -77 -125 -92 -133l-1 -4
c23 -12 69 -39 56 -130l-17 -120c-15 -105 35 -165 108 -180c6 -1 12 -8 10 -18l-9 -41c-2 -10 -11 -17 -20 -17c-93 3 -211 75 -186 256z" />
    <glyph glyph-name="bar.case" horiz-adv-x="183" 
d="M11 -162l144 1023c2 11 11 19 20 19h10c9 0 15 -8 13 -19l-143 -1023c-1 -10 -11 -18 -20 -18h-9c-9 0 -16 8 -15 18z" />
    <glyph glyph-name="braceright.case" horiz-adv-x="361" 
d="M141 66l17 120c13 91 65 119 91 131l1 5c-12 8 -68 38 -55 131l17 119c15 105 -35 167 -109 182c-9 2 -11 10 -9 18l9 41c3 12 10 17 20 17c92 -3 213 -72 186 -258l-21 -144c-6 -44 43 -69 54 -73c5 -2 11 -7 10 -16l-6 -40c-2 -13 -9 -16 -16 -18
c-22 -5 -66 -28 -72 -73l-20 -142c-29 -211 -165 -248 -258 -256c-9 -1 -17 5 -16 17l3 41c1 11 9 17 15 18c77 16 144 75 159 180z" />
    <glyph glyph-name="guilsinglleft.case" horiz-adv-x="251" 
d="M116 159l-72 155c-4 8 -2 17 3 24l116 148c4 5 11 12 20 12h44c15 0 18 -15 9 -31l-85 -147l36 -139c4 -16 -2 -30 -18 -30h-41c-6 0 -10 4 -12 8z" />
    <glyph glyph-name="guilsinglright.case" horiz-adv-x="252" 
d="M44 151c-15 0 -18 15 -9 31l85 147l-36 139c-4 16 2 30 18 30h41c6 0 10 -4 12 -8l72 -155c4 -8 2 -17 -3 -24l-116 -148c-4 -5 -11 -12 -20 -12h-44z" />
    <glyph glyph-name="guillemotleft.case" horiz-adv-x="421" 
d="M286 159l-72 155c-4 8 -2 17 3 24l116 148c4 5 11 12 20 12h44c15 0 18 -15 9 -31l-85 -147l36 -139c4 -16 -2 -30 -18 -30h-41c-6 0 -10 4 -12 8zM116 159l-72 155c-4 8 -2 17 3 24l116 148c4 5 11 12 20 12h44c15 0 18 -15 9 -31l-85 -147l36 -139
c4 -16 -2 -30 -18 -30h-41c-6 0 -10 4 -12 8z" />
    <glyph glyph-name="guillemotright.case" horiz-adv-x="422" 
d="M205 182l85 147l-36 139c-4 16 2 30 18 30h41c6 0 10 -4 12 -8l72 -155c4 -8 2 -17 -3 -24l-116 -148c-4 -5 -11 -12 -20 -12h-44c-15 0 -18 15 -9 31zM44 151c-15 0 -18 15 -9 31l85 147l-36 139c-4 16 2 30 18 30h41c6 0 10 -4 12 -8l72 -155c4 -8 2 -17 -3 -24
l-116 -148c-4 -5 -11 -12 -20 -12h-44z" />
    <glyph glyph-name="endash.case" horiz-adv-x="515" 
d="M101 306c-10 0 -17 8 -15 18l4 24c2 11 10 19 19 19h349c10 0 17 -8 15 -19l-4 -24c-2 -10 -9 -18 -19 -18h-349z" />
    <glyph glyph-name="emdash.case" horiz-adv-x="713" 
d="M101 306c-10 0 -17 8 -15 18l4 24c2 11 10 19 19 19h547c10 0 17 -8 15 -19l-4 -24c-2 -10 -9 -18 -19 -18h-547z" />
    <glyph glyph-name="bullet.case" horiz-adv-x="341" 
d="M172 197c-54 0 -94 47 -94 103c0 73 63 135 128 135c57 0 98 -48 98 -106c0 -72 -63 -132 -132 -132z" />
    <glyph glyph-name="periodcentered.case" horiz-adv-x="235" 
d="M131 275c-36 0 -62 30 -62 65c0 46 40 83 83 83c37 0 63 -29 63 -66c0 -44 -40 -82 -84 -82z" />
    <glyph glyph-name="brokenbar" unicode="&#xa6;" horiz-adv-x="333" 
d="M180 392c-9 0 -16 8 -15 18l47 331c1 11 11 19 20 19h10c9 0 15 -8 13 -19l-46 -331c-2 -10 -11 -18 -20 -18h-9zM115 49c1 11 10 19 19 19h11c9 0 15 -8 13 -19l-46 -331c-2 -10 -11 -18 -20 -18h-9c-9 0 -16 8 -15 18z" />
    </font>
</defs>
</svg>
